<svg xmlns="http://www.w3.org/2000/svg" width="512" height="512" viewBox="0 0 512 512" version="1.1">
	<path d="M 223 3.695 C 199.384 6.224, 176.819 15.016, 171.771 23.655 C 170.077 26.554, 170.116 26.826, 173.712 37.057 C 177.129 46.778, 177.376 48.261, 177.283 58.500 C 177.174 70.451, 175.084 83.126, 172.275 88.869 L 170.500 92.500 161.500 92.620 C 147.355 92.809, 139.444 95.752, 131.799 103.668 C 123.911 111.837, 121.314 124.156, 125.722 132.500 C 129.679 139.992, 141.275 149, 146.960 149 C 149.828 149, 149.518 150.183, 145.500 154.570 C 141.639 158.785, 141.058 162.277, 143.449 166.901 C 145.505 170.878, 151.654 176, 154.371 176 C 156.320 176, 156.917 176.879, 158.272 181.750 C 159.913 187.644, 164.232 194.691, 173.016 205.808 C 175.757 209.277, 178 212.763, 178 213.554 C 178 214.346, 173.311 219.717, 167.580 225.489 C 152.067 241.116, 144.153 252.195, 126.982 282.325 L 119.734 295.044 110.617 300.684 C 98.067 308.448, 91.171 311.867, 86.713 312.536 C 80.845 313.417, 70.975 323.373, 63 336.458 C 59.425 342.324, 53.463 351.846, 49.750 357.618 C 46.038 363.390, 43 369.223, 43 370.579 C 43 373.201, 48.059 376.848, 69.770 389.877 C 131.840 427.125, 149.566 438.221, 168 451.367 C 179.906 459.858, 197 473.546, 197 474.590 C 197 474.859, 196.145 476.755, 195.101 478.802 C 191.994 484.893, 188.844 496.519, 189.184 500.648 C 189.727 507.266, 192.215 506.262, 204.213 494.584 C 210.336 488.625, 219.241 481.285, 224.995 477.454 C 244.040 464.776, 279.197 448.330, 326.500 429.973 C 353.431 419.521, 366.576 415.030, 404 403.492 C 438.761 392.775, 459.477 385.818, 464.968 383.016 C 471.560 379.653, 471.558 377.376, 464.947 364.410 C 462.168 358.960, 458.068 350.451, 455.836 345.502 C 448.507 329.252, 442.237 322, 435.516 322 C 433.947 322, 429.925 320.121, 426.134 317.617 C 422.486 315.206, 409.182 307.219, 396.572 299.867 C 370.016 284.385, 372.817 287.164, 350.845 254.500 C 335.109 231.107, 332.212 227.232, 323.793 218.312 L 317.953 212.124 323.064 207.343 C 331.117 199.811, 332.328 197.672, 331.535 192.383 C 330.869 187.942, 330.809 187.882, 327.679 188.511 C 321.674 189.717, 321.132 190.104, 318.183 195.295 C 313.286 203.912, 308.847 206.810, 303.905 204.614 C 302.584 204.027, 301.843 205.674, 299.591 214.203 C 298.096 219.866, 296.184 226.362, 295.343 228.637 C 294.503 230.912, 293.519 236.075, 293.157 240.110 L 292.500 247.446 284.500 253.841 C 280.100 257.359, 273.467 263.096, 269.761 266.591 C 263.933 272.085, 262 273.252, 255.474 275.222 C 249.069 277.155, 247.999 277.788, 248.409 279.403 C 248.675 280.450, 248.192 282.700, 247.336 284.403 C 245.170 288.713, 238.947 295, 236.848 295 C 235.888 295, 233.857 293.369, 232.337 291.375 C 230.110 288.456, 229.571 286.704, 229.571 282.383 L 229.571 277.017 224.314 275.489 C 219.280 274.026, 213.068 269.597, 203.877 260.920 C 200.895 258.105, 200.122 256.527, 199.506 252 C 199.095 248.975, 197.971 245.375, 197.010 244 C 192.966 238.219, 190.694 232.049, 188.017 219.581 C 184.781 204.505, 182.998 199.605, 180.209 198.112 C 178.110 196.989, 172 188.094, 172 186.162 C 172 185.523, 172.625 185, 173.389 185 C 174.153 185, 175.758 184.207, 176.955 183.237 L 179.132 181.474 176.992 176.487 C 174.740 171.242, 174.784 169.874, 177.481 161 C 178.446 157.829, 179.443 149.780, 179.838 141.989 C 180.436 130.187, 180.810 128.075, 182.794 125.289 L 185.066 122.099 189.783 124.123 C 196.359 126.944, 221.151 131.052, 235.500 131.697 C 248.427 132.279, 275.983 129.425, 285.595 126.510 C 288.293 125.691, 291.036 125.017, 291.691 125.011 C 292.347 125.005, 294.363 127.777, 296.172 131.172 C 300.406 139.114, 307.465 146.014, 316.397 150.938 C 325.620 156.023, 331.914 157.638, 336.821 156.181 C 338.844 155.580, 342.912 154.561, 345.859 153.918 C 353.253 152.304, 362.341 145.264, 366.397 138.008 C 372.063 127.870, 369.614 116.304, 359.950 107.574 C 353.983 102.183, 348.016 99.848, 338.275 99.090 C 330.585 98.492, 329.738 98.207, 327.526 95.471 C 320.518 86.802, 317.146 72.992, 319.090 60.922 C 319.655 57.412, 321.666 49.912, 323.559 44.255 C 325.451 38.599, 327 32.402, 327 30.485 C 327 23.427, 315.868 15.851, 297.810 10.618 C 278.841 5.121, 241.743 1.688, 223 3.695 M 269.936 13.851 C 271.166 14.705, 271.094 15.464, 269.436 19.139 C 267.780 22.809, 267.500 25.750, 267.500 39.465 C 267.500 52.528, 267.222 55.718, 266 56.679 C 264.132 58.146, 264.856 58.457, 273.732 59.999 C 277.160 60.594, 281.403 61.686, 283.160 62.425 C 286.079 63.653, 285.538 63.734, 276.928 63.367 C 269.460 63.048, 268.020 63.194, 270 64.068 C 271.375 64.675, 276.921 65.425, 282.323 65.735 L 292.147 66.299 291.486 62.776 C 290.744 58.821, 293.106 49.341, 297.987 36.686 C 302.959 23.794, 301.940 20.515, 291.533 15.912 C 286.307 13.600, 266.909 11.749, 269.936 13.851 M 234.660 65.132 C 227.141 66.098, 209.495 70.362, 205.520 72.173 C 202.703 73.456, 202.006 75.597, 204.750 74.539 C 205.713 74.167, 209.650 73.017, 213.500 71.982 C 237.366 65.569, 264.841 67.182, 289.440 76.441 C 296.757 79.195, 298 79.448, 298 78.184 C 298 75.028, 278.144 68.541, 260.500 65.932 C 246.449 63.854, 244.965 63.808, 234.660 65.132 M 258.250 72.606 C 254.425 74.540, 254.183 76.478, 257.059 82.117 C 258.192 84.337, 258.980 87.131, 258.809 88.327 C 258.517 90.380, 257.947 90.509, 248.500 90.657 C 228.215 90.976, 214.215 92.923, 205.239 96.674 C 199.856 98.923, 201.740 98.978, 211 96.842 C 216.777 95.510, 224.999 94.698, 236.665 94.307 C 262.606 93.438, 278.397 95.955, 294.046 103.455 C 301.419 106.988, 306 107.944, 306 105.949 C 306 105.371, 304.407 104.232, 302.460 103.419 L 298.920 101.940 299.210 93.720 L 299.500 85.500 302.651 85.194 C 307.415 84.731, 312.689 89.741, 313.561 95.557 C 313.927 98.001, 314.683 100, 315.241 100 C 316.816 100, 315.546 90.483, 313.568 87.463 C 311.129 83.741, 303.711 80.641, 298.814 81.298 C 292.443 82.153, 291.678 83.360, 292.463 91.319 C 293.004 96.809, 292.873 98.125, 291.821 97.777 C 289.775 97.101, 289.501 84.691, 291.467 81.691 C 292.981 79.380, 292.920 79.269, 289.262 77.673 C 284.552 75.618, 271.949 72.294, 266 71.536 C 262.858 71.136, 260.519 71.459, 258.250 72.606 M 172 99.129 C 198.607 108.838, 224.626 117.266, 232.500 118.726 C 239.005 119.932, 247.045 120.392, 261.500 120.384 C 288.520 120.369, 296.275 118.889, 323.295 108.590 C 335.780 103.831, 347.998 105.845, 357.525 114.231 C 362.153 118.305, 362.221 118.328, 360.664 115.317 C 357.172 108.563, 347.645 102.982, 338.334 102.235 C 330.971 101.644, 326.671 102.624, 310 108.695 C 292.981 114.894, 280.641 116.929, 259.849 116.969 C 234.499 117.016, 221.036 114.308, 186 102.111 C 176.375 98.760, 167.375 96.021, 166 96.023 C 164.615 96.025, 167.292 97.410, 172 99.129 M 274.500 142.434 C 272.850 143.180, 268.924 146.301, 265.775 149.370 C 262.627 152.438, 258.914 155.234, 257.525 155.583 C 254.361 156.377, 254.326 157.512, 257.405 159.530 C 259.584 160.957, 260.160 160.960, 263.520 159.556 C 265.559 158.704, 268.746 156.674, 270.601 155.045 C 277.548 148.946, 288.725 148.818, 293.832 154.778 L 296.165 157.500 295.456 155 C 293.227 147.141, 286.941 140.979, 281.215 141.039 C 279.172 141.061, 276.150 141.688, 274.500 142.434 M 195.459 144.367 C 190.694 146.586, 185 151.930, 185 154.184 C 185 154.785, 185.728 154.900, 186.750 154.460 C 187.713 154.046, 191.200 153.521, 194.500 153.293 C 199.090 152.977, 201.310 153.326, 203.947 154.780 C 208.631 157.362, 208.972 158.995, 204.833 159.022 C 201.796 159.042, 195.672 161.360, 192.064 163.855 C 190.875 164.677, 190.853 165.118, 191.937 166.424 C 192.656 167.291, 193.695 168, 194.245 168 C 194.803 168, 194.694 167.337, 194 166.500 C 192.950 165.235, 193.146 165, 195.255 165 C 196.630 165, 198.315 164.325, 199 163.500 C 199.685 162.675, 200.977 162.007, 201.872 162.015 C 203.202 162.028, 203.244 162.192, 202.104 162.914 C 199.332 164.670, 201.711 167, 206.277 167 C 211.321 167, 214.621 165.062, 213.694 162.645 C 212.840 160.420, 214.574 160.574, 218.632 163.082 C 222.388 165.403, 222.856 166.627, 220.250 167.315 C 219.287 167.569, 219.738 167.729, 221.250 167.670 C 222.762 167.612, 224 167.298, 224 166.973 C 224 165.948, 221.591 163.353, 219.106 161.701 L 216.712 160.110 219.356 159.447 C 221.948 158.796, 223.075 157, 220.892 157 C 220.282 157, 217.356 154.534, 214.389 151.519 C 210.126 147.187, 202.633 141.948, 200.790 142.010 C 200.630 142.015, 198.232 143.076, 195.459 144.367 M 309.360 150.505 C 309.042 151.332, 309.097 153.695, 309.482 155.755 C 311.201 164.955, 310.189 169.915, 305.009 177.684 L 302.887 180.869 306.560 184.934 C 310.694 189.510, 312.890 189.927, 317.096 186.932 C 319.521 185.205, 320 185.123, 320 186.432 C 320 188.434, 320.547 188.408, 329.263 186 C 338.155 183.543, 340.733 181.720, 344.227 175.418 C 347.649 169.244, 347.699 165.493, 344.422 160.670 C 342.046 157.174, 341.594 156.939, 338.672 157.688 C 336.927 158.134, 333.186 158.500, 330.357 158.500 C 325.863 158.500, 324.335 157.900, 318.262 153.750 C 310.563 148.488, 310.186 148.351, 309.360 150.505 M 266 162.207 C 261.892 164.168, 261.718 164.391, 264 164.769 C 265.375 164.996, 267.175 165.781, 268 166.513 C 272.107 170.158, 278.977 168.799, 280.486 164.044 C 281.149 161.956, 281.320 161.999, 286.831 165.612 C 287.013 165.731, 286.643 166.799, 286.008 167.985 C 284.869 170.114, 284.887 170.120, 287.474 168.425 L 290.094 166.708 287.497 163.997 C 285.323 161.728, 284.050 161.286, 279.688 161.286 C 276.821 161.286, 273.581 161.010, 272.488 160.672 C 271.349 160.321, 268.577 160.977, 266 162.207 M 254.869 163.558 C 252.242 164.937, 250.247 168, 251.976 168 C 253.263 168, 258.606 163.276, 258 162.673 C 257.725 162.400, 256.316 162.798, 254.869 163.558 M 331.150 168.782 C 330.881 172.870, 328.087 178.147, 324.255 181.806 L 320.500 185.390 324 182.842 C 328.482 179.579, 332.270 172.914, 331.718 169.263 C 331.374 166.991, 331.273 166.906, 331.150 168.782 M 222.170 212.138 C 222.535 214.674, 228.223 219, 231.193 219 C 232.237 219, 234.308 217.768, 235.795 216.262 L 238.500 213.524 232.310 212.829 C 228.905 212.447, 225.157 211.619, 223.980 210.989 C 222.059 209.961, 221.874 210.078, 222.170 212.138 M 251.500 212.536 L 248.500 213.910 251.643 213.955 C 253.547 213.982, 255.013 213.409, 255.362 212.500 C 256.047 210.714, 255.467 210.719, 251.500 212.536 M 217.750 232.572 C 216.540 233.801, 216.886 235, 218.452 235 C 219.250 235, 221.906 238.096, 224.354 241.881 C 226.803 245.665, 229.243 249.032, 229.777 249.362 C 230.311 249.692, 233.843 250.234, 237.624 250.566 L 244.500 251.169 253.250 242.504 C 258.063 237.739, 262 233.651, 262 233.420 C 262 232.358, 249.264 233.163, 243.617 234.581 C 237.946 236.006, 236.961 236.010, 233.657 234.630 C 229.357 232.833, 218.833 231.472, 217.750 232.572 M 203.621 238.412 C 203.931 241.664, 204.587 245.264, 205.080 246.412 C 206.150 248.907, 205.337 241.394, 203.951 235.984 C 203.256 233.271, 203.183 233.809, 203.621 238.412 M 227.500 240.015 C 236.851 245.591, 242.745 245.808, 250.689 240.869 C 254.226 238.670, 254.331 238.476, 252.147 238.167 C 250.852 237.984, 247.027 238.572, 243.647 239.474 C 237.739 241.050, 237.270 241.034, 231.593 239.057 C 223.261 236.155, 221.656 236.531, 227.500 240.015 M 288.494 256.701 C 279.163 264.549, 264.309 277.723, 255.242 286.193 C 242.776 297.839, 237.676 300.708, 232.489 298.996 C 227.811 297.453, 223.945 294.091, 218.274 286.637 C 211.860 278.207, 195.832 260, 194.824 260 C 194.371 260, 193.985 260.337, 193.967 260.750 C 193.949 261.163, 193.527 264.650, 193.030 268.500 C 191.432 280.864, 194.689 297.693, 199.141 300.075 C 201.336 301.250, 201.892 300.988, 208.139 295.830 C 210.690 293.724, 213.390 292.002, 214.139 292.005 C 214.887 292.008, 216.850 293.117, 218.500 294.469 L 221.500 296.928 218.750 296.964 C 215.139 297.011, 215.280 297.909, 219.546 302.045 C 222.910 305.306, 223.410 305.467, 229.296 305.191 C 232.708 305.030, 237.953 305.378, 240.952 305.962 L 246.404 307.025 253.202 302.504 C 260.630 297.565, 261.923 295.588, 256.757 297.070 C 252.328 298.340, 252.142 298.232, 254.861 295.967 C 258.660 292.801, 262.433 293.433, 267 298 C 269.200 300.200, 271 302.450, 271 303 C 271 303.550, 271.944 304, 273.099 304 C 280.023 304, 290.632 281.017, 292.545 261.873 C 292.909 258.228, 292.820 255.007, 292.347 254.715 C 291.875 254.423, 290.141 255.317, 288.494 256.701 M 362.489 282.500 C 368.653 301.742, 374 326.626, 374 336.067 L 374 341 369.654 341 C 367.264 341, 359.277 339.876, 351.904 338.502 C 333.390 335.052, 315.607 333.403, 312.445 334.843 C 308.210 336.773, 309.741 337.684, 318.250 338.299 C 322.788 338.626, 337.034 340.943, 349.908 343.447 C 362.782 345.951, 374.525 348, 376.003 348 C 377.481 348, 379.498 347.108, 380.485 346.017 C 382.115 344.216, 382.170 343.353, 381.086 336.633 C 379.596 327.396, 373.886 305.318, 371.094 298 C 369.047 292.634, 361.217 278.530, 362.489 282.500 M 102.570 320.665 C 89.643 338.259, 90.865 340.381, 110.500 334.442 C 119.628 331.681, 124.953 330.684, 132.750 330.275 C 138.387 329.980, 142.993 329.459, 142.985 329.119 C 142.917 326.385, 140.704 325.509, 134.259 325.665 C 127.246 325.834, 120.263 327.329, 106.698 331.564 C 102.407 332.904, 98.695 334, 98.448 334 C 96.811 334, 98.916 329.447, 104.947 319.945 C 108.767 313.925, 111.724 309, 111.516 309 C 111.309 309, 107.283 314.249, 102.570 320.665 M 257.887 311.378 C 255.349 312.062, 251.881 313.719, 250.180 315.061 C 246.893 317.652, 243 324.394, 243 327.495 C 243 328.520, 244.238 326.916, 245.750 323.930 C 248.728 318.053, 253.145 314.439, 258.604 313.414 C 264.149 312.374, 265.358 313.355, 264.580 318.267 C 263.356 325.997, 261.055 329.136, 252.500 334.747 C 243.855 340.417, 243.798 341.391, 252.331 337.617 C 261.808 333.426, 266.653 324.501, 266.101 312.250 C 265.985 309.670, 264.723 309.536, 257.887 311.378 M 197.853 313.422 C 195.318 318.988, 200.745 333.895, 206.503 337.182 C 211.453 340.007, 217.245 342.205, 216.480 340.968 C 216.095 340.344, 213.371 338.294, 210.428 336.411 C 203.529 331.998, 199.822 325.919, 199.635 318.716 C 199.500 313.515, 199.509 313.499, 202.798 313.183 C 207.965 312.687, 214.693 317.100, 215.892 321.773 C 216.418 323.823, 217.089 326.400, 217.384 327.500 C 217.679 328.600, 217.778 327.123, 217.604 324.217 C 217.371 320.328, 216.656 318.250, 214.894 316.338 C 211.873 313.062, 207.089 311, 202.511 311 C 199.721 311, 198.720 311.521, 197.853 313.422 M 132 343.662 C 104.125 358.729, 88.417 367.738, 85.210 370.496 C 82.853 372.523, 82.741 372.960, 83.877 375.703 C 84.954 378.304, 99 391.132, 99 389.515 C 99 389.184, 96.750 386.209, 94 382.904 C 91.250 379.600, 89 376.235, 89 375.428 C 89 373.485, 98.747 367.271, 119.500 355.984 C 137.330 346.287, 148.968 339.194, 152.750 335.719 C 154.993 333.657, 155.673 331.982, 154.250 332.020 C 153.838 332.031, 143.825 337.270, 132 343.662 M 297.547 340.100 C 302.652 345.396, 316.206 356.861, 327 365.016 C 348.647 381.368, 362.031 392.476, 361.562 393.699 C 360.835 395.593, 362.427 395.291, 364.345 393.171 C 366.834 390.420, 366.461 389.543, 360.750 384.730 C 356.045 380.764, 304.148 341.834, 298.027 337.679 C 293.692 334.735, 293.467 335.869, 297.547 340.100 M 244.185 348.961 C 241.812 350.569, 237.497 352.378, 234.598 352.980 C 228.847 354.173, 225.951 353.525, 220.869 349.907 C 218.445 348.181, 218 348.110, 218 349.447 C 218 351.244, 224.814 368.780, 227.690 374.387 L 229.588 378.087 234.184 371.293 C 236.712 367.557, 240.779 361.350, 243.222 357.500 C 251.342 344.704, 251.414 344.061, 244.185 348.961 M 422.062 361 C 421.978 363.171, 421.383 366.192, 418.519 379 C 418.211 380.375, 418.641 379.752, 419.474 377.616 C 421.348 372.809, 423.373 361.528, 422.675 359.788 C 422.391 359.080, 422.115 359.625, 422.062 361" stroke="none" fill="black" fill-rule="evenodd"/>
</svg>