<svg xmlns="http://www.w3.org/2000/svg" width="512" height="512" viewBox="0 0 512 512" version="1.1">
	<path d="M 226.821 7.497 C 206.480 10.920, 187.477 20.727, 175.993 33.728 C 165.862 45.197, 157.731 64.416, 155.814 81.423 C 154.950 89.091, 155.112 92.756, 156.859 105.032 C 157.996 113.025, 158.740 120.450, 158.511 121.532 C 158.282 122.614, 157.374 126.554, 156.492 130.286 C 154.318 139.487, 155.183 144.442, 161.090 156.628 C 164.963 164.618, 166 167.811, 166 171.753 C 166 183.271, 160.727 190.751, 146.441 199.500 C 129.844 209.664, 121.405 218.993, 119.468 229.318 C 119.025 231.678, 119.410 235.733, 120.525 240.470 C 122.949 250.762, 122.191 252.249, 109.553 262.006 C 103.984 266.305, 95.522 273.449, 90.750 277.881 C 85.978 282.313, 78.166 288.513, 73.390 291.658 C 66.798 295.999, 63.170 299.318, 58.323 305.438 C 50.108 315.812, 40.436 335.160, 33.796 354.500 C 28.748 369.201, 28.644 369.740, 28.573 381.531 L 28.500 393.561 22.936 403.531 C 15.815 416.288, 14 420.968, 14 426.570 C 14 431.615, 15.614 435.383, 19.217 438.748 C 22.743 442.040, 24.673 440.063, 26.992 430.782 C 29.032 422.619, 31.219 417.729, 36.605 409.283 C 44.185 397.400, 44.997 394.942, 45.035 383.783 C 45.054 378.127, 45.672 370.125, 46.409 366 C 50.300 344.207, 64.720 314.111, 76.653 302.878 C 78.769 300.886, 82.975 297.694, 86 295.784 C 89.025 293.874, 96.225 288.147, 102 283.056 C 112.326 273.954, 158.784 238.368, 159.364 239.117 C 159.527 239.328, 160.206 242.027, 160.872 245.115 C 162.365 252.039, 167.143 262.130, 175.479 275.965 C 183.500 289.278, 185.976 295.557, 186.268 303.333 L 186.500 309.500 179.258 313 C 163.018 320.849, 158.356 330.620, 161.024 351.216 C 163.345 369.122, 168.660 381.551, 177.622 390.027 C 184.198 396.246, 192.577 400.252, 200.180 400.812 C 205.593 401.211, 219.853 398.528, 227.500 395.672 C 231.394 394.217, 238.751 386.842, 239.572 383.567 C 239.925 382.163, 240.659 381.289, 241.203 381.625 C 241.832 382.014, 241.938 387.015, 241.494 395.368 C 240.938 405.831, 241.148 410.406, 242.526 417.878 C 245.567 434.372, 243.225 443.372, 233.787 451.450 C 220.781 462.583, 203.282 464.736, 191.280 456.681 C 187.207 453.947, 186.437 452.887, 185.804 449.143 C 184.857 443.538, 183.506 442, 179.533 442 C 175.505 442, 173 444.638, 173 448.878 C 173 453.285, 175.035 456.855, 180.324 461.731 C 185.784 466.764, 190.813 469.396, 197.799 470.877 C 221.910 475.987, 247.396 461.190, 253.533 438.516 C 255.128 432.623, 255.192 430.970, 254.091 424.178 C 251.442 407.844, 251.136 403.416, 252.113 395.598 C 253.330 385.862, 252.673 382.524, 245.982 364.452 C 243.193 356.919, 241.096 350.571, 241.321 350.345 C 241.547 350.120, 245.729 353.233, 250.615 357.263 C 255.502 361.293, 264.225 368.369, 270 372.989 C 275.775 377.608, 284.267 384.545, 288.871 388.405 L 297.243 395.423 296.572 404.558 C 296.037 411.846, 296.316 415.679, 297.951 423.506 C 299.078 428.903, 300.034 435.834, 300.075 438.909 C 300.117 441.984, 300.679 448.325, 301.326 453 L 302.500 461.500 307.228 461.439 C 309.829 461.405, 312.130 461.180, 312.343 460.939 C 312.556 460.697, 312.091 456.450, 311.309 451.500 C 307.837 429.515, 310.593 418.385, 331.743 369 C 351.881 321.979, 353.400 317.286, 350.630 310.657 C 349.804 308.679, 347.524 305.457, 345.564 303.497 C 343.196 301.130, 342 299.005, 342 297.167 C 342 294.599, 343.534 292, 345.049 292 C 346.435 292, 355.182 312.360, 357.277 320.463 C 359.068 327.394, 359.253 329.337, 358.253 330.754 C 351.584 340.206, 350.583 349.222, 355.309 357.272 C 360.085 365.408, 368.999 369.885, 376.436 367.883 C 382.231 366.322, 385.644 363.550, 389.022 357.660 C 392.288 351.965, 392.763 347.377, 390.534 343.065 C 388.381 338.902, 380.292 332.168, 375.844 330.835 C 373.717 330.198, 371.541 329.152, 371.010 328.512 C 370.478 327.871, 368.193 321.981, 365.933 315.423 C 363.672 308.866, 359.638 299.337, 356.968 294.248 L 352.114 284.996 354.207 280.265 C 356.020 276.166, 356.161 274.865, 355.259 270.517 C 354.686 267.758, 354.306 265.400, 354.414 265.278 C 355.083 264.522, 381.623 278.635, 385.920 282.031 C 394.842 289.083, 405.251 307.943, 408.107 322.231 C 408.737 325.383, 409.646 327.719, 410.126 327.422 C 411.665 326.471, 411.062 315.681, 409.069 308.493 C 408.007 304.663, 407.282 301.385, 407.458 301.209 C 408.046 300.621, 417.977 318.320, 426.603 335.327 C 432.241 346.444, 435.617 354.419, 436.551 358.827 C 438.257 366.875, 438.405 380.012, 436.888 388.723 C 436.276 392.235, 436.092 395.422, 436.477 395.805 C 437.474 396.792, 441.676 391.272, 443.747 386.254 C 444.711 383.918, 445.766 382.006, 446.091 382.004 C 446.416 382.002, 449.856 385.620, 453.735 390.043 C 458.819 395.841, 461.418 399.820, 463.043 404.293 C 466.661 414.250, 469.804 419.245, 474.969 423.246 C 478.498 425.980, 480.423 428.481, 482.087 432.496 C 483.825 436.689, 484.867 438, 486.462 438 C 491.986 438, 496.013 431.315, 494.174 425.198 C 493.055 421.477, 490.654 418.534, 483.324 411.902 C 480.357 409.217, 478.256 405.716, 475.049 398.115 C 471.191 388.974, 469.903 387.059, 462.499 379.470 C 453.333 370.075, 452.818 369.108, 450.519 357 C 448.425 345.969, 444.598 338.101, 431.644 318.196 C 410.169 285.196, 399.790 274.829, 381.490 268.096 C 377.095 266.479, 369.675 263.355, 365 261.154 C 360.325 258.953, 355.267 256.845, 353.760 256.470 C 352.253 256.095, 349.328 254.206, 347.260 252.272 C 344.044 249.265, 339.044 246.500, 329.398 242.395 C 328.242 241.903, 323.100 237.085, 317.971 231.688 L 308.646 221.877 312.253 215.188 C 314.237 211.510, 316.649 205.659, 317.612 202.188 C 319.155 196.624, 319.767 195.706, 322.771 194.451 C 324.646 193.668, 326.417 192.121, 326.707 191.013 C 326.996 189.906, 327.876 189, 328.662 189 C 329.448 189, 331.308 187.772, 332.795 186.272 L 335.500 183.544 332.606 183.022 C 331.014 182.735, 328.845 181.338, 327.786 179.919 C 325.881 177.364, 325.884 177.240, 328.058 167.982 C 329.699 160.991, 330.102 156.997, 329.653 152.182 C 329.136 146.651, 329.347 145.321, 331.145 142.796 C 334.032 138.742, 336 131.693, 336 125.408 C 336 119.763, 335.890 119.876, 342.750 118.495 C 345.927 117.856, 346 117.721, 346 112.528 C 346 107.121, 345.181 106, 341.234 106 C 338.497 106, 331.021 101.908, 329.888 99.790 C 329.111 98.338, 329.149 94.523, 330.026 86.137 C 331.083 76.039, 331.033 73.678, 329.651 68.283 C 326.392 55.562, 317.422 41.696, 309.794 37.588 C 307.592 36.403, 305.413 33.897, 303.643 30.516 C 300.336 24.200, 297.370 21.257, 289.625 16.607 C 274.544 7.552, 248.738 3.809, 226.821 7.497 M 296.500 49.055 C 287.685 54.931, 271.577 62.624, 263 65.056 C 257.491 66.618, 251.470 67.325, 240.320 67.723 C 226.091 68.230, 224.439 68.090, 213.965 65.491 C 199.514 61.906, 199.491 61.935, 202.638 79.553 C 203.538 84.595, 203.986 90.260, 203.633 92.142 C 203.280 94.024, 200.968 99.114, 198.496 103.453 C 196.023 107.791, 194 111.678, 194 112.089 C 194 112.500, 197.184 112.985, 201.076 113.168 L 208.153 113.500 210.601 109 C 215.219 100.510, 224.568 96.435, 237 97.491 C 250.708 98.656, 253.844 99.740, 259.808 105.374 L 265.234 110.500 273.106 110.229 C 283.079 109.886, 285.345 108.990, 290.948 103.172 C 296.575 97.330, 304.306 94.617, 313.805 95.151 C 320.226 95.512, 320.715 95.204, 318.949 91.905 C 318.371 90.824, 317.281 84.375, 316.527 77.572 C 315.743 70.493, 314.436 63.811, 313.473 61.947 C 311.583 58.293, 303.154 44.985, 302.757 45.028 C 302.615 45.044, 299.800 46.856, 296.500 49.055 M 307.500 106.886 C 302.589 108.141, 296.002 112.161, 295.999 113.905 C 295.998 114.232, 300.152 114.500, 305.229 114.500 C 313.224 114.500, 314.507 114.734, 314.804 116.250 C 315.085 117.685, 314.418 118, 311.098 118 C 307.091 118, 307.056 118.032, 307.680 121.150 C 308.160 123.549, 307.870 124.622, 306.464 125.650 C 303.993 127.457, 299.587 127.355, 295.814 125.404 L 292.727 123.807 293.213 128.862 C 293.772 134.687, 297.295 140.047, 302.302 142.692 C 306.806 145.072, 316.170 145.056, 318.816 142.664 C 321.041 140.653, 321.031 140.248, 318.366 125.131 L 316.891 116.763 319.439 112.913 C 321.871 109.237, 321.902 109.018, 320.119 108.063 C 317.391 106.604, 310.954 106.003, 307.500 106.886 M 232.220 110.052 C 226.298 111.234, 220.087 114.931, 218.337 118.315 C 217.039 120.826, 217.047 121.423, 218.412 123.505 L 219.953 125.859 208.977 125.279 L 198 124.700 198 130.772 C 198 137.567, 203.032 168.846, 206.041 180.754 C 211.370 201.842, 223.824 215.358, 239.215 216.753 C 243.591 217.150, 246.721 218.135, 249.793 220.084 C 258.186 225.407, 266.332 224.832, 273.863 218.386 L 278.119 214.742 281.178 217.871 C 284.509 221.278, 289.225 221.999, 294.685 219.936 C 300.241 217.837, 306.589 209.405, 309.035 200.876 C 309.769 198.320, 309.638 198.220, 305.004 197.774 C 302.371 197.521, 298.376 196.356, 296.129 195.184 C 292.139 193.105, 292.017 193.099, 291.023 194.957 C 288.416 199.829, 278.304 203.842, 271.741 202.611 C 269.716 202.231, 266.688 200.767, 265.014 199.358 C 262.027 196.845, 261.891 196.827, 257.964 198.398 C 251.429 201.013, 240 200.137, 240 197.021 C 240 195.790, 239.130 195.280, 236.923 195.217 C 230.135 195.024, 225.998 188.850, 231.869 187.676 C 233.820 187.286, 235.886 185.506, 238.320 182.118 C 242.776 175.915, 246.548 173.087, 253.820 170.497 L 259.500 168.474 259.500 162.987 L 259.500 157.500 263.391 157.500 C 268.265 157.500, 270.610 160.293, 267.608 162.523 C 266.568 163.295, 265.218 164.111, 264.608 164.335 C 263.798 164.633, 263.797 165.248, 264.607 166.621 C 265.291 167.784, 268.532 169.286, 273.107 170.562 C 279.793 172.427, 280.905 172.491, 284.736 171.223 C 290.063 169.461, 294 164.946, 294 160.601 C 294 158.816, 292.688 154.913, 291.084 151.928 C 288.477 147.074, 286.820 142.182, 283.079 128.295 C 281.594 122.780, 279.658 120.997, 275.179 121.015 C 269.252 121.040, 268.661 121.900, 268.543 130.668 C 268.423 139.634, 266.408 144.526, 260.333 150.601 C 254.744 156.189, 248.874 158.455, 239.922 158.479 C 233.215 158.498, 231.777 158.151, 227.422 155.471 C 221.153 151.613, 216 144.186, 216 139.009 C 216 134.684, 217.110 133.493, 222 132.572 C 224.760 132.052, 225.130 132.144, 223.750 133.006 C 222.611 133.718, 222 135.354, 222 137.693 C 222 142.610, 229.651 150.469, 235.508 151.567 C 249.069 154.112, 262.027 143.242, 260.705 130.433 C 259.185 115.707, 247.124 107.078, 232.220 110.052 M 325.328 113.588 C 324.613 115.452, 325.678 130.998, 326.703 133.667 C 327.323 135.279, 327.492 135.199, 328.104 133 C 329.010 129.748, 329.146 120.516, 328.358 115.750 C 327.711 111.833, 326.369 110.876, 325.328 113.588 M 228.881 119.103 C 223.500 121.478, 220.972 125.056, 222.972 127.466 C 224.804 129.674, 225.598 129.385, 227 126 C 228.670 121.969, 229.691 122.209, 229.188 126.514 C 228.963 128.446, 229.333 130.696, 230.011 131.514 C 232.549 134.571, 242.875 132.375, 244.378 128.458 C 244.719 127.568, 244.725 125.752, 244.391 124.421 C 243.833 122.198, 244.075 122, 247.360 122 C 249.971 122, 250.796 121.631, 250.414 120.635 C 248.876 116.627, 236.490 115.746, 228.881 119.103 M 172.007 125.899 C 172.011 126.230, 173.584 127.569, 175.504 128.877 C 181.431 132.913, 183.337 137.160, 184.067 147.960 C 184.422 153.207, 185.050 158.287, 185.463 159.250 C 186.613 161.929, 182.815 161.496, 180.135 158.643 C 177.252 155.575, 176.426 150.122, 177.995 144.518 C 179.088 140.615, 179.033 139.699, 177.571 137.468 C 175.797 134.761, 170.375 131.010, 168.225 131.004 C 165.838 130.997, 164.798 136.069, 165.902 142.337 C 167.243 149.947, 176.517 170.475, 179.771 173.034 C 181.145 174.115, 183.495 175, 184.993 175 L 187.715 175 188.394 186.250 C 189.330 201.763, 190.791 213.545, 192.538 219.676 C 194.547 226.727, 201.989 237.441, 213.600 250 C 221.946 259.027, 230.494 268.550, 247.149 287.376 C 249.156 289.644, 250.984 291.275, 251.213 291 C 251.441 290.725, 253.344 286.225, 255.441 281 C 261.100 266.902, 261.014 267.001, 267.773 266.996 C 271.731 266.994, 274.511 266.376, 276.774 264.996 C 278.575 263.898, 280.472 263, 280.989 263 C 282.977 263, 289.398 269.681, 294.081 276.620 C 296.769 280.603, 299.425 284.145, 299.984 284.490 C 301.119 285.191, 301.191 266.075, 300.136 244.500 L 299.500 231.500 297.147 236 C 293.426 243.114, 286.394 252.507, 281.925 256.332 C 277.389 260.215, 269.830 262.561, 265.159 261.535 C 263.548 261.181, 254.191 255.748, 244.365 249.461 C 203.706 223.445, 197.235 212.756, 189.970 159.614 C 186.779 136.274, 185.823 131.507, 183.768 128.698 C 182.572 127.062, 171.991 124.544, 172.007 125.899 M 295 146.844 C 295 147.326, 296.125 149.379, 297.500 151.405 C 300.153 155.315, 300.698 159.826, 298.919 163.151 C 298.324 164.262, 298.017 165.350, 298.236 165.569 C 298.455 165.788, 303.022 167.272, 308.386 168.866 L 318.139 171.766 319.169 169.133 C 319.736 167.685, 320.445 162.763, 320.745 158.195 L 321.289 149.889 318.394 150.681 C 312.692 152.239, 305.715 151.462, 300.250 148.659 C 297.363 147.178, 295 146.361, 295 146.844 M 179.973 208.069 C 171.903 219.024, 169.995 223.686, 170.012 232.399 C 170.034 243.920, 174.432 255.068, 185.949 272.799 C 192.795 283.338, 194.209 284.251, 207.216 286.538 C 222.130 289.160, 225.246 292.700, 226.069 307.952 C 226.558 317.014, 227.122 319.623, 230.069 326.469 L 233.500 334.438 258 353.287 C 271.475 363.654, 285.875 375.110, 290 378.745 C 297.224 385.111, 297.511 385.259, 297.807 382.779 C 298.696 375.314, 277.641 340.052, 251.961 306 C 240.099 290.270, 238.307 288.207, 219.051 268.110 C 189.100 236.851, 184.070 229.228, 183.071 213.583 L 182.500 204.638 179.973 208.069 M 308.019 239.191 C 308.030 241.561, 308.488 251.375, 309.038 261 C 310.509 286.754, 310.294 335.811, 308.630 354 C 307.850 362.525, 306.185 379.175, 304.928 391 C 303.567 403.806, 302.957 413.713, 303.418 415.500 C 304.132 418.265, 304.377 417.866, 306.549 410.390 C 309.634 399.767, 314.939 386.557, 327.028 359.388 C 343.950 321.356, 344.975 318.270, 342.584 312.546 C 341.797 310.662, 339.296 307.107, 337.027 304.645 C 330.578 297.649, 330.647 294.699, 337.474 285.438 C 338.889 283.519, 338.546 282.474, 332.563 270.438 C 326.966 259.179, 312.409 237.607, 308.976 235.485 C 308.398 235.128, 308.008 236.639, 308.019 239.191 M 340.215 263.833 C 344.947 273.022, 346 274.298, 346 270.839 C 346 268.190, 339.515 257.412, 337.442 256.616 C 336.796 256.368, 338.044 259.616, 340.215 263.833 M 292.200 290.461 C 289.384 296.642, 292.353 305.568, 300.566 315.611 L 302.928 318.500 302.953 309.500 C 302.989 296.384, 302.272 293, 299.453 293 C 298.146 293, 296.359 291.892, 295.283 290.414 L 293.399 287.828 292.200 290.461 M 195.287 296.775 C 195.599 299.409, 196.447 303.464, 197.172 305.785 C 198.256 309.260, 199.109 310.207, 201.994 311.141 C 203.923 311.764, 208.075 313.563, 211.221 315.137 C 214.368 316.712, 217.068 318.001, 217.221 318.002 C 217.992 318.008, 216.351 301.249, 215.429 299.694 C 214.274 297.747, 207.928 295.115, 204.218 295.044 C 202.963 295.020, 200.312 294.322, 198.328 293.492 L 194.720 291.985 195.287 296.775 M 258.096 295.561 C 255.644 299.717, 255.836 300.275, 262.856 309.437 L 267.405 315.374 268.566 312.437 C 271.439 305.167, 271.315 304.483, 265.968 298.057 C 263.196 294.726, 260.763 292, 260.562 292 C 260.362 292, 259.252 293.603, 258.096 295.561 M 381.614 316.816 C 381.336 317.265, 383.766 322.046, 387.014 327.441 C 395.420 341.402, 397.520 348.072, 397.419 360.500 C 397.361 367.621, 396.765 372.230, 395.349 376.508 C 393.915 380.841, 393.597 383.350, 394.208 385.508 C 394.675 387.154, 395.341 404.209, 395.688 423.410 C 396.235 453.638, 396.536 458.536, 397.933 459.933 C 399.287 461.287, 401.938 461.522, 414.463 461.398 C 428.713 461.256, 429.462 461.147, 431.233 458.960 C 433.618 456.015, 432.918 452.449, 428.394 444.500 C 422.219 433.648, 418.979 426.402, 417.810 420.828 C 416.754 415.796, 416.966 413.947, 420.329 398.802 C 424.161 381.544, 424.723 375.372, 422.930 370.229 C 420.896 364.394, 418.181 364.983, 410.792 372.864 C 405.903 378.078, 402 380.839, 402 379.084 C 402 378.541, 402.675 375.506, 403.500 372.339 C 407.916 355.385, 402.661 335.309, 390.318 321.977 C 385.086 316.326, 382.767 314.951, 381.614 316.816 M 182.491 321.802 C 177.257 324.262, 172.274 330.025, 171.413 334.614 C 170.266 340.726, 171.668 357.981, 173.882 365.012 C 176.900 374.592, 183.423 383.792, 190.006 387.750 C 194.541 390.477, 196.400 391, 201.549 391 C 205.083 391, 210.154 390.151, 213.500 389 C 216.697 387.900, 220.996 387, 223.053 387 C 230.443 387, 236.326 376.308, 234.147 366.834 C 233.557 364.267, 230.600 356.205, 227.577 348.917 C 221.173 333.479, 218.033 329.622, 207.500 324.258 C 198.661 319.756, 188.888 318.796, 182.491 321.802 M 369.913 340.282 C 367.769 341.928, 366 345.410, 366 347.984 C 366 353.222, 371.685 359, 376.840 359 C 377.906 359, 379.841 358.073, 381.139 356.941 L 383.500 354.881 380.808 356.518 C 379.327 357.418, 377.077 358.007, 375.808 357.827 C 373.944 357.563, 373.556 356.967, 373.790 354.734 C 374.117 351.619, 371.825 350.070, 369.609 351.909 C 368.537 352.800, 368.114 352.556, 367.636 350.771 C 366.523 346.618, 366.974 344.872, 369.923 341.923 C 372.866 338.980, 372.860 338.019, 369.913 340.282 M 370.582 345.114 C 366.943 347.977, 368.108 348.771, 371.942 346.041 C 373.624 344.844, 375 344.344, 375 344.932 C 375 345.519, 375.810 346, 376.800 346 C 377.790 346, 379.043 346.337, 379.584 346.750 C 380.126 347.163, 379.516 346.488, 378.229 345.250 C 375.324 342.457, 373.990 342.433, 370.582 345.114 M 378.638 350.500 C 379.003 351.450, 378.625 352, 377.607 352 C 376.723 352, 376 352.450, 376 353 C 376 354.501, 378.587 354.203, 379.964 352.544 C 381.195 351.060, 380.619 349, 378.972 349 C 378.472 349, 378.322 349.675, 378.638 350.500 M 369 353.893 C 369 354.384, 369.675 355.045, 370.500 355.362 C 371.414 355.712, 372 355.363, 372 354.469 C 372 353.661, 371.325 353, 370.500 353 C 369.675 353, 369 353.402, 369 353.893 M 142 356.373 C 142 357.679, 142.893 362.291, 143.985 366.623 C 146.032 374.748, 146.640 384.486, 145.157 385.403 C 144.694 385.689, 142.894 382.183, 141.158 377.612 C 136.831 366.221, 130 357.059, 130 362.647 C 130 363.552, 131.324 368.426, 132.942 373.476 C 140.596 397.372, 142.988 411.789, 143.867 439.339 C 144.482 458.618, 144.567 459.232, 146.861 461.089 C 150.082 463.696, 156.920 463.637, 160.308 460.972 C 163.791 458.233, 164.705 451.950, 162.655 444.847 C 160.758 438.274, 157.690 420.401, 155.008 400.300 C 152.925 384.688, 148.077 361.458, 145.909 356.700 C 144.388 353.362, 142 353.162, 142 356.373 M 318.073 423.635 C 315.368 427.073, 315.450 430.249, 318.329 433.596 C 320.168 435.735, 321.204 436.166, 323.262 435.649 C 324.695 435.290, 326.154 434.090, 326.505 432.983 C 326.857 431.876, 327.471 431.173, 327.870 431.419 C 328.269 431.666, 329.208 431.489, 329.957 431.026 C 331.828 429.870, 329.666 424.666, 326.434 422.549 C 323.008 420.304, 320.429 420.639, 318.073 423.635" stroke="none" fill="black" fill-rule="evenodd"/>
</svg>