<?xml version="1.0" encoding="UTF-8"?>
<svg version="1.1" xmlns="http://www.w3.org/2000/svg" width="512" height="512">
<path d="M0 0 C2.86952364 1.21754978 5.74000539 2.43281686 8.61065674 3.64770508 C10.38135974 4.39805694 12.15124268 5.15034844 13.92010498 5.9050293 C15.54659786 6.59789975 17.17536419 7.28546115 18.80651855 7.96728516 C20.50604509 8.68557433 22.19606503 9.42660594 23.87805176 10.18505859 C29.94539218 12.82803207 33.19643354 13.51939509 39.52813721 11.14608765 C42.34599991 10.03557772 45.12935902 8.859133 47.9140625 7.66796875 C48.94252289 7.23494949 49.97098328 6.80193024 51.03060913 6.35578918 C54.31468267 4.97244616 57.59511446 3.58074064 60.875 2.1875 C64.13373286 0.8056445 67.39326373 -0.57418855 70.65512085 -1.94865417 C72.68062878 -2.8023545 74.70438293 -3.66023327 76.72598267 -4.52314758 C97.13496669 -13.13356665 118.90499844 -17.40863698 140.25 -9 C158.37331008 -0.99588365 171.32663214 12.00989533 179.16867065 30.1633606 C183.1832018 40.69463608 185.47657957 51.9506868 188.12846756 62.89176941 C189.07495223 66.77861685 190.04349472 70.65996497 191.00952148 74.54199219 C192.82795917 81.8635472 194.62715868 89.18967896 196.41855145 96.51789284 C198.45232294 104.83489872 200.50458388 113.1473044 202.5584774 121.45936012 C205.05715849 131.57149459 207.55356335 141.68415206 210.03100586 151.80151367 C210.37905248 153.22175754 210.7271053 154.64199989 211.07516479 156.0622406 C211.71964161 158.69224668 212.36247675 161.32263603 213.00442505 163.95326233 C213.28728363 165.10789474 213.57014221 166.26252716 213.86157227 167.45214844 C214.10706314 168.45711365 214.35255402 169.46207886 214.60548401 170.49749756 C215.08293646 172.35133197 215.64463541 174.18390623 216.25 176 C218.34283035 177.19016175 218.34283035 177.19016175 220.96484375 178.12890625 C221.95242676 178.51876709 222.94000977 178.90862793 223.95751953 179.31030273 C225.02341309 179.72352783 226.08930664 180.13675293 227.1875 180.5625 C251.74227872 190.46925894 276.37386017 203.47991475 287.25 229 C290.4064012 238.4692036 289.12951482 250.57103724 284.796875 259.39453125 C265.35853835 292.13536596 221.84183225 305.61157286 187.22241211 314.7421875 C163.75814492 320.7076512 140.13826529 324.84710372 116.125 327.75 C115.30271912 327.85105042 114.48043823 327.95210083 113.63323975 328.05621338 C87.49103657 331.22788014 61.30002296 332.38754826 34.98413467 332.31785583 C32.83303909 332.31239345 30.68195458 332.31004146 28.53085327 332.3079834 C5.33392126 332.2734666 -17.6765 331.52827802 -40.75 329 C-41.43231689 328.92738953 -42.11463379 328.85477905 -42.81762695 328.77996826 C-98.54983149 322.84758176 -176.23980082 313.38702046 -214.75 268 C-220.6661323 259.67070848 -224.33900603 251.53019612 -224.25 241.25 C-224.24355469 240.46431641 -224.23710937 239.67863281 -224.23046875 238.86914062 C-223.78436126 224.53500249 -215.79103813 214.71999113 -205.875 205.0625 C-196.13367635 196.49174977 -184.6170981 190.16345002 -172.9375 184.625 C-172.23898926 184.29145508 -171.54047852 183.95791016 -170.82080078 183.61425781 C-167.52703142 182.09334101 -164.50640446 180.93752669 -160.97265625 180.03125 C-157.28530912 179.06897268 -154.86178397 178.21047732 -151.75 176 C-150.60007816 173.24844388 -149.86371152 170.95188174 -149.21582031 168.08398438 C-148.91600187 166.88995625 -148.91600187 166.88995625 -148.6101265 165.67180634 C-148.18642988 163.97695284 -147.77260637 162.27960516 -147.36793518 160.58010864 C-146.76934072 158.08075468 -146.1388619 155.59215853 -145.49450684 153.10424805 C-144.39005172 148.835143 -143.30934939 144.56050488 -142.23693085 140.2832489 C-141.52206742 137.43231537 -140.80433921 134.58211492 -140.08599854 131.73205566 C-138.55490743 125.65531264 -137.02721408 119.57771838 -135.5 113.5 C-123.98833501 67.69045617 -123.98833501 67.69045617 -119.33846283 49.87275696 C-118.96640995 48.4437079 -118.59675698 47.01403131 -118.22980499 45.58366394 C-114.43466347 30.81398752 -109.35256694 18.25253273 -98.75 7 C-98.09773438 6.30648437 -97.44546875 5.61296875 -96.7734375 4.8984375 C-68.21510683 -22.80421285 -32.40227118 -13.85126845 0 0 Z M-85.52124023 18.44116211 C-94.2715132 27.2957257 -98.01618944 37.07382202 -101.06860352 48.89477539 C-101.36909638 50.03502954 -101.66958925 51.17528368 -101.97918797 52.35009098 C-102.91128699 55.8979072 -103.8320397 59.44850182 -104.75 63 C-105.02842113 64.07144634 -105.30684227 65.14289268 -105.59370041 66.2468071 C-107.5295484 73.69970734 -109.43819192 81.15940555 -111.33984375 88.62109375 C-111.93513874 90.95330485 -112.53048176 93.28550368 -113.12586975 95.61769104 C-114.35639385 100.43971763 -115.58550604 105.26210149 -116.8137207 110.0847168 C-118.38931267 116.2703169 -119.96988204 122.45463403 -121.55159664 128.63867092 C-122.77474588 133.42397969 -123.99466646 138.21010708 -125.21365547 142.99647713 C-125.79582031 145.28019685 -126.37914969 147.56362005 -126.96366692 149.84673882 C-127.77335725 153.01082472 -128.5785433 156.17602325 -129.38256836 159.34155273 C-129.62404099 160.28109802 -129.86551361 161.22064331 -130.11430359 162.18865967 C-130.33136963 163.04710983 -130.54843567 163.90556 -130.77207947 164.7900238 C-130.96209502 165.53516959 -131.15211058 166.28031538 -131.34788418 167.04804134 C-131.8508847 169.15755861 -131.8508847 169.15755861 -131.75 172 C-81.49103079 198.0725337 -24.06104078 205.25902385 31.9375 205.1875 C33.26619614 205.18659363 33.26619614 205.18659363 34.62173462 205.18566895 C90.7326546 205.08276724 146.67712434 197.45645104 197.25 172 C193.10960397 155.06308798 188.94836841 138.13143576 184.7610321 121.20606995 C184.37224843 119.63445403 183.98347998 118.06283434 183.59472656 116.49121094 C183.40134358 115.70943198 183.20796061 114.92765303 183.00871754 114.1221838 C181.64518907 108.60671547 180.2893588 103.0893888 178.93652344 97.57128906 C177.24729309 90.68224575 175.54529793 83.79648673 173.82898235 76.91413975 C172.92148223 73.27366244 172.01957425 69.6320227 171.13186646 65.98666382 C170.29288618 62.54235742 169.43784079 59.102414 168.57123184 55.66495895 C168.1118544 53.82637532 167.66865722 51.98377151 167.22628784 50.14102173 C163.09098583 33.91698186 155.33885123 19.91059546 141.04296875 10.53515625 C126.45673295 2.51782664 112.06699693 1.48809409 96.25 6 C88.00219714 8.866314 80.01237715 12.41750371 72 15.875 C69.86260525 16.78402561 67.72458721 17.6915871 65.5859375 18.59765625 C54.93168151 23.09825648 54.93168151 23.09825648 44.34179688 27.74707031 C43.30603516 28.20436523 42.27027344 28.66166016 41.203125 29.1328125 C40.38489258 29.5055127 39.56666016 29.87821289 38.72363281 30.26220703 C31.63750747 32.37573553 26.2998927 30.16272528 19.86328125 27.34375 C18.96618942 26.96319458 18.0690976 26.58263916 17.14482117 26.19055176 C14.27887866 24.97208053 11.42059803 23.73674444 8.5625 22.5 C4.83112345 20.90227094 1.09721543 19.31049144 -2.63671875 17.71875 C-3.55792511 17.32557083 -4.47913147 16.93239166 -5.42825317 16.52729797 C-11.80978436 13.80929278 -18.20418207 11.12612008 -24.62890625 8.51171875 C-25.42745529 8.18099365 -26.22600433 7.85026855 -27.04875183 7.50952148 C-47.56687336 -0.75743656 -69.3751091 3.14496373 -85.52124023 18.44116211 Z M-136.75 189 C-137.92460695 193.41459421 -139.08831024 197.83199067 -140.25 202.25 C-140.58386719 203.50425781 -140.91773438 204.75851562 -141.26171875 206.05078125 C-141.57753906 207.25605469 -141.89335937 208.46132813 -142.21875 209.703125 C-142.65864258 211.36843262 -142.65864258 211.36843262 -143.10742188 213.06738281 C-143.89269093 216.15085197 -143.89269093 216.15085197 -143.75 220 C-101.92331646 244.31914844 -55.8662132 255.44164805 -7.75 259 C-6.57236084 259.08757568 -5.39472168 259.17515137 -4.18139648 259.26538086 C7.89651311 260.09956527 19.95945785 260.20060405 32.0625 260.1875 C33.09735535 260.18689575 34.13221069 260.1862915 35.19842529 260.18566895 C93.57690744 260.0933923 158.47003247 253.18664502 208.25 220 C207.59664916 213.11914052 205.98500725 206.66453965 204.1875 200 C203.90583984 198.93910156 203.62417969 197.87820313 203.33398438 196.78515625 C202.64396867 194.18882599 201.94920797 191.59386689 201.25 189 C197.12873892 190.27056093 193.29049548 191.84896823 189.39208984 193.66455078 C141.19315668 216.02928278 86.0480245 221.24771929 33.5 221.1875 C32.02632965 221.18659363 32.02632965 221.18659363 30.52288818 221.18566895 C-23.98188884 221.09520825 -83.10942037 215.57394312 -132.3359375 190.203125 C-134.59879203 188.85131512 -134.59879203 188.85131512 -136.75 189 Z M-157.75 197 C-186.08393009 209.54247718 -186.08393009 209.54247718 -205.93359375 232.55078125 C-207.80975895 238.17927686 -207.8716603 243.93444537 -205.828125 249.51953125 C-204.61651701 251.82866727 -203.28425146 253.89296133 -201.75 256 C-201.33878906 256.59167969 -200.92757812 257.18335938 -200.50390625 257.79296875 C-171.28945553 295.67639595 -101.37486277 304.12309091 -57 310.25 C-51.92224136 310.89056532 -46.83912815 311.45782901 -41.75 312 C-41.08117798 312.07412109 -40.41235596 312.14824219 -39.7232666 312.22460938 C8.1028076 317.51444163 58.44614689 317.49017845 106.25 312 C107.00083862 311.91514343 107.75167725 311.83028687 108.52526855 311.74285889 C157.06074761 306.20941857 219.3947416 298.27459928 257.25 265 C258.301875 264.21625 259.35375 263.4325 260.4375 262.625 C265.41840324 257.97615697 270.60521593 251.2282955 271.65625 244.3359375 C271.99683695 233.57906635 267.92648138 227.62320366 260.75 219.9375 C249.64767063 209.3795642 236.07572727 203.20760517 222.25 197 C220.93611727 201.26032469 221.98986381 204.45638904 223.1875 208.625 C226.66155952 221.83090882 226.66155952 221.83090882 225.25 227 C223.39605663 229.74850345 221.03130737 231.25017086 218.25 233 C217.32703125 233.61359375 216.4040625 234.2271875 215.453125 234.859375 C176.61344387 259.78633453 130.53499737 269.27850933 85.25 274 C83.54432861 274.17789063 83.54432861 274.17789063 81.80419922 274.359375 C20.28185204 280.40455957 -44.84329201 276.08740654 -103.75 257 C-104.46833008 256.76877441 -105.18666016 256.53754883 -105.92675781 256.29931641 C-123.47112244 250.51872846 -148.90773121 241.93317542 -160.75 227 C-161.79022108 223.29159209 -161.70651476 220.75875191 -160.71875 217.05859375 C-160.48542969 216.14529297 -160.25210938 215.23199219 -160.01171875 214.29101562 C-159.76035156 213.34935547 -159.50898438 212.40769531 -159.25 211.4375 C-158.75179153 209.56346967 -158.26185835 207.68721478 -157.78125 205.80859375 C-157.56017578 204.98157959 -157.33910156 204.15456543 -157.11132812 203.30249023 C-156.72782966 200.85872399 -156.97687387 199.32773831 -157.75 197 Z " fill="#000000" transform="translate(223.75,97)"/>
</svg>
