<svg xmlns="http://www.w3.org/2000/svg" width="512" height="512" viewBox="0 0 512 512" version="1.1">
	<path d="M 233 32.081 C 208.939 34.979, 182.683 45.861, 172.468 57.168 C 166.138 64.174, 164.032 70.242, 162.552 85.736 C 161.560 96.115, 160.587 101.094, 158.593 105.984 C 154.594 115.794, 148.468 125.482, 141.380 133.205 C 137.871 137.029, 135 140.514, 135 140.950 C 135 141.385, 132.272 142.050, 128.939 142.427 C 107.032 144.906, 84.177 156.798, 78.871 168.479 C 76.435 173.841, 76.520 180.138, 79.096 185.188 C 83.723 194.258, 97.668 204.149, 113.500 209.590 C 117.900 211.102, 121.644 212.445, 121.820 212.573 C 121.996 212.701, 121.189 214.669, 120.028 216.945 C 114.667 227.454, 115.273 238.470, 122.115 254.880 C 131.007 276.205, 131.199 290.593, 122.649 294.805 C 120.807 295.712, 120 296.894, 120 298.685 C 120 301.071, 120.259 301.220, 123.500 300.694 C 127.554 300.036, 127.869 300.985, 125.487 306.686 C 124.655 308.677, 124.122 310.455, 124.303 310.636 C 124.484 310.818, 126.072 310.553, 127.831 310.049 C 130.143 309.385, 132.301 309.565, 135.624 310.697 C 140.070 312.212, 140.201 312.372, 139.670 315.643 C 138.292 324.139, 122.016 346.484, 108.661 358.216 C 104.172 362.159, 99.375 366.890, 98 368.729 C 96.137 371.221, 91.680 373.931, 80.500 379.371 C 58.996 389.834, 26 409.851, 26 412.433 C 26 413.183, 32.916 415.806, 43.250 418.975 C 63.655 425.232, 129.410 447.900, 132.255 449.657 C 132.785 449.985, 129.682 451.805, 125.359 453.703 C 117.518 457.145, 115.226 458.560, 116.090 459.423 C 116.543 459.876, 144.912 466.047, 154.500 467.778 C 159.190 468.625, 159.345 468.746, 157 469.731 C 147.125 473.881, 142.930 476.077, 143.406 476.848 C 143.709 477.339, 149.480 478.053, 156.229 478.435 C 176.389 479.577, 209.206 481.955, 213.632 482.594 C 216.060 482.945, 218.027 482.765, 218.403 482.157 C 218.755 481.588, 215.208 473.937, 210.521 465.155 C 205.835 456.373, 202 448.681, 202 448.062 C 202 447.443, 205 450.438, 208.668 454.718 C 217.921 465.518, 224.236 472.005, 225.462 471.970 C 226.033 471.953, 228.854 466.963, 231.731 460.880 C 234.608 454.797, 237.381 449.973, 237.894 450.160 C 238.408 450.347, 242.006 453.533, 245.891 457.239 C 252.555 463.597, 252.913 464.163, 252.227 467.239 C 251.827 469.033, 251.538 472.902, 251.584 475.839 C 251.671 481.299, 252.751 482.954, 256.250 482.985 C 257.734 482.998, 258 482.038, 258 476.667 C 258 469.305, 258.939 467.587, 260.441 472.197 C 261.146 474.359, 262.836 476.206, 265.500 477.724 C 269.638 480.083, 279.036 483.297, 279.740 482.594 C 279.960 482.374, 279.208 480.368, 278.070 478.137 C 275.013 472.145, 275.274 470.685, 279.250 471.541 C 284.311 472.631, 287.663 474.692, 290.567 478.499 C 292.315 480.791, 294.069 482, 295.644 482 C 298.034 482, 298.040 481.977, 296.389 478.750 C 295.474 476.962, 292.088 471.634, 288.863 466.910 C 282.768 457.980, 282.313 456.249, 284.327 449.665 L 285.500 445.830 289 451.165 C 292.629 456.697, 299.093 461.071, 305.692 462.461 L 308.884 463.133 306.865 455.999 C 305.754 452.075, 303.974 446.330, 302.908 443.233 C 301.843 440.136, 300.717 435.104, 300.406 432.051 L 299.842 426.500 301.882 429 C 303.004 430.375, 308.491 440.398, 314.076 451.273 C 330.007 482.295, 331.307 483.970, 338 482.103 C 340.344 481.449, 340.479 481.056, 340.162 475.777 L 339.825 470.149 344.162 469.624 C 346.548 469.336, 353.450 468.583, 359.500 467.951 C 370.685 466.783, 382.671 464.663, 383.657 463.677 C 384.674 462.659, 383.006 461.193, 376.499 457.386 C 372.925 455.295, 370 453.284, 370 452.917 C 370 452.016, 373.087 451.477, 389.500 449.512 C 407.515 447.356, 408 447.249, 408 445.426 C 408 443.192, 400.824 432.979, 395.187 427.192 C 389.659 421.517, 383.612 418.156, 373.500 415.139 C 369.650 413.990, 363.125 410.941, 359 408.363 C 352.464 404.278, 340.618 398.855, 315.987 388.670 C 308.919 385.747, 297.649 377.552, 298.244 375.768 C 298.447 375.160, 300.346 374.062, 302.466 373.328 C 308.186 371.348, 312.221 367.846, 315.297 362.195 C 318.657 356.022, 322 343.377, 322 336.840 C 322 334.178, 322.270 332, 322.600 332 C 322.929 332, 334.067 335.443, 347.350 339.651 C 360.632 343.859, 373.736 347.909, 376.468 348.651 C 384.077 350.717, 390.978 350.374, 396.079 347.677 C 404.613 343.163, 408.838 329.167, 404.040 321.299 C 400.674 315.777, 399.632 315.414, 358.500 305.461 C 345.850 302.400, 334.712 299.663, 333.750 299.380 C 332.244 298.937, 332 297.554, 332 289.459 C 332 281.352, 332.415 279.009, 335 272.500 C 338.348 264.072, 338.716 259.282, 336.500 253 C 333.632 244.872, 335.065 240.226, 343.258 231.079 C 345.889 228.141, 346.372 228, 353.784 228 C 371.247 228, 388.804 224.319, 401.795 217.935 C 417.526 210.204, 420.843 199.940, 411.545 187.762 C 404.290 178.261, 388.744 168.977, 366.677 160.967 C 354.069 156.390, 351.836 154.638, 348.531 146.728 C 346.786 142.552, 346.503 133.798, 348.020 130.962 C 348.834 129.441, 348.130 127.371, 344.531 120.715 C 335.816 104.597, 333.669 94.632, 336.493 83.397 C 338.571 75.125, 338.058 67.883, 334.777 59.172 C 330.761 48.513, 323.156 40.015, 317.624 40.004 C 316.592 40.002, 311.642 42.203, 306.624 44.896 C 291.914 52.789, 291.403 52.747, 272.134 42.077 C 265.185 38.230, 257.642 34.428, 255.371 33.628 C 249.533 31.572, 241.713 31.032, 233 32.081 M 239 36.565 C 233.879 40.350, 231.792 40.966, 219.045 42.456 C 207.103 43.851, 197.088 46.705, 193.851 49.635 C 191.309 51.935, 191.980 52.235, 197.117 51.095 C 200.283 50.393, 203.721 50.517, 209.500 51.542 C 221.183 53.614, 221.820 53.515, 226.155 48.958 C 229.374 45.574, 230 45.249, 230 46.958 C 230 50.360, 234.130 49.530, 236.814 45.588 C 238.087 43.719, 240.445 41.644, 242.056 40.977 C 245.943 39.367, 252.863 41.586, 262.902 47.661 C 274.465 54.660, 297.302 63, 304.902 63 C 311.417 63, 319.403 55.637, 317.848 51.064 C 317.656 50.501, 314.875 52.283, 311.667 55.022 C 308.459 57.762, 304.670 60.296, 303.248 60.653 C 300.044 61.457, 287.700 58.001, 279.500 54.003 C 276.200 52.394, 270.104 48.230, 265.953 44.749 C 253.335 34.168, 245.473 31.781, 239 36.565 M 221 55.586 C 217.425 57.442, 213.749 58.969, 212.832 58.980 C 210.197 59.012, 207.960 60.126, 208.565 61.105 C 209.446 62.531, 215.600 62.144, 219.993 60.386 C 223.459 58.999, 228.929 53.550, 227.859 52.549 C 227.662 52.364, 224.575 53.731, 221 55.586 M 229.549 59.256 C 227.190 64.227, 222.809 68.357, 216.611 71.453 C 208.545 75.483, 185.716 85, 184.116 85 C 183.319 85, 182.930 85.263, 183.251 85.585 C 183.573 85.906, 188.436 85.231, 194.057 84.085 C 204.927 81.868, 213 81.385, 213 82.952 C 213 84.130, 206.661 88.485, 197.750 93.428 C 194.037 95.487, 191 97.352, 191 97.571 C 191 97.791, 193.363 97.032, 196.250 95.883 C 205.611 92.162, 206.272 91.938, 206.689 92.356 C 206.916 92.582, 202.691 95.114, 197.301 97.982 C 186.585 103.684, 171.492 113.374, 170.342 115.291 C 169.784 116.219, 169.951 116.230, 171.058 115.338 C 173.795 113.134, 188.518 106.261, 195 104.163 C 203.785 101.320, 255.294 93.141, 266.500 92.810 C 271.450 92.663, 282.025 92.885, 290 93.302 L 304.500 94.061 296.413 91.585 C 276.747 85.564, 259.279 77.332, 253.141 71.193 C 249.113 67.165, 248.095 66.641, 244.777 66.880 C 240.792 67.168, 238.209 65.262, 233.406 58.490 L 231.313 55.538 229.549 59.256 M 176.472 90.031 C 174.830 91.846, 174.795 92.224, 176.149 93.577 C 177.502 94.931, 177.918 94.887, 180.050 93.161 C 182.096 91.504, 182.245 91, 181.095 89.615 C 179.355 87.518, 178.692 87.578, 176.472 90.031 M 216 108.854 C 212.014 109.466, 211.773 109.641, 213.888 110.384 L 216.276 111.222 213.388 113.039 C 211.800 114.039, 205.789 116.046, 200.031 117.501 C 194.273 118.956, 188.873 120.585, 188.031 121.121 C 186.835 121.882, 186.959 121.971, 188.598 121.529 C 192.050 120.596, 206.064 118, 207.647 118 C 210.415 118, 208.030 119.762, 201.764 122.347 C 198.319 123.769, 188.307 127.680, 179.515 131.039 C 164.646 136.719, 160.398 138.731, 161.322 139.656 C 161.526 139.859, 163.243 139.379, 165.137 138.587 C 175.041 134.449, 204.236 127.933, 221.772 125.947 C 228.054 125.236, 240.681 124.965, 254.272 125.251 C 276.189 125.711, 276.682 125.769, 289.500 129.391 C 303.146 133.246, 311.205 136.021, 316.081 138.542 C 321.933 141.568, 318.787 139.005, 310.518 134.011 C 294.383 124.265, 268.705 114.197, 250.500 110.478 C 241.624 108.666, 222.959 107.787, 216 108.854 M 232.500 128.630 C 215.286 130.154, 181.301 135.634, 182.379 136.712 C 182.608 136.941, 188.307 136.411, 195.043 135.535 C 201.780 134.658, 214.538 133.454, 223.396 132.859 C 237.905 131.884, 246.111 132.005, 268.500 133.524 C 274.083 133.903, 274.893 133.795, 272.500 132.990 C 265.018 130.471, 241.120 127.867, 232.500 128.630 M 177.750 137.662 C 178.438 137.940, 179.563 137.940, 180.250 137.662 C 180.938 137.385, 180.375 137.158, 179 137.158 C 177.625 137.158, 177.063 137.385, 177.750 137.662 M 140 146.474 C 125.736 148.799, 105 156.245, 105 159.043 C 105 159.623, 106.167 159.452, 107.750 158.639 C 120.587 152.049, 155.204 146.495, 168 148.974 C 179.495 151.201, 189 154.210, 189 155.621 C 189 156.722, 189.914 156.862, 193.250 156.273 C 195.588 155.861, 210.550 155.519, 226.500 155.513 C 249.976 155.505, 257.595 155.852, 266.500 157.335 C 286.990 160.747, 310.980 166.021, 326.272 170.475 C 366.946 182.324, 388.046 191.754, 397.616 202.358 C 401.457 206.615, 402 206.931, 402 204.909 C 402 198.686, 383.605 187.308, 358.528 178.018 C 329.435 167.241, 284.341 155.791, 259.943 152.986 C 249.843 151.825, 228.101 151.810, 207.500 152.949 C 197.529 153.501, 191.846 153.433, 190.549 152.747 C 189.476 152.179, 184.076 150.367, 178.549 148.719 C 166.525 145.135, 153.036 144.349, 140 146.474 M 240 147 C 237.525 147.385, 248.325 147.699, 264 147.697 C 281.272 147.696, 289.939 147.407, 286 146.964 C 277.811 146.044, 245.991 146.069, 240 147 M 173.058 182.137 C 171.930 183.987, 171.006 186.002, 171.004 186.615 C 171.002 187.228, 170.104 188.870, 169.008 190.263 C 167.299 192.436, 161.929 209.584, 162.045 212.500 C 162.121 214.406, 166.951 201.770, 168.200 196.398 C 168.890 193.429, 169.749 191, 170.108 191 C 171.069 191, 172.258 209.041, 171.527 212.522 C 170.925 215.384, 170.967 215.364, 172.590 212 C 173.799 209.495, 174.480 204.378, 174.986 194 C 175.374 186.025, 175.561 179.337, 175.400 179.137 C 175.239 178.938, 174.185 180.288, 173.058 182.137 M 179.781 180.750 C 176.258 184.784, 175.659 189.661, 177.546 198.958 C 178.978 206.010, 179.106 208.541, 178.211 212.066 C 176.751 217.818, 177.307 218.107, 179.606 212.791 C 181.133 209.261, 181.466 205.883, 181.481 193.752 C 181.492 185.641, 181.457 179.003, 181.405 179.002 C 181.353 179.001, 180.622 179.787, 179.781 180.750 M 162.721 188.250 C 155.282 197.629, 151.518 201.421, 150.324 200.739 C 149.871 200.481, 146.800 201.565, 143.500 203.150 C 138.572 205.516, 138.126 205.914, 141 205.376 C 142.925 205.015, 145.687 204.671, 147.138 204.610 C 150.016 204.490, 159 198.553, 159 196.771 C 159 196.164, 159.265 195.931, 159.588 196.255 C 159.912 196.578, 158.969 198.903, 157.493 201.421 C 153.671 207.943, 155.133 207.082, 160.328 199.750 C 166.489 191.055, 171.963 180, 170.108 180 C 169.644 180, 166.320 183.713, 162.721 188.250 M 150.395 188.418 C 144.287 191.336, 137.190 194.526, 134.623 195.506 C 132.056 196.487, 130.157 197.490, 130.404 197.737 C 131.085 198.419, 147.936 192.105, 152.678 189.391 C 154.976 188.076, 157.494 187, 158.273 187 C 159.052 187, 160.505 186.100, 161.500 185 C 164.131 182.092, 162.736 182.522, 150.395 188.418 M 235.833 186.216 C 229.138 186.976, 221.945 189.319, 210.151 194.580 C 203.981 197.333, 203.681 197.369, 199.498 195.865 L 195.194 194.318 194.152 201.339 C 193.399 206.418, 191.517 211.641, 187.351 220.223 C 180.152 235.050, 179.873 239.344, 185.387 250.410 C 191.961 263.603, 209.858 281.712, 218.114 283.525 C 220.910 284.139, 221.067 284.361, 219.683 285.746 C 218.311 287.118, 217.657 287.124, 213.644 285.803 L 209.143 284.321 208.478 289.161 C 208.112 291.822, 207.470 294, 207.051 294 C 205.379 294, 195.974 282.916, 189.234 273 C 185.308 267.225, 181.209 261.387, 180.125 260.026 C 178.194 257.603, 178.110 257.590, 176.102 259.408 C 174.089 261.229, 174.033 261.216, 173.076 258.699 C 172.539 257.288, 170.278 251.852, 168.050 246.618 C 165.823 241.384, 163.970 236.517, 163.932 235.801 C 163.895 235.085, 163.376 235.512, 162.780 236.750 C 161.623 239.147, 159.007 239.838, 158.990 237.750 C 158.971 235.269, 154.191 226.286, 150.882 222.513 C 145.564 216.449, 140.202 212.999, 136.100 213.004 C 124.932 213.015, 119.145 226.022, 123.612 241.067 C 127.216 253.200, 134.831 265.799, 144.939 276.348 C 156.813 288.742, 162.374 289.169, 166.983 278.041 C 167.676 276.368, 168.601 275, 169.040 275 C 169.478 275, 170.810 276.575, 172 278.500 C 173.231 280.492, 174.973 282, 176.043 282 C 178.134 282, 178.585 283.312, 182.059 299.500 C 185.891 317.360, 188.567 324.246, 195.993 335.351 C 203.277 346.243, 207.078 349.589, 215.368 352.404 C 220.374 354.103, 226 354.525, 226 353.200 C 226 352.760, 225.460 351.860, 224.800 351.200 C 224.140 350.540, 224.027 350.007, 224.550 350.015 C 225.072 350.023, 229.550 353.661, 234.500 358.099 C 239.450 362.537, 245.940 367.324, 248.922 368.736 L 254.344 371.304 274.922 370.320 C 290.573 369.571, 296.254 368.942, 298.650 367.694 C 303.220 365.312, 308.603 358.564, 309.807 353.708 C 311.518 346.804, 312.775 330.647, 311.709 329.250 C 310.294 327.395, 309.218 327.725, 308.451 330.250 C 307.381 333.775, 303.183 338.854, 299.966 340.518 C 297.583 341.750, 294.717 341.910, 284.653 341.372 C 276.578 340.940, 271.181 341.090, 269.136 341.803 C 265.342 343.125, 265.256 342.559, 268.521 337.754 L 271.042 334.044 267.574 332.595 C 265.666 331.798, 261.406 329.313, 258.108 327.073 C 254.809 324.833, 251.801 323, 251.424 323 C 251.047 323, 248.601 324.536, 245.989 326.413 C 240.898 330.070, 235.657 333, 234.207 333 C 233.482 333, 232.156 330.867, 229.337 325.170 C 229.247 324.989, 228.086 325.553, 226.757 326.424 C 223.788 328.369, 223 327.685, 223 323.162 C 223 321.235, 222.360 318.947, 221.578 318.079 C 220.796 317.210, 219.847 315.262, 219.470 313.750 C 218.880 311.388, 219.087 311, 220.941 311 C 222.128 311, 224.362 310.347, 225.906 309.548 C 228.307 308.307, 228.807 307.300, 229.361 302.586 C 230.255 294.981, 231.431 292.870, 236.597 289.602 C 239.057 288.046, 245.891 281.657, 251.785 275.404 C 257.678 269.151, 263.730 263.526, 265.233 262.903 C 268.479 261.559, 274.295 262.445, 276.042 264.551 C 277.791 266.658, 276.715 267.283, 273.703 265.911 C 267.638 263.147, 263.105 268.176, 265.112 275.442 C 266.350 279.928, 268.415 281, 275.822 281 C 280.398 281, 283.320 281.723, 288.450 284.123 C 293.800 286.627, 295.955 287.135, 299.312 286.685 C 304.711 285.961, 309 281.485, 309 276.576 C 309 271.830, 301.571 246.444, 297.863 238.521 C 294.290 230.885, 294.679 228.642, 300.567 222.935 C 302.455 221.105, 304 218.748, 304 217.697 C 304 216.238, 304.414 215.976, 305.750 216.588 C 308.705 217.942, 319.473 218.219, 323.805 217.052 C 326.062 216.445, 329.213 214.850, 330.807 213.509 L 333.706 211.070 337.047 213.535 C 341.836 217.068, 342.345 216.622, 339.654 211.250 C 338.345 208.637, 336.718 204.140, 336.039 201.256 C 334.959 196.672, 334.532 196.070, 332.652 196.474 C 325.673 197.974, 313.303 199.243, 305.500 199.258 C 298.536 199.272, 294.577 198.677, 288 196.629 C 257.812 187.226, 246.619 184.991, 235.833 186.216 M 155.973 189.706 C 151.853 192.548, 146.422 197.982, 147.691 197.991 C 148.346 197.996, 149.160 197.550, 149.500 197 C 149.840 196.450, 150.568 196, 151.118 196 C 151.668 196, 151.840 196.450, 151.500 197 C 150.615 198.433, 152.299 198.233, 154.465 196.649 C 155.481 195.906, 156.381 194.369, 156.464 193.233 C 156.548 192.096, 157.208 190.454, 157.931 189.583 C 159.623 187.544, 159.054 187.580, 155.973 189.706 M 228.384 201.966 C 222.948 204.682, 207 218.101, 207 219.958 C 207 221.672, 213.394 221.945, 217.870 220.424 C 225.505 217.828, 231.444 217.516, 236.493 219.444 C 241.828 221.482, 242.171 222.584, 237.770 223.551 C 235.993 223.941, 230.327 226.074, 225.179 228.292 L 215.817 232.323 210.906 230.753 C 204.772 228.791, 205.479 230.124, 212.748 234.227 L 218.332 237.378 215.238 238.439 C 210.763 239.973, 210.197 241, 213.825 241 C 215.892 241, 218.562 242.205, 221.556 244.491 C 233.444 253.565, 252.765 252.747, 262.185 242.771 L 264.870 239.928 270.051 242.714 C 273.491 244.564, 275.379 245.111, 275.669 244.342 C 275.909 243.705, 277.475 241.116, 279.149 238.588 C 281.860 234.496, 282.073 233.649, 281.099 230.855 C 280.179 228.215, 280.283 227.506, 281.753 226.390 C 282.714 225.661, 283.807 225.049, 284.183 225.032 C 285.404 224.975, 286.164 221.024, 285.519 218.085 C 284.937 215.435, 284.681 215.294, 282.168 216.243 C 279.980 217.069, 278.631 216.852, 275.264 215.135 C 272.963 213.961, 269.977 213, 268.629 213 C 264.045 213, 253.963 209.204, 244.978 204.095 C 240.049 201.293, 235.634 199, 235.168 199 C 234.701 199, 231.649 200.335, 228.384 201.966 M 129.659 221.054 C 125.938 223.981, 124.608 229.749, 126.026 236.818 C 127.407 243.702, 133.909 257.378, 137.761 261.500 C 144.286 268.483, 149 271.242, 149 268.079 C 149 267.637, 145.667 263.920, 141.593 259.820 C 135.585 253.773, 133.885 251.352, 132.593 247.001 C 130.569 240.185, 130.553 233.082, 132.557 230.223 C 134.361 227.647, 138.427 227.284, 140.643 229.500 C 141.468 230.325, 143.236 231, 144.571 231 C 148.081 231, 147.554 232.742, 143.536 234.421 C 139.390 236.153, 138.608 238.503, 139.181 247.508 C 139.529 252.970, 140.040 254.433, 142.499 256.999 C 144.097 258.667, 147.226 260.508, 149.452 261.090 C 151.679 261.673, 155.178 263.241, 157.229 264.575 C 163.983 268.968, 165.242 267.251, 161.121 259.267 C 159.484 256.095, 157.644 252.201, 157.032 250.614 L 155.919 247.728 153.446 250.051 C 151.687 251.703, 150.664 252.064, 149.901 251.301 C 149.138 250.538, 149.575 248.828, 151.415 245.373 C 154.514 239.550, 154.607 236.935, 151.923 231.018 C 149.370 225.390, 147.468 223.281, 142.790 220.894 C 137.943 218.420, 132.929 218.481, 129.659 221.054 M 330.661 224.865 C 329.086 225.485, 329.338 225.867, 332.411 227.522 L 336 229.455 338.727 226.727 L 341.455 224 336.977 224.070 C 334.515 224.109, 331.672 224.466, 330.661 224.865 M 245.876 231.533 L 244.253 235 247.876 234.985 C 249.869 234.976, 252.175 234.518, 253 233.967 C 254.267 233.120, 254.064 232.579, 251.694 230.482 C 250.151 229.117, 248.576 228.015, 248.194 228.033 C 247.812 228.050, 246.769 229.625, 245.876 231.533 M 230.496 232.007 C 230.153 232.561, 230.596 233.292, 231.480 233.631 C 233.394 234.365, 234.461 233.556, 233.541 232.067 C 232.711 230.723, 231.306 230.696, 230.496 232.007 M 322.551 231.917 C 322.238 232.424, 322.645 233.502, 323.455 234.312 C 324.753 235.610, 324.665 235.856, 322.714 236.379 C 319.207 237.319, 313.177 237.096, 312.500 236 C 311.562 234.483, 310 234.805, 310 236.515 C 310 239.145, 316.040 241.992, 321.628 241.996 C 328.096 242.001, 329.811 240.373, 327.985 235.963 C 326.632 232.698, 323.507 230.370, 322.551 231.917 M 230.299 236.902 C 226.889 237.231, 223.567 238.032, 222.918 238.682 C 220.976 240.624, 228.461 243.194, 237.683 243.750 C 244.714 244.174, 246.508 243.933, 250.433 242.033 C 255.404 239.626, 256.283 237.577, 252.750 236.630 C 250.106 235.922, 239.090 236.055, 230.299 236.902 M 309.360 248.688 C 309.654 249.685, 310.619 253.365, 311.505 256.866 C 312.390 260.367, 313.944 265.542, 314.958 268.366 C 315.972 271.190, 317.084 274.755, 317.430 276.288 C 318.188 279.657, 315.750 285.265, 312.373 287.921 C 309.696 290.027, 309.061 295, 311.469 295 C 312.363 295, 312.712 294.414, 312.362 293.500 C 311.584 291.473, 312.648 291.613, 315.965 293.975 C 317.491 295.061, 319.949 296.410, 321.428 296.973 L 324.117 297.995 323.845 288.248 C 323.573 278.517, 323.579 278.489, 327.375 272.297 C 332.239 264.363, 332.806 260.168, 330.017 252.749 C 327.970 247.304, 327.713 247.037, 325.178 247.737 C 321.733 248.687, 317.483 248.664, 312.663 247.669 C 309.241 246.962, 308.884 247.073, 309.360 248.688 M 249.452 288.668 C 245.628 293.435, 240.925 299.721, 239 302.637 C 237.075 305.552, 233.475 309.391, 231 311.169 L 226.500 314.400 230 315.127 C 234.495 316.059, 238.804 314.066, 243.477 308.894 C 245.414 306.749, 247 305.164, 247 305.371 C 247 305.579, 246.325 307.662, 245.500 310 C 243.458 315.787, 243.590 316.315, 246.584 314.353 C 248.934 312.814, 253.749 307.068, 256.639 302.357 C 257.531 300.903, 257.595 301.477, 256.933 305 C 256.468 307.475, 256.068 310.118, 256.044 310.872 C 255.968 313.240, 258.742 310.244, 261.758 304.702 C 264.675 299.341, 265.866 300.205, 264.145 306.436 C 262.233 313.363, 266.895 311.047, 270.979 303.041 C 272.113 300.819, 273.319 299, 273.660 299 C 274.001 299, 274.024 301.475, 273.712 304.500 C 273.180 309.658, 273.280 310, 275.322 309.995 C 277.355 309.990, 277.500 309.515, 277.500 302.863 C 277.500 296.387, 277.295 295.660, 275.250 294.901 C 272.931 294.039, 272.235 291.591, 274 290.500 C 275.920 289.313, 274.981 287.967, 272.642 288.554 C 269.562 289.327, 263.287 286.660, 259.452 282.949 L 256.404 279.999 249.452 288.668 M 149.478 291.872 C 149.876 294.225, 151.281 298.808, 152.601 302.055 C 153.920 305.303, 155 308.241, 155 308.584 C 155 308.927, 153.385 307.789, 151.410 306.055 C 142.639 298.354, 143.070 310.911, 152.173 328.275 C 156.304 336.157, 174.475 354.638, 185 361.664 C 194.121 367.752, 206 374.431, 206 373.471 C 206 373.085, 200.957 364.834, 194.794 355.135 C 182.717 336.130, 178.461 326.865, 174.977 312 C 170.174 291.502, 170.509 292.168, 166.141 294.427 C 163.152 295.973, 162.812 295.934, 158.259 293.520 C 155.641 292.133, 152.433 290.232, 151.128 289.296 L 148.756 287.594 149.478 291.872 M 319.442 303.098 C 316.660 303.448, 313.080 304.418, 311.486 305.254 L 308.587 306.772 314.543 307.903 C 324.916 309.871, 361.882 320.387, 374.700 325.016 C 379.873 326.884, 379.902 326.883, 380.548 324.848 C 380.905 323.723, 382.953 321.047, 385.099 318.901 L 389 315 386.250 314.994 C 384.738 314.991, 373.260 312.523, 360.744 309.510 C 335.715 303.485, 327.055 302.140, 319.442 303.098 M 261.112 321.896 C 260.048 322.580, 260.679 323.421, 263.810 325.493 C 268.855 328.832, 281.563 330.733, 287.729 329.073 C 292.378 327.821, 296.855 323.646, 294.867 322.418 C 293.041 321.289, 262.783 320.822, 261.112 321.896 M 141.026 332.406 C 139.209 338.895, 140.395 344.494, 145.853 355.193 C 156.622 376.306, 196.678 431.284, 220.393 457.500 C 223.933 461.413, 224.046 461.457, 225.572 459.500 C 226.430 458.400, 229.841 452.550, 233.151 446.500 C 236.461 440.450, 242.100 431.084, 245.682 425.686 C 252.090 416.028, 252.164 415.839, 250.347 413.805 C 247.445 410.558, 226.969 397.138, 204.273 383.608 C 192.848 376.797, 180.718 369.172, 177.319 366.665 C 163.504 356.475, 151.251 343.750, 145.570 333.695 L 142.291 327.889 141.026 332.406 M 206 360.720 C 206 362.880, 212.728 371.900, 217.872 376.637 C 241.509 398.400, 241.483 398.379, 241.836 396.003 C 242.233 393.339, 239.670 386.366, 237.221 383.449 C 236.275 382.321, 230.550 377.857, 224.500 373.529 C 218.450 369.200, 211.813 364.348, 209.750 362.746 C 207.688 361.143, 206 360.232, 206 360.720 M 108.030 378.083 C 108.046 379.413, 108.708 387.025, 109.500 395 C 110.292 402.975, 110.954 414.264, 110.970 420.088 L 111 430.675 127.750 436.857 C 136.963 440.256, 145.089 443.029, 145.809 443.019 C 148.986 442.973, 145.058 440.825, 131.971 435.453 C 124.245 432.281, 117.740 429.388, 117.514 429.023 C 117.289 428.659, 116.608 423.442, 116.002 417.430 C 114.921 406.729, 109.580 377.246, 108.531 376.197 C 108.239 375.905, 108.013 376.754, 108.030 378.083 M 287.990 382.750 C 287.956 388.928, 278 402.036, 266.791 410.661 C 260.836 415.243, 260.265 416.503, 263.279 418.404 C 264.596 419.235, 265.636 418.776, 268.312 416.183 L 271.684 412.914 277.003 416.910 C 284.121 422.258, 290.464 430.180, 293.050 436.951 C 296.654 446.386, 299.343 452.076, 301.719 455.297 C 304.836 459.522, 304.527 456.948, 300.844 448 C 298.079 441.284, 297.680 438.983, 297.027 426 C 296.450 414.523, 295.743 409.734, 293.636 403.028 C 292.171 398.369, 290.689 391.506, 290.343 387.778 C 289.996 384.050, 289.327 381, 288.856 381 C 288.385 381, 287.996 381.788, 287.990 382.750 M 260 424.159 C 252.733 425.684, 252.955 425.377, 255.077 430.960 C 256.139 433.754, 257.717 440.194, 258.584 445.270 C 260.148 454.421, 261.190 457.119, 262.404 455.155 C 263.209 453.853, 268.825 435.673, 269.927 430.804 C 270.539 428.100, 270.377 426.555, 269.325 425.054 C 267.764 422.825, 266.798 422.732, 260 424.159" stroke="none" fill="black" fill-rule="evenodd"/>
</svg>