<?xml version="1.0" standalone="no"?>
<!DOCTYPE svg PUBLIC "-//W3C//DTD SVG 20010904//EN"
 "http://www.w3.org/TR/2001/REC-SVG-20010904/DTD/svg10.dtd">
<svg version="1.0" xmlns="http://www.w3.org/2000/svg"
 width="1024.000000pt" height="1024.000000pt" viewBox="0 0 1024.000000 1024.000000"
 preserveAspectRatio="xMidYMid meet">

<g transform="translate(0.000000,1024.000000) scale(0.100000,-0.100000)"
fill="#000000" stroke="none">
<path d="M5105 9610 c-34 -7 -97 -36 -370 -170 -259 -127 -381 -233 -483 -420
-94 -173 -151 -417 -159 -685 -5 -180 -5 -180 -33 -210 -59 -64 -60 -70 -60
-362 0 -327 2 -335 101 -435 l67 -67 -71 -62 c-268 -236 -954 -958 -930 -979
5 -4 168 -60 363 -125 456 -151 625 -217 660 -260 26 -31 8 -38 -450 -184
-157 -49 -458 -142 -670 -206 -211 -64 -400 -125 -418 -137 -89 -55 -132 -175
-216 -606 -35 -175 -39 -189 -96 -298 -63 -120 -68 -144 -49 -220 l11 -44 -65
-64 c-77 -75 -100 -115 -100 -174 0 -33 7 -51 33 -83 l33 -41 -23 -47 c-19
-40 -60 -103 -209 -323 -49 -72 -89 -167 -100 -236 -9 -58 -15 -68 -76 -134
-140 -151 -216 -279 -235 -394 -6 -33 -7 -110 -4 -174 6 -105 5 -120 -14 -156
-34 -67 -45 -161 -39 -333 8 -237 54 -448 124 -568 36 -61 115 -129 181 -153
103 -39 183 -52 358 -57 199 -6 263 4 589 91 l200 53 3 -78 3 -79 2539 0
c1397 0 2540 2 2540 5 0 2 -42 32 -92 66 -204 136 -220 150 -205 168 8 9 17
21 20 27 4 8 -141 112 -386 277 -1506 1015 -1890 1275 -2182 1474 -294 200
-824 553 -837 558 -8 2 -53 -57 -113 -147 -55 -84 -108 -160 -117 -170 -35
-36 -71 -23 -185 64 -144 109 -330 231 -425 279 -192 96 -382 151 -528 152
-118 0 -158 -18 -219 -97 -39 -50 -47 -56 -80 -56 -38 0 -145 62 -204 117 -51
49 -53 45 261 516 108 162 200 290 220 305 47 36 123 41 185 14 99 -44 1186
-792 1264 -870 31 -31 203 -152 423 -298 l369 -246 30 34 c17 19 47 40 69 46
47 14 131 16 165 3 24 -9 25 -8 32 36 5 33 17 56 45 87 41 45 41 49 -4 84 -38
29 -45 28 -58 -8 l-10 -31 -102 54 c-89 48 -220 129 -452 280 -76 49 -94 77
-94 144 0 44 42 126 78 151 82 59 145 41 374 -109 184 -120 352 -248 363 -277
3 -8 1 -20 -5 -26 -16 -16 -12 -24 27 -51 28 -18 51 -25 86 -25 40 0 58 -7
103 -37 37 -26 53 -44 52 -56 -2 -15 20 -32 96 -72 111 -60 176 -75 176 -40 0
12 17 39 37 61 20 21 37 47 38 57 2 20 22 37 43 37 19 0 161 -75 215 -113 53
-38 119 -99 165 -150 l32 -38 -22 -29 c-13 -18 -31 -30 -45 -30 -15 0 -27 -9
-34 -22 -5 -13 -26 -33 -44 -46 -19 -12 -35 -27 -35 -32 0 -14 98 -89 123 -94
12 -3 40 -8 61 -11 37 -6 146 -76 146 -94 0 -5 -7 -14 -16 -21 -13 -12 -9 -17
33 -43 79 -49 176 -90 398 -167 239 -82 382 -147 540 -244 133 -82 150 -96
133 -108 -7 -4 -26 -8 -43 -8 -44 0 -147 -52 -201 -102 -26 -24 -60 -66 -76
-95 -16 -28 -34 -56 -41 -61 -27 -23 -252 151 -502 388 -182 173 -255 237
-333 288 l-55 37 -48 -53 c-27 -30 -49 -62 -49 -73 0 -22 136 -221 188 -275
19 -19 262 -186 541 -371 278 -184 547 -363 596 -396 417 -281 637 -428 678
-451 l47 -28 0 34 c0 18 -7 60 -15 93 -19 82 -19 132 4 197 28 83 45 200 38
273 -11 118 -47 218 -180 502 -126 269 -124 258 -103 454 21 188 16 285 -20
429 -36 144 -131 388 -211 547 -39 79 -67 145 -62 149 5 3 23 29 39 57 38 67
40 130 6 204 -32 68 -69 199 -230 806 -62 233 -87 285 -154 328 -27 17 -244
95 -541 194 -580 193 -676 228 -676 244 0 16 459 358 564 420 135 79 128 68
80 126 -146 177 -613 653 -883 902 l-110 100 42 49 c80 95 82 105 82 417 1
305 1 304 -66 380 l-34 37 0 153 c0 169 -8 228 -50 398 -95 381 -249 564 -607
720 -76 34 -190 85 -253 114 -124 57 -158 66 -205 55z m134 -1791 c-30 -30
-39 -47 -37 -67 2 -22 9 -28 34 -30 31 -3 31 -3 20 -43 -11 -42 -16 -45 -47
-29 -17 10 -19 7 -19 -29 0 -25 5 -41 15 -45 9 -3 15 -18 15 -39 0 -100 71
-210 165 -253 56 -27 148 -32 206 -12 88 30 174 118 185 190 4 21 10 38 15 38
4 0 37 20 74 45 36 25 70 43 75 40 5 -3 14 -30 20 -61 27 -127 -31 -257 -190
-428 -38 -42 -70 -80 -70 -85 0 -4 9 -20 21 -35 27 -35 21 -51 -55 -131 -55
-59 -66 -66 -83 -56 -11 5 -28 27 -38 47 -11 25 -30 42 -58 55 -51 23 -87 25
-87 4 0 -26 -39 -31 -235 -28 -163 2 -205 -1 -299 -20 -107 -22 -108 -22 -127
-59 -22 -43 -24 -68 -6 -68 7 0 48 16 92 35 86 37 131 42 226 25 33 -6 89 -7
146 -1 110 10 206 -3 201 -27 -2 -8 -16 -24 -31 -36 -26 -19 -43 -21 -220 -24
-205 -3 -237 -10 -237 -48 0 -35 21 -73 44 -81 12 -3 123 -6 249 -6 134 0 230
-3 233 -9 13 -21 -9 -80 -42 -113 -33 -33 -38 -35 -102 -35 -49 0 -76 5 -100
20 -43 27 -51 26 -127 -16 -80 -44 -117 -41 -199 16 -30 21 -67 40 -83 42 -22
2 -31 11 -44 48 -15 41 -21 47 -78 68 -71 27 -148 92 -186 157 -70 120 -161
472 -181 698 -6 73 -5 80 20 117 28 42 36 46 67 30 14 -8 19 -21 19 -54 0 -28
11 -64 31 -104 84 -168 298 -215 438 -95 50 43 78 95 92 171 7 37 19 65 34 79
16 15 21 29 18 47 -5 22 -8 24 -30 15 -37 -14 -39 -13 -74 48 -18 31 -50 74
-72 95 -22 21 -35 38 -30 38 16 0 91 -84 112 -128 l22 -43 24 33 c13 18 32 43
41 56 10 13 18 42 18 65 1 41 2 42 41 48 22 3 79 7 128 8 l87 1 -41 -41z m443
9 c34 -16 85 -54 130 -97 l73 -71 -42 -40 c-48 -46 -63 -50 -63 -17 -1 31 -31
95 -65 135 -35 42 -103 81 -179 104 l-61 18 75 -3 c56 -2 90 -9 132 -29z
m-1252 -157 c-6 -12 -16 -19 -21 -15 -6 4 -4 13 7 25 21 24 29 18 14 -10z
m315 -4585 c46 -20 317 -189 445 -279 138 -97 331 -247 400 -310 59 -54 65
-88 25 -135 -51 -61 -107 -49 -242 51 -54 40 -174 122 -268 182 -93 60 -209
135 -257 166 -95 64 -98 64 -98 -18 0 -64 21 -92 165 -218 69 -60 128 -120
131 -133 14 -53 -47 -122 -108 -122 -35 0 -190 120 -245 191 -23 30 -60 77
-82 105 -45 58 -108 94 -165 94 -39 0 -96 -24 -96 -40 0 -6 22 -39 49 -73 45
-56 131 -201 131 -220 0 -4 -24 9 -53 28 -63 42 -148 63 -190 46 l-27 -11 45
-55 c53 -65 59 -105 21 -130 -77 -51 -251 -6 -466 120 -121 71 -150 111 -150
209 0 68 24 210 51 301 19 65 93 200 121 222 7 6 171 18 363 28 193 9 352 19
355 22 8 8 112 -8 145 -21z m850 -893 c202 -66 447 -164 442 -177 -3 -8 -322
-459 -342 -484 -3 -4 -314 177 -454 266 -171 107 -181 115 -177 127 3 10 173
255 222 322 l24 32 73 -20 c39 -11 135 -41 212 -66z"/>
<path d="M5145 7185 c-58 -16 -129 -19 -153 -6 -20 10 -110 -3 -126 -19 -6 -6
-7 -20 0 -37 7 -20 24 -33 67 -50 85 -34 105 -51 119 -94 12 -41 33 -54 79
-47 17 2 30 15 43 44 16 36 25 43 73 58 59 19 93 58 93 108 0 24 -6 29 -52 43
-62 18 -77 18 -143 0z"/>
<path d="M5707 3417 c-31 -29 -57 -60 -57 -69 0 -46 35 -89 109 -135 42 -26
171 -109 286 -185 116 -76 252 -164 302 -197 l93 -60 10 37 c5 21 23 59 40 85
48 76 45 83 -76 162 l-106 69 -44 -12 c-61 -16 -128 -15 -172 4 -79 33 -141
120 -142 199 0 40 -2 42 -78 93 -43 28 -85 54 -93 56 -8 3 -39 -18 -72 -47z"/>
<path d="M5467 3330 c-47 -37 -28 -111 33 -125 36 -9 80 27 80 65 0 62 -66 97
-113 60z"/>
<path d="M5758 3043 c-7 -29 11 -81 35 -98 93 -68 506 -325 520 -325 15 0 18
7 15 43 -3 40 -6 44 -73 88 -255 170 -473 309 -482 309 -6 0 -13 -8 -15 -17z"/>
<path d="M6451 2684 c-34 -43 -24 -86 26 -112 39 -21 93 13 93 60 0 36 -40 78
-74 78 -15 0 -33 -11 -45 -26z"/>
<path d="M8127 1482 c-23 -25 -21 -58 3 -82 39 -39 100 -14 100 42 0 51 -69
78 -103 40z"/>
</g>
</svg>
