<svg xmlns="http://www.w3.org/2000/svg" width="512" height="512" viewBox="0 0 512 512" version="1.1">
	<path d="M 228 28.491 C 212.498 31.998, 199.341 41.464, 193.516 53.302 C 186.897 66.753, 185.615 79.787, 188.971 99.500 C 190.650 109.363, 190.690 110.810, 189.358 113.500 C 188.541 115.150, 187.621 118.570, 187.315 121.099 C 186.815 125.224, 187.295 126.745, 191.972 135.850 C 197.083 145.801, 198.802 147.854, 204.758 151.121 C 207.351 152.544, 207.990 153.864, 209.981 161.921 L 212.249 171.101 204.799 178.800 C 200.702 183.035, 195.494 189.254, 193.226 192.620 C 190.957 195.986, 187 200.591, 184.431 202.852 C 179.256 207.407, 163.714 215.624, 142.706 224.913 C 135.119 228.267, 127.781 231.753, 126.398 232.659 C 122.870 234.971, 120.284 240.553, 117.465 251.947 C 116.129 257.349, 113.002 267.203, 110.517 273.845 C 106.664 284.146, 106 287.004, 106 293.280 C 106 300.354, 105.840 300.849, 101.884 306.069 C 95.927 313.928, 93.583 319.822, 88.020 340.924 C 85.290 351.282, 81.889 362.849, 80.462 366.628 C 79.036 370.408, 76.999 375.851, 75.935 378.725 C 71.319 391.190, 75.154 409.523, 84.552 419.926 C 90.744 426.780, 94.944 427.865, 116.578 428.204 L 135.500 428.500 147.088 423.250 C 153.461 420.363, 159.198 418, 159.838 418 C 160.477 418, 160.977 419.012, 160.948 420.250 C 160.892 422.699, 157.696 435.076, 154.020 447.081 C 152.538 451.920, 151.945 455.643, 152.379 457.372 C 153.468 461.711, 163.001 467.106, 178.968 472.419 C 194.789 477.684, 201.988 478.982, 203.612 476.864 C 204.187 476.114, 206.106 460.200, 207.876 441.500 C 212.283 394.929, 212.016 397, 213.615 397 C 215.339 397, 215.506 410.967, 213.945 424.500 C 210.907 450.837, 209.197 472.499, 210.032 474.060 C 211.139 476.129, 219.693 476.914, 244.251 477.201 C 255.615 477.334, 261.366 477.034, 262.133 476.267 C 262.973 475.427, 262.963 465.840, 262.093 438.907 C 261.313 414.728, 261.257 402.343, 261.925 401.675 C 262.593 401.007, 263.223 401.477, 263.820 403.087 C 265.190 406.783, 267.023 439.233, 267.078 460.742 C 267.138 484.638, 266.411 483.451, 280.417 482.526 C 311.344 480.482, 347.357 472.506, 353.058 466.438 L 355.400 463.946 353.118 454.223 C 350.514 443.124, 348.393 429.274, 349.178 428.489 C 349.469 428.197, 355.286 428.473, 362.104 429.100 C 369.021 429.737, 383.166 430.038, 394.106 429.780 C 411.757 429.364, 414.168 429.097, 418.292 427.101 C 427.069 422.852, 433.943 412.564, 436.650 399.626 C 438.232 392.070, 437.888 386.733, 435.365 379.667 C 434.547 377.375, 431.169 364.925, 427.859 352 C 424.548 339.075, 419.564 322.448, 416.782 315.051 C 413.131 305.345, 411.464 299.235, 410.789 293.093 C 410.178 287.538, 408.632 281.457, 406.337 275.583 C 404.403 270.633, 401.965 262.515, 400.918 257.542 C 395.584 232.183, 395.718 232.333, 366 218.630 C 353.625 212.924, 339.900 206.774, 335.500 204.964 C 327.827 201.807, 326.732 200.913, 308.685 183.086 C 292.161 166.763, 289.939 164.196, 290.439 162 C 290.752 160.625, 291.470 155, 292.035 149.500 C 292.853 141.525, 293.700 138.260, 296.216 133.377 L 299.370 127.255 297.101 118.667 L 294.833 110.078 297.539 105.106 L 300.245 100.133 298.007 96.511 C 295.569 92.566, 295.568 91.584, 297.994 72 C 298.642 66.775, 298.888 60.726, 298.543 58.557 C 297.624 52.788, 293.184 45.304, 288.551 41.712 C 286.323 39.985, 283.509 37.543, 282.298 36.286 C 280.720 34.649, 278.954 34, 276.074 34 C 273.862 34, 268.553 32.609, 264.276 30.908 C 257.641 28.270, 254.885 27.758, 245.500 27.418 C 238.093 27.150, 232.377 27.501, 228 28.491 M 284.021 45.041 C 285.154 47.263, 286.490 51.650, 286.988 54.791 L 287.894 60.500 287.634 54.500 C 287.380 48.646, 284.679 41, 282.866 41 C 282.367 41, 282.887 42.818, 284.021 45.041 M 259.664 47.139 C 261.551 50.896, 262.463 54.530, 262.787 59.586 C 263.310 67.728, 262.062 72.537, 258.199 77.275 C 255.896 80.101, 255.858 80.253, 257.893 78.500 C 265.383 72.051, 267.415 58.091, 262.313 48.142 C 260.766 45.127, 258.937 42.473, 258.249 42.246 C 257.532 42.009, 258.135 44.095, 259.664 47.139 M 251.470 46.551 C 252.795 48.503, 254.333 52.441, 254.888 55.301 C 256.632 64.285, 256.909 64.687, 256.661 57.867 C 256.469 52.573, 255.870 50.401, 253.696 47.117 C 252.198 44.852, 250.542 43, 250.016 43 C 249.490 43, 250.145 44.598, 251.470 46.551 M 282.500 71.632 C 276.593 76.873, 261.201 84.004, 255.839 83.985 C 250.100 83.964, 248.444 82.907, 249.897 80.193 C 250.504 79.059, 251 77.377, 251 76.455 C 251 75.122, 250.610 75.261, 249.097 77.129 L 247.193 79.480 240.347 76.219 C 233.677 73.042, 218.148 68.519, 217.192 69.474 C 216.930 69.737, 217.313 70.672, 218.043 71.552 C 219.007 72.713, 219.061 73.344, 218.241 73.851 C 217.465 74.331, 218.192 76.701, 220.555 81.396 C 223.334 86.918, 224 89.396, 224 94.220 C 224 99.791, 223.747 100.450, 220.301 103.850 C 216.784 107.321, 216.616 107.785, 216.867 113.325 C 217.038 117.100, 216.626 119.921, 215.697 121.340 C 213.571 124.584, 212.788 129.311, 213.893 132.219 C 214.430 133.631, 216.924 137.099, 219.435 139.926 C 225.986 147.303, 225.361 148.836, 217.795 143.946 C 214.382 141.740, 210.557 139.725, 209.295 139.468 C 208.033 139.210, 205.895 138.771, 204.545 138.492 C 201.908 137.947, 200.016 133.354, 200.006 127.473 C 199.998 123.323, 197.467 120, 194.313 120 C 191.866 120, 191.764 120.214, 192.233 124.373 C 192.801 129.413, 198.385 142.134, 201.114 144.603 C 202.132 145.525, 205.336 146.809, 208.233 147.456 L 213.500 148.634 216.105 156.351 C 217.538 160.595, 219.563 164.711, 220.605 165.496 C 221.647 166.282, 226.936 168.812, 232.357 171.118 C 237.779 173.424, 244.754 177.193, 247.857 179.494 C 250.961 181.796, 254.268 183.954, 255.206 184.291 C 257.349 185.061, 275.416 182.246, 279.681 180.478 C 283.279 178.987, 284.976 174.692, 285.006 167 C 285.016 164.525, 285.684 160.025, 286.490 157 C 287.297 153.975, 288.259 148.125, 288.628 144 C 289.113 138.580, 289.951 135.535, 291.650 133.018 C 294.428 128.902, 294.577 125.687, 292.357 117.776 L 290.714 111.920 288.296 114.191 C 285.801 116.535, 281.230 117.028, 275.445 115.575 C 272.726 114.893, 272.716 114.910, 273.310 119.195 C 273.638 121.563, 275.262 127.892, 276.919 133.259 C 279.840 142.728, 280.014 145.823, 277.643 146.164 C 274.517 146.614, 259 146.443, 259 145.959 C 259 144.600, 266.932 142.607, 271.250 142.882 C 274.773 143.106, 276 142.827, 276 141.800 C 276 141.039, 273.982 134.399, 271.515 127.043 C 266.459 111.969, 266.453 112.012, 274 108.700 C 276.475 107.614, 281.773 104.474, 285.773 101.722 C 291.681 97.657, 292.928 96.350, 292.421 94.752 C 292.078 93.670, 291.476 87.917, 291.083 81.967 C 290.440 72.225, 289.213 67.903, 287.128 68.042 C 286.782 68.065, 284.700 69.680, 282.500 71.632 M 226.940 103.282 C 220.554 108.269, 219.817 109.080, 220.369 110.518 C 220.905 111.916, 221.270 111.912, 224.046 110.476 C 225.741 109.600, 228.561 109.022, 230.314 109.191 L 233.500 109.500 229.624 111.791 C 227.492 113.050, 225.994 114.327, 226.295 114.628 C 226.595 114.929, 229.400 114.644, 232.528 113.994 C 236.641 113.140, 238.516 113.116, 239.307 113.907 C 240.098 114.698, 239.666 115, 237.747 115 C 234.360 115, 230 116.970, 230 118.500 C 230 120.304, 234.597 122, 239.484 122 C 243.046 122, 245.113 121.152, 250.447 117.500 C 254.062 115.025, 257.439 113, 257.951 113 C 259.378 113, 260.075 111.358, 259.396 109.590 C 258.950 108.428, 257.431 108, 253.746 108 C 250.895 108, 244.641 106.698, 239.341 105 C 228.721 101.598, 229.040 101.642, 226.940 103.282 M 289.693 104.944 C 287.368 106.433, 287.169 106.851, 288.533 107.374 C 290.519 108.136, 291.648 107.527, 293.030 104.944 C 294.297 102.576, 293.390 102.576, 289.693 104.944 M 282.500 109.781 C 279.615 110.377, 278.176 112.003, 280.550 111.985 C 282.613 111.968, 285.768 110.365, 284.971 109.738 C 284.712 109.535, 283.600 109.554, 282.500 109.781 M 193.587 112.635 C 193.167 113.728, 193.367 114.622, 194.084 114.861 C 194.744 115.081, 196.907 116.665, 198.892 118.381 C 200.876 120.096, 203.356 121.971, 204.401 122.547 C 205.447 123.122, 206.817 125.597, 207.446 128.047 C 208.075 130.496, 209.153 133.400, 209.842 134.500 C 210.994 136.338, 211.031 136.298, 210.298 134 C 209.859 132.625, 209.596 129.475, 209.714 127 C 210.047 120.008, 209.314 118.312, 204.539 115.027 C 198.777 111.062, 194.545 110.138, 193.587 112.635 M 280.892 153.441 C 280.213 154.120, 252.568 159, 249.400 159 C 244.999 159, 247.625 160.669, 257.386 164.072 C 265.437 166.880, 266.582 167.041, 271.316 166.026 C 274.153 165.417, 277.442 164.285, 278.626 163.509 C 281.251 161.789, 284.580 153, 282.606 153 C 281.906 153, 281.135 153.198, 280.892 153.441 M 264.739 161.027 C 259.427 161.962, 258.920 163, 263.774 163 C 266.034 163, 268.179 162.520, 268.541 161.933 C 269.485 160.407, 268.964 160.283, 264.739 161.027 M 216.439 172.902 C 217.875 175.225, 224.083 207.858, 223.636 210.729 C 223.003 214.789, 225.906 217.335, 233.772 219.622 C 249.634 224.233, 285.184 213.113, 284.947 203.614 C 284.870 200.509, 282.379 187.046, 281.769 186.436 C 281.481 186.148, 274.525 188.596, 266.311 191.876 C 242.955 201.201, 241.470 201.065, 236.924 189.177 C 235.384 185.149, 233.533 181.137, 232.812 180.262 C 231.709 178.923, 217.944 172, 216.386 172 C 216.109 172, 216.133 172.406, 216.439 172.902 M 297.800 186.534 C 297.478 187.065, 296.724 190.650, 296.124 194.500 C 293.625 210.537, 289.240 227.760, 287.114 229.886 C 284.368 232.632, 284.257 237, 286.933 237 C 287.996 237, 289.146 236.116, 289.489 235.035 C 290.599 231.537, 295.833 231.307, 317.250 233.814 C 323.857 234.587, 324 234.555, 324 232.302 C 324 229.469, 325.561 229.311, 327 232 C 328.069 233.998, 331 234.803, 331 233.099 C 331 231.871, 322.672 210.409, 319.943 204.602 L 317.740 199.916 313.445 200.560 C 310.984 200.930, 307.623 200.701, 305.575 200.025 C 302.674 199.067, 301.995 198.341, 301.974 196.172 C 301.942 192.894, 298.609 185.198, 297.800 186.534 M 201.148 200.088 C 198.423 202.813, 196.501 205.940, 195.518 209.251 C 193.631 215.607, 189.885 220.562, 186.289 221.460 C 184.755 221.843, 182.690 222.886, 181.700 223.779 C 180.083 225.236, 180.111 224.907, 181.975 220.559 C 183.116 217.896, 183.869 215.536, 183.648 215.315 C 182.885 214.552, 174.871 224.434, 170.282 231.798 C 166.688 237.565, 165.975 239.367, 167.032 240.020 C 167.897 240.554, 168.857 240.251, 169.692 239.178 C 170.906 237.620, 171.092 237.618, 172.287 239.150 C 173.476 240.674, 174.263 240.617, 182.537 238.404 C 192.811 235.656, 199.606 235.333, 201.978 237.480 C 203.422 238.787, 203.868 238.781, 205.806 237.423 C 207.202 236.445, 208 234.838, 208 233.002 C 208 229.298, 206.393 228.334, 203.931 230.563 C 202.862 231.530, 201.718 232.051, 201.389 231.722 C 201.059 231.392, 201.987 223.395, 203.450 213.950 C 204.913 204.505, 205.925 196.591, 205.697 196.364 C 205.470 196.137, 203.423 197.813, 201.148 200.088 M 228.517 203.855 C 229.040 208.072, 231.715 214.618, 232.567 213.767 C 232.797 213.536, 231.859 210.232, 230.481 206.424 C 228.198 200.112, 228.024 199.885, 228.517 203.855 M 333.473 215.043 C 332.081 217.296, 332.815 221.764, 336.533 233.675 L 340.203 245.429 337.406 247.835 C 334.832 250.049, 334.047 250.190, 327.554 249.602 C 306.600 247.707, 298.600 247.067, 298.405 247.272 C 298.286 247.397, 300.899 251.082, 304.212 255.461 C 310.112 263.257, 310.225 263.527, 309.709 268.528 C 309.419 271.337, 308.055 276.305, 306.678 279.568 C 305.301 282.830, 304.339 285.666, 304.539 285.869 C 304.740 286.072, 306.720 284.683, 308.940 282.784 C 311.159 280.884, 318.718 276.278, 325.738 272.549 C 332.757 268.819, 339.558 264.808, 340.851 263.634 C 342.144 262.460, 344.721 258.496, 346.576 254.824 C 349.763 248.519, 351.569 246.236, 352.575 247.241 C 352.818 247.484, 353.477 251.467, 354.039 256.092 C 354.602 260.716, 355.577 267.191, 356.206 270.480 L 357.351 276.461 358.698 270.480 C 360.246 263.606, 364.980 251, 366.013 251 C 366.397 251, 367.143 252.463, 367.671 254.250 L 368.631 257.500 372.289 251.839 C 382.603 235.879, 382.695 236.068, 358.721 224.219 C 339.076 214.510, 334.770 212.945, 333.473 215.043 M 155.122 227.434 C 145.014 232.523, 135.912 237.770, 134.894 239.094 C 132.063 242.776, 132.514 247.852, 136.178 253.554 C 137.927 256.274, 140.352 260.910, 141.568 263.855 L 143.779 269.210 144.500 262.855 C 145.327 255.565, 147.491 249.567, 148.966 250.479 C 150.075 251.164, 152.733 259.860, 153.202 264.340 C 153.477 266.961, 153.789 266.676, 157.250 260.634 C 161.514 253.192, 161.663 252.390, 159.270 249.745 C 157.617 247.920, 157.696 247.537, 161.020 241.267 C 162.934 237.656, 166.362 231.908, 168.638 228.493 C 173.763 220.806, 175.301 217.974, 174.285 218.090 C 173.853 218.140, 165.230 222.344, 155.122 227.434 M 291.546 234.926 C 291.231 235.436, 293.567 236.150, 296.736 236.514 C 299.906 236.878, 308.207 238.036, 315.183 239.088 C 331.537 241.553, 335.264 241.584, 334.794 239.250 C 334.530 237.942, 333.642 237.577, 331.277 237.806 C 329.537 237.975, 322.047 237.187, 314.633 236.056 C 300.066 233.834, 292.451 233.461, 291.546 234.926 M 384.120 237.832 C 383.011 239.389, 381.126 243.102, 379.931 246.082 C 376.697 254.149, 366.970 283.304, 367.378 283.711 C 368.019 284.352, 383.970 259.308, 386.651 253.452 C 389.723 246.741, 390.700 240.177, 389.078 237.146 C 387.554 234.298, 386.536 234.439, 384.120 237.832 M 207.107 239.849 C 205.931 241.501, 201.938 245.216, 198.234 248.104 C 194.530 250.993, 190.280 254.469, 188.788 255.829 L 186.076 258.301 188.538 261.227 C 191.409 264.639, 191.556 265.728, 189.462 268.042 C 188.049 269.604, 188.354 270.018, 193.212 273.119 C 201.338 278.307, 217.347 291.455, 220.378 295.429 C 226.937 304.028, 228.675 313.727, 225.388 323.376 C 224.501 325.979, 223.981 328.314, 224.232 328.565 C 225.264 329.597, 227.999 318.369, 227.991 313.135 C 227.982 307.819, 226.740 302.521, 217.528 268.500 C 215.592 261.350, 213.268 251.675, 212.364 247 C 211.460 242.325, 210.389 238.128, 209.983 237.673 C 209.578 237.218, 208.284 238.197, 207.107 239.849 M 184.500 240.051 C 179.550 241.097, 174.040 242.630, 172.256 243.458 C 169.679 244.653, 168.488 244.724, 166.469 243.804 C 164.374 242.849, 163.632 242.940, 162.256 244.316 C 160.938 245.633, 160.844 246.244, 161.810 247.210 C 162.776 248.176, 166.251 247.656, 178.267 244.748 C 186.645 242.720, 194.738 240.813, 196.250 240.511 C 197.762 240.209, 199 239.520, 199 238.981 C 199 237.569, 194.765 237.882, 184.500 240.051 M 280.989 240.319 C 280.491 241.519, 278.243 246.915, 275.994 252.311 C 273.745 257.707, 270.618 265.582, 269.044 269.811 C 267.471 274.040, 264.006 282.450, 261.344 288.500 L 256.504 299.500 256.502 322.555 L 256.500 345.610 253.500 347.571 C 243.980 353.794, 251.148 368.401, 264.793 370.583 C 267.086 370.950, 269.476 371.868, 270.104 372.625 C 271.041 373.755, 270.492 374, 267.024 374 C 262.210 374, 256.368 371.561, 254.670 368.844 C 251.092 363.114, 248.202 371.622, 251.536 378.069 C 253.379 381.633, 259.984 386.618, 264.046 387.510 C 267.090 388.179, 269.106 390, 266.802 390 C 263.297 390, 258.343 387.726, 255.812 384.955 C 254.267 383.264, 252.552 382.159, 252.002 382.499 C 248.888 384.423, 253.082 392.976, 258.768 396.297 C 263.409 399.007, 281.347 401.450, 286.197 400.032 C 293.168 397.994, 298.980 387.835, 299.221 377.268 C 299.307 373.504, 298.721 371.483, 296.666 368.459 C 295.200 366.301, 294 363.582, 294 362.417 C 294 357.606, 291.504 353.958, 282.712 345.921 C 273.716 337.698, 273.500 337.395, 273.500 333.014 C 273.500 329.398, 273.131 328.456, 271.596 328.161 C 269.828 327.820, 269.736 328.274, 270.319 334.513 C 271.024 342.059, 273.672 347.426, 279.415 352.946 C 281.387 354.842, 283 356.819, 283 357.341 C 283 358.779, 271.133 357.385, 265.449 355.279 L 260.500 353.445 259.868 345.972 C 259.521 341.863, 258.896 329.879, 258.480 319.342 C 257.744 300.693, 257.782 300.089, 259.918 296.633 C 262.487 292.476, 270.559 285.899, 284.487 276.615 C 293.823 270.391, 294.453 269.760, 294.156 266.926 C 293.806 263.587, 296.269 259, 298.412 259 C 299.164 259, 300.841 259.900, 302.139 260.999 C 304.456 262.961, 304.464 263.027, 302.559 264.499 C 300.436 266.140, 298.737 264.849, 299.704 262.329 C 300.052 261.422, 299.705 261.176, 298.649 261.581 C 296.591 262.371, 295.503 265.903, 296.891 267.291 C 298.175 268.575, 304.742 265.835, 305.574 263.667 C 305.875 262.883, 301.095 257.340, 293.990 250.235 C 282.813 239.058, 281.825 238.304, 280.989 240.319 M 127.077 240.405 C 124.825 243.122, 124.511 252.209, 126.463 258.178 C 128.489 264.372, 136.104 280.658, 138.303 283.500 C 139.553 285.115, 139.495 284.442, 138.004 280 C 135.071 271.263, 130.045 250.928, 129.238 244.536 C 128.577 239.298, 128.352 238.867, 127.077 240.405 M 176 253.927 C 161.925 258.647, 160.998 259.103, 159.470 262.059 C 157.737 265.409, 157.423 282.053, 159.035 285.066 C 159.962 286.798, 161.218 287, 171.035 287 L 182 287 182 279.394 C 182 272.472, 181.775 271.611, 179.500 269.821 C 175.026 266.302, 176.063 262.959, 183.500 256.925 C 187.075 254.024, 190 251.504, 190 251.325 C 190 250.233, 183.307 251.476, 176 253.927 M 181.247 262.153 C 179.549 263.851, 181.577 267, 184.369 267 C 187.822 267, 188.259 265.904, 185.835 263.324 C 183.347 260.676, 182.851 260.549, 181.247 262.153 M 394.634 271.659 C 393.058 275.971, 390.480 281.788, 388.905 284.585 C 385.541 290.559, 377.019 298.929, 371.360 301.816 C 369.163 302.937, 366.779 304.562, 366.061 305.427 C 364.917 306.805, 365.173 306.997, 368.128 306.978 C 375.057 306.933, 385.770 300.083, 390.809 292.474 C 395.879 284.821, 398.128 277.664, 397.792 270.258 L 397.500 263.818 394.634 271.659 M 116.358 281.029 C 117.158 294.907, 127.798 306.712, 138.697 305.814 L 142.500 305.500 135.869 301.768 C 126.366 296.419, 122.253 291.344, 117.862 279.551 L 115.982 274.500 116.358 281.029 M 342 277.440 C 339.525 278.690, 333.341 280.727, 328.259 281.966 C 323.176 283.205, 319.265 284.620, 319.568 285.110 C 319.870 285.599, 324.975 286, 330.911 286 C 340.569 286, 342.062 285.755, 345.102 283.673 C 347.615 281.953, 348.427 280.721, 348.221 278.945 C 347.789 275.221, 346.846 274.993, 342 277.440 M 163.839 291.742 C 159.283 291.943, 155.754 292.592, 155.131 293.342 C 154.295 294.349, 157.140 294.529, 169.293 294.236 C 185.453 293.848, 187 293.655, 187 292.031 C 187 291.026, 181.552 290.957, 163.839 291.742 M 287.932 293.127 C 287.306 294.297, 286.558 298.693, 286.270 302.896 C 285.826 309.370, 286.093 311.345, 288.014 315.812 C 290.665 321.974, 293.119 324, 297.929 324 C 300.898 324, 302.346 323.045, 307.707 317.550 C 311.168 314.003, 314 310.628, 314 310.050 C 314 309.381, 310.040 309, 303.071 309 C 289.151 309, 288.649 308.615, 289.169 298.328 C 289.372 294.298, 289.433 291, 289.305 291 C 289.176 291, 288.558 291.957, 287.932 293.127 M 294.750 292.070 C 293.788 292.636, 293 293.415, 292.999 293.800 C 292.999 294.185, 304.699 294.366, 318.999 294.203 C 336.639 294.001, 345 294.242, 345 294.953 C 345 296.249, 347.190 296.157, 317.750 296.089 C 293.713 296.033, 293 296.089, 293 298.016 C 293 299.878, 293.697 300, 304.341 300 C 310.579 300, 322.531 300.296, 330.902 300.659 L 346.123 301.318 345.811 296.409 L 345.500 291.500 321 291.271 C 305.586 291.127, 295.851 291.423, 294.750 292.070 M 167.750 295.748 L 154 296.056 154 298.528 L 154 301 166.250 300.942 C 182.402 300.866, 186.404 300.145, 186.820 297.237 C 187.091 295.335, 186.717 295.033, 184.320 295.219 C 182.769 295.340, 175.313 295.578, 167.750 295.748 M 110 304.815 C 110 309.434, 113.728 316.691, 117.630 319.667 C 120.166 321.601, 122.178 322.231, 125.822 322.231 C 130.512 322.231, 137 319.828, 137 318.091 C 137 317.619, 134.127 317.050, 130.617 316.827 C 122.757 316.326, 117.240 313.025, 112.947 306.255 L 110 301.608 110 304.815 M 168.581 302.940 C 158.748 303.336, 154.540 303.867, 154.248 304.750 C 153.776 306.174, 154.516 306.230, 171 306.021 C 183.723 305.860, 187.271 305.320, 186.715 303.631 C 186.263 302.254, 185.944 302.242, 168.581 302.940 M 293.316 303.298 C 293.032 303.757, 292.973 304.307, 293.186 304.519 C 293.398 304.731, 305.368 305.221, 319.786 305.608 C 343.801 306.253, 346 306.173, 346 304.656 C 346 303.182, 343.942 302.975, 327.250 302.769 C 296.389 302.388, 293.854 302.427, 293.316 303.298 M 404.296 304.220 C 402.608 307.966, 396.397 314.631, 391.371 318.089 C 385.790 321.929, 376.125 324.396, 370.165 323.502 C 365.902 322.863, 365.699 322.932, 367.052 324.568 C 371.805 330.310, 383.544 331.569, 392.071 327.250 C 400.183 323.141, 406.736 312.146, 405.809 304.198 L 405.500 301.548 404.296 304.220 M 166.606 315.537 C 164.830 317.312, 164.483 322.165, 165.937 324.882 C 166.452 325.844, 167.419 330.652, 168.085 335.566 C 168.751 340.480, 169.713 345.036, 170.221 345.691 C 171.688 347.579, 174.255 346.027, 173.665 343.609 C 171.071 332.960, 170.339 327.661, 170.742 322.460 C 171.097 317.880, 170.847 316.118, 169.711 315.175 C 168.499 314.169, 167.905 314.238, 166.606 315.537 M 330.571 315.571 C 327.820 318.323, 329.205 326, 332.453 326 C 333.467 326, 333.924 327.869, 334.168 333.002 C 334.351 336.853, 334.163 340.003, 333.750 340.002 C 333.337 340.001, 333 341.575, 333 343.500 C 333 345.881, 333.461 347, 334.441 347 C 337.007 347, 337.476 344.719, 337.627 331.500 C 337.738 321.828, 337.415 317.924, 336.365 316.250 C 334.710 313.611, 332.761 313.382, 330.571 315.571 M 101.076 319.800 C 101.034 322.164, 101.687 325.427, 102.526 327.050 C 103.851 329.612, 104.607 330, 108.276 329.996 L 112.500 329.993 109.314 328.050 C 106.056 326.064, 104.400 323.800, 102.326 318.500 L 101.152 315.500 101.076 319.800 M 332.015 319.750 C 332.024 320.712, 332.411 322.100, 332.876 322.834 C 333.557 323.908, 333.840 323.859, 334.329 322.584 C 335.039 320.734, 334.183 318, 332.893 318 C 332.402 318, 332.007 318.788, 332.015 319.750 M 168.195 321.500 C 168.215 323.150, 168.439 323.704, 168.693 322.731 C 168.947 321.758, 168.930 320.408, 168.656 319.731 C 168.382 319.054, 168.175 319.850, 168.195 321.500 M 206.581 323.562 C 204.745 325.398, 204.581 327.349, 206.035 330.066 C 206.849 331.587, 206.743 332, 205.538 332 C 204.696 332, 201.837 334.137, 199.186 336.750 C 196.534 339.363, 192.270 343.209, 189.708 345.297 C 186.224 348.139, 184.789 350.153, 184.009 353.297 C 183.435 355.609, 181.849 359.872, 180.483 362.772 C 177.019 370.127, 177.151 376.702, 180.923 384.676 C 182.530 388.073, 185.022 391.624, 186.461 392.567 C 190.369 395.127, 199.709 397.061, 202.691 395.928 C 204.053 395.410, 208.184 394.300, 211.872 393.461 C 223.305 390.861, 228.219 386.335, 225.986 380.462 L 225.021 377.925 222.117 380.072 C 219.428 382.060, 210.224 384.557, 209.234 383.567 C 208.399 382.732, 210.133 381, 211.809 380.994 C 215.645 380.982, 221.268 378.704, 224.527 375.842 C 228.311 372.520, 228.962 369.059, 226.912 363.177 L 225.824 360.056 223.203 363.170 C 219.849 367.157, 213.683 369.950, 208.177 369.978 C 204.594 369.996, 203.911 369.701, 204.190 368.253 C 204.444 366.934, 205.965 366.325, 210.385 365.773 C 217.939 364.830, 221.730 362.566, 225.750 356.598 C 230.585 349.421, 230.210 343.718, 224.445 336.785 C 221.884 333.705, 221 334.645, 221 340.447 C 221 347.033, 215.206 350.506, 200.821 352.543 C 193.299 353.608, 193.145 352.417, 199.917 345.583 C 204.036 341.428, 206.685 337.704, 208.018 334.194 C 211.164 325.914, 210.338 319.805, 206.581 323.562 M 408.058 328.751 C 404.645 336.521, 399.572 342.928, 390.679 350.699 C 386.478 354.370, 383.200 357.534, 383.396 357.729 C 384.063 358.397, 394.974 353.124, 400.456 349.485 C 403.465 347.488, 406.860 344.344, 408.001 342.498 C 410.490 338.471, 412.443 328.350, 411.312 325.345 C 410.598 323.451, 410.205 323.863, 408.058 328.751 M 125.339 333.466 C 114.855 336.176, 113.726 336.693, 105.371 342.597 C 97.997 347.808, 95.771 351.389, 102.270 347.585 C 104.596 346.223, 111.217 343.240, 116.982 340.957 C 129.711 335.914, 135 333.279, 135 331.980 C 135 331.441, 134.887 331.022, 134.750 331.049 C 134.613 331.076, 130.377 332.164, 125.339 333.466 M 354.004 353.470 C 353.287 359.280, 352.975 364.308, 353.310 364.644 C 353.646 364.979, 353.250 366.551, 352.430 368.136 C 350.472 371.922, 352.071 375.484, 355.336 374.608 C 356.526 374.289, 359.245 374.021, 361.378 374.014 L 365.256 374 364.623 370.042 C 363.862 365.284, 357.265 344.865, 356.118 343.718 C 355.672 343.272, 354.720 347.660, 354.004 353.470 M 151.605 352 C 149.894 359.265, 149.166 363.460, 149.518 364.029 C 150.181 365.102, 156.001 363.849, 155.985 362.637 C 155.977 362.011, 155.121 358.800, 154.082 355.500 C 152.476 350.397, 152.106 349.874, 151.605 352 M 104.500 361.409 C 101.750 362.090, 97.475 363.687, 95 364.957 C 89.834 367.608, 82.677 373.010, 83.388 373.722 C 83.652 373.986, 85.380 373.049, 87.227 371.641 C 95.499 365.331, 110.254 361.187, 120.375 362.330 C 125.176 362.872, 125.342 362.819, 123 361.490 C 119.963 359.766, 111.285 359.728, 104.500 361.409 M 396 361.656 C 393.525 362.514, 391.425 363.280, 391.333 363.358 C 391.242 363.436, 395.742 363.500, 401.333 363.500 C 410.768 363.500, 411.968 363.732, 418 366.717 C 421.575 368.486, 425.625 370.709, 427 371.656 C 428.579 372.744, 428.027 371.791, 425.500 369.069 C 417.751 360.723, 406.699 357.946, 396 361.656 M 162.328 368.622 C 159.606 372.777, 159.444 381.508, 161.965 388.208 C 164.077 393.823, 168.688 399, 171.577 399 C 173.526 399, 173.382 398.371, 170.589 394.683 C 166.742 389.604, 164.640 380.778, 165.381 372.811 C 166.066 365.438, 165.196 364.245, 162.328 368.622 M 154.789 369.363 C 151.914 371.548, 150.790 376.040, 151.482 382.588 C 152.258 389.944, 155.912 398.241, 159.375 400.510 C 163.221 403.030, 164.250 401.457, 161.452 397.334 C 160.105 395.350, 158.487 391.875, 157.857 389.613 C 156.532 384.858, 156.236 374.752, 157.304 370.750 C 158.106 367.744, 157.419 367.365, 154.789 369.363 M 145.405 372.105 C 143.870 373.801, 143.510 375.695, 143.549 381.855 C 143.576 386.060, 144.175 391.484, 144.880 393.908 C 146.444 399.286, 150.899 404, 154.416 404 L 156.987 404 153.660 399.642 C 149.484 394.171, 147.480 385.475, 148.320 376.474 C 148.965 369.565, 148.430 368.762, 145.405 372.105 M 410.811 372.528 C 413.732 373.855, 418.232 376.359, 420.811 378.093 C 423.799 380.103, 424.836 380.505, 423.668 379.204 C 421.574 376.870, 408.892 369.971, 406.854 370.058 C 406.109 370.089, 407.890 371.201, 410.811 372.528 M 97.852 374.016 C 94.233 375.928, 87 383.469, 87 385.330 C 87 385.864, 88.331 384.463, 89.958 382.217 C 91.585 379.971, 94.960 376.936, 97.458 375.472 C 99.956 374.008, 102 372.628, 102 372.405 C 102 371.836, 101.918 371.867, 97.852 374.016 M 314.783 382.750 C 314.267 394.457, 312.717 399.547, 308.197 404.389 L 305.500 407.277 308.948 406.624 C 316.457 405.201, 319.086 401.480, 320.987 389.581 C 321.735 384.896, 321.739 381.745, 321 379 C 319.982 375.221, 317.708 372, 316.057 372 C 315.617 372, 315.044 376.837, 314.783 382.750 M 323.509 374.750 C 326.935 383.047, 326.278 395.184, 321.938 403.789 C 320.374 406.890, 319.226 409.559, 319.388 409.721 C 320.354 410.687, 326.817 404.836, 328.483 401.487 C 331.336 395.752, 331.410 378.229, 328.595 375.110 C 326.194 372.451, 322.450 372.186, 323.509 374.750 M 333.215 375.250 C 334.059 376.728, 334.480 381.272, 334.441 388.500 C 334.375 400.574, 332.934 405.333, 328.220 409.041 C 325.271 411.361, 325.828 412.511, 329.461 411.599 C 333.593 410.562, 338.015 405.895, 339.029 401.500 C 340.269 396.126, 340.230 384.369, 338.957 379.784 C 337.813 375.666, 335.627 373, 333.393 373 C 332.161 373, 332.133 373.356, 333.215 375.250 M 101.151 378.346 C 98.079 381.477, 96.338 384.453, 94.925 388.994 C 92.841 395.690, 92.883 398.110, 94.995 393.012 C 96.733 388.816, 101.535 385, 105.077 385 C 108.408 385, 108.854 386.882, 106.500 391 C 103.983 395.403, 104.896 395.482, 108.578 391.180 C 113.361 385.592, 116.901 385.579, 113.914 391.160 C 112.934 392.991, 113.056 393.119, 115.164 392.465 C 116.449 392.067, 119.525 390.739, 122 389.514 C 127.381 386.850, 132 385.621, 132 386.854 C 132 388.200, 123.870 395.206, 119.422 397.692 L 115.500 399.885 119.500 399.321 C 124.651 398.594, 131.819 395.506, 134.866 392.701 C 137.946 389.866, 140 384.998, 140 380.532 L 140 377 132.750 376.999 C 128.762 376.998, 121.675 376.323, 117 375.500 C 112.325 374.677, 107.806 374.002, 106.958 374.001 C 106.110 374.001, 103.497 375.956, 101.151 378.346 M 388.507 378.603 C 377.011 382.054, 359.959 384.363, 351.316 383.639 L 344.132 383.037 344.668 386.768 C 346.226 397.625, 348.532 401.150, 356.539 404.913 C 363.705 408.282, 364.811 407.603, 360.240 402.644 C 358.032 400.249, 355.708 397.324, 355.077 396.144 C 353.982 394.098, 354.138 394, 358.465 394 C 362.333 394, 363 393.706, 363 392 C 363 389.056, 364.141 389.628, 367.500 394.255 C 370.685 398.643, 374.635 401.401, 379.427 402.583 C 382.226 403.274, 382.149 403.110, 377.677 398.824 C 371.702 393.099, 371.645 391.513, 377.509 394.107 C 381.632 395.931, 382.207 395.969, 384.231 394.551 C 385.449 393.698, 388.257 392.995, 390.473 392.989 C 392.688 392.983, 396.177 392.701, 398.228 392.362 L 401.955 391.746 399.978 388.968 C 396.278 383.773, 397.998 383.589, 404.423 388.493 C 406.941 390.415, 409 391.732, 409 391.421 C 409 391.111, 407.832 388.864, 406.405 386.428 C 403.546 381.550, 404.221 381.047, 409.790 383.903 C 414.532 386.335, 417.207 389.260, 420.394 395.500 C 423.614 401.803, 423.801 399.233, 420.613 392.500 C 417.734 386.420, 413.194 381.984, 406.355 378.569 C 400.202 375.497, 398.843 375.500, 388.507 378.603 M 166.667 406.667 C 165.518 407.815, 165.940 412.705, 167.284 413.820 C 169.614 415.755, 171.329 413.569, 170.587 409.610 C 169.963 406.286, 168.298 405.036, 166.667 406.667 M 314.011 414.180 C 314.017 414.906, 314.301 417.188, 314.642 419.250 C 315.108 422.069, 315.739 423, 317.186 423 C 318.857 423, 319.070 422.376, 318.805 418.250 C 318.545 414.197, 318.170 413.453, 316.250 413.180 C 314.888 412.987, 314.004 413.382, 314.011 414.180 M 159 440.941 C 159 442.163, 171.572 448.446, 176.250 449.561 C 181.769 450.877, 178.946 447.862, 171.470 444.455 C 162.361 440.304, 159 439.357, 159 440.941 M 325.500 450.202 C 302.729 454.498, 302 454.712, 302 457.106 C 302 458.569, 302.488 458.990, 303.750 458.617 C 304.712 458.332, 310.675 457.141, 317 455.970 C 335.414 452.559, 345.793 449.954, 347.063 448.424 C 348.832 446.292, 344.196 446.674, 325.500 450.202" stroke="none" fill="black" fill-rule="evenodd"/>
</svg>