<?xml version="1.0" encoding="UTF-8"?>
<svg version="1.1" xmlns="http://www.w3.org/2000/svg" width="510" height="51">
<path d="M0 0 C25.22547055 6.46654926 51.42960983 6.150947 76.421875 -1.4765625 C84.19575608 -3.53646186 92.95529325 -3.71386804 100.375 -0.375 C107.27908368 3.7078136 111.00681662 9.60767352 113.22265625 17.19921875 C116.68095423 31.42175548 116.68095423 31.42175548 115.8125 37.625 C113.36651113 41.00621991 111.91953441 42.39436783 107.8125 43.25 C103.6755014 42.38812529 102.45243409 40.9207139 99.8125 37.625 C98.69581472 34.47517245 98.12067705 31.28925761 97.5625 28 C97.24584977 26.29928182 96.92818403 24.59875232 96.609375 22.8984375 C96.47885742 22.14997559 96.34833984 21.40151367 96.21386719 20.63037109 C95.81685361 18.43156859 95.81685361 18.43156859 94.8125 15.625 C87.989653 13.35071767 81.82668875 14.71927607 75.0625 16.5 C47.68941998 23.68480104 17.19057971 23.73892343 -10.0390625 15.5078125 C-12.85307109 14.71877287 -15.03969831 14.38098259 -17.9375 14.4375 C-18.67484375 14.44394531 -19.4121875 14.45039063 -20.171875 14.45703125 C-22.39292276 14.56216782 -22.39292276 14.56216782 -25.1875 15.625 C-26.12919512 17.87951501 -26.12919512 17.87951501 -26.69262695 20.70483398 C-26.94058014 21.79746552 -27.18853333 22.89009705 -27.44400024 24.01583862 C-28.76786443 30.44225567 -29.96171576 36.88741905 -31.10546875 43.34765625 C-31.36993839 44.8255262 -31.63469915 46.30334407 -31.8997345 47.78111267 C-32.44933622 50.85060872 -32.99614855 53.92058354 -33.54077148 56.9909668 C-34.23888017 60.92589171 -34.9430424 64.85970422 -35.64911938 68.79320621 C-36.19414941 71.8322559 -36.73656761 74.87176698 -37.27813148 77.91143608 C-37.5370102 79.3632364 -37.7965759 80.81491439 -38.05684471 82.26646614 C-38.41832486 84.28534997 -38.77641377 86.30480585 -39.13354492 88.32446289 C-39.33767502 89.4718544 -39.54180511 90.61924591 -39.75212097 91.80140686 C-40.26369615 94.64299967 -40.26369615 94.64299967 -40.1875 97.625 C-2.80131766 118.13267475 49.33663004 116.86255756 89.8125 106.625 C96.92155045 104.53152696 103.54141909 101.56265545 109.8125 97.625 C109.41017195 93.19939143 108.87680773 88.85332444 108.04296875 84.48828125 C107.83377808 83.38214478 107.83377808 83.38214478 107.62036133 82.25366211 C107.33680466 80.77734422 107.04400465 79.30276478 106.7409668 77.83032227 C105.76334981 72.71477491 105.01879586 67.3155562 108.0625 62.75 C110.43314996 61.22601074 111.97879587 60.75680019 114.8125 60.625 C117.9375 61.375 117.9375 61.375 120.8125 63.625 C121.5078125 66.13671875 121.5078125 66.13671875 122.0625 69.0625 C122.91207102 73.10334386 122.91207102 73.10334386 125.6171875 75.98828125 C128.31455883 77.01909487 131.04074571 77.81375484 133.8125 78.625 C146.27782049 83.12811275 158.06865216 88.12638167 166.98803711 98.27392578 C167.70519394 99.08773712 168.42235077 99.90154846 169.16123962 100.74002075 C169.97861351 101.67308548 169.97861351 101.67308548 170.8125 102.625 C170.81836624 101.47099197 170.82423248 100.31698395 170.83027649 99.12800598 C170.8874818 88.25419513 170.96023208 77.38058469 171.04821491 66.50697803 C171.09294823 60.91669467 171.13219796 55.32648468 171.15893555 49.73608398 C171.18493877 44.34134151 171.22532036 38.94688097 171.27568626 33.55231285 C171.2923751 31.49386793 171.3038768 29.43537423 171.31011391 27.37687111 C171.31973293 24.49419197 171.34776625 21.61223741 171.38012695 18.72973633 C171.37869186 17.87809402 171.37725677 17.02645172 171.3757782 16.14900208 C171.44960319 11.5010518 171.78915686 8.39657907 174.8125 4.625 C177.90423752 3.07913124 180.40679552 3.33140479 183.8125 3.625 C186.0234375 5.06640625 186.0234375 5.06640625 187.8125 7.625 C188.29802189 10.72386036 188.18952474 13.74823723 188.0625 16.875 C188.04445313 17.71546875 188.02640625 18.5559375 188.0078125 19.421875 C187.96080798 21.49007395 187.88906724 23.55768441 187.8125 25.625 C188.75351562 25.57859375 189.69453125 25.5321875 190.6640625 25.484375 C200.8746526 25.18841587 200.8746526 25.18841587 205.4375 27.3125 C211.36881922 33.08773187 213.86650871 37.74909877 214.0640564 46.10064697 C214.07538038 48.33562434 214.07588413 50.57067237 214.06787109 52.80566406 C214.07330177 54.6409391 214.07330177 54.6409391 214.07884216 56.51329041 C214.08572868 59.1668207 214.08912883 61.8200968 214.08689499 64.47360992 C214.08405052 68.67752397 214.09845704 72.88127149 214.11587524 77.08514404 C214.16279093 89.03671773 214.18682985 100.98827967 214.19335938 112.93994141 C214.19712127 119.54703489 214.21524073 126.1539393 214.24845374 132.76095176 C214.26856575 136.93141055 214.27108857 141.10137826 214.26017356 145.27186537 C214.25693205 148.49023743 214.27970493 151.70844947 214.29833984 154.92675781 C214.29016739 156.06892258 214.28199493 157.21108734 214.27357483 158.38786316 C214.38358236 169.10342081 217.93748066 176.80756922 223.8125 185.5625 C231.13090891 196.96089525 233.54162647 207.29754993 234.8125 220.625 C248.54521308 213.36513297 261.32429647 205.30148868 273.5546875 195.7109375 C274.13887451 195.25332031 274.72306152 194.79570312 275.32495117 194.32421875 C276.88621474 193.08995354 278.43391506 191.83858518 279.98046875 190.5859375 C284.8909587 187.18584653 289.07204881 186.1183109 294.87109375 187.09765625 C300.59315805 188.65193931 304.02476241 192.77581146 307.67578125 197.140625 C309.36197342 199.10117019 311.07668542 200.98513411 312.85546875 202.859375 C313.39349121 203.42857666 313.93151367 203.99777832 314.48583984 204.58422852 C315.56043097 205.71723874 316.6400297 206.8455251 317.72509766 207.96850586 C322.4646922 212.99792072 323.99181686 216.57325466 324.17578125 223.46484375 C323.17421172 229.42041313 319.71557988 233.09018685 315.1875 236.75 C314.62264893 237.21591553 314.05779785 237.68183105 313.47583008 238.16186523 C292.42780293 255.24189159 268.42056763 269.95630063 243.625 280.875 C242.97208984 281.16270264 242.31917969 281.45040527 241.64648438 281.74682617 C238.8523882 282.93070788 236.88182672 283.625 233.8125 283.625 C233.8125 288.905 233.8125 294.185 233.8125 299.625 C235.18921875 299.96917969 236.5659375 300.31335938 237.984375 300.66796875 C246.52732795 303.00346213 254.85681245 305.97879273 263.20214844 308.93041992 C265.11375149 309.60346214 267.02785173 310.26945211 268.94433594 310.9284668 C271.74455145 311.89142927 274.53678141 312.87493785 277.328125 313.86328125 C278.17618713 314.15100906 279.02424927 314.43873688 279.89801025 314.73518372 C285.75800279 316.84793547 291.89899833 319.79799666 294.8125 325.625 C295.86198219 332.5595532 294.51757831 338.48223573 292.125 344.9375 C291.75942993 345.94127686 291.75942993 345.94127686 291.38647461 346.96533203 C289.21127622 352.48059667 286.44423023 357.27989344 281 360.0625 C272.49427032 361.56351112 264.86265599 358.02721375 257.05859375 355.06445312 C250.60115673 352.58068396 250.60115673 352.58068396 243.8125 352.625 C241.00413472 354.10283418 238.39773078 355.78778016 235.8125 357.625 C242.02261059 377.55765434 248.35026881 397.45087022 254.7527771 417.3225708 C265.92806933 452.01114307 265.92806933 452.01114307 270.375 466.25 C270.902146 467.92521729 270.902146 467.92521729 271.43994141 469.63427734 C275.51863962 482.79513144 275.51863962 482.79513144 273.6875 488.25 C273.45804687 488.98476563 273.22859375 489.71953125 272.9921875 490.4765625 C270.44289046 495.11932202 266.75280913 496.79231848 261.8828125 498.3359375 C259.90445958 498.90269456 257.9225063 499.45700473 255.9375 500 C255.00808594 500.26554687 254.07867187 500.53109375 253.12109375 500.8046875 C251.05112751 501.38914856 248.97495423 501.95189754 246.89433002 502.49720287 C243.99814864 503.2713431 241.1619595 504.16107803 238.31650829 505.10378742 C221.208396 510.48815381 204.52252153 510.48565153 186.79887998 510.39468896 C182.40973951 510.37884258 178.02071805 510.39805924 173.6315918 510.41249084 C165.06868985 510.4351491 156.50611725 510.425948 147.94322238 510.40498998 C140.98208462 510.38862401 134.02103599 510.38452634 127.05988121 510.38895607 C125.56689451 510.38990208 125.56689451 510.38990208 124.04374647 510.39086721 C122.0211335 510.3922134 119.99852056 510.39359298 117.97590765 510.39500556 C99.07657605 510.4069007 80.17742415 510.38297819 61.27813341 510.34598748 C45.08208746 510.3150482 28.88624744 510.31275425 12.69018555 510.33178711 C-6.16423241 510.35391873 -25.01853523 510.36003003 -43.87295896 510.33946449 C-45.8842575 510.33730173 -47.89555606 510.33515263 -49.90685463 510.33301735 C-50.89622517 510.33195098 -51.88559572 510.33088462 -52.90494719 510.32978594 C-59.85865689 510.32333112 -66.81230704 510.32806561 -73.76601219 510.33704185 C-82.23796393 510.34759602 -90.70967435 510.34001545 -99.18158164 510.30958607 C-103.49919445 510.29450237 -107.81642691 510.28723559 -112.13405037 510.30177689 C-116.09209423 510.31486686 -120.04938722 510.30456864 -124.00734488 510.27621815 C-125.43282565 510.26997968 -126.85837384 510.2719999 -128.28382196 510.28348859 C-140.93606395 510.37705927 -151.03302876 507.6736295 -160.28515625 498.72265625 C-170.52836603 487.42778222 -170.69229569 474.79594874 -170.08968735 460.26667404 C-169.78949236 454.21372388 -169.38718793 448.1676556 -168.98046875 442.12109375 C-168.85296069 440.18450543 -168.72562972 438.24790545 -168.59846497 436.31129456 C-168.33231974 432.27961762 -168.06192237 428.24825225 -167.78881836 424.21704102 C-167.4422679 419.09216527 -167.1097319 413.96648602 -166.78080273 408.84045315 C-166.52256189 404.84960686 -166.25513132 400.85941355 -165.98522377 396.8693409 C-165.8588857 394.98122115 -165.73567126 393.0928893 -165.61586571 391.2043438 C-163.97642143 365.52130108 -158.68703164 343.4246477 -141.1875 323.625 C-140.65769531 322.99980469 -140.12789062 322.37460937 -139.58203125 321.73046875 C-127.55658742 308.5303029 -108.94521441 299.97821781 -91.375 298.25 C-88.1875 298.625 -88.1875 298.625 -85.8125 300.375 C-84.16740828 302.6528193 -83.35650612 303.83639899 -83.1875 306.625 C-84.27386257 310.67416957 -85.65954459 312.43907414 -89.1875 314.625 C-91.4800442 315.28240028 -93.79696842 315.8571168 -96.125 316.375 C-114.06131884 320.77864533 -128.62107077 332.16880327 -138.1640625 347.87890625 C-146.20472409 362.91665421 -147.87958302 378.46638275 -148.890625 395.19921875 C-149.01827424 397.14068605 -149.14710267 399.08207613 -149.27703857 401.02339172 C-149.54446921 405.0626877 -149.80251631 409.10242405 -150.05273438 413.14282227 C-150.37141514 418.28738595 -150.70654563 423.43070148 -151.04784012 428.57380962 C-151.3761344 433.53191285 -151.6961691 438.49053955 -152.015625 443.44921875 C-152.07600197 444.37582495 -152.13637894 445.30243114 -152.19858551 446.25711632 C-154.82958735 467.39921901 -154.82958735 467.39921901 -148.1875 486.625 C-142.14373262 492.98370315 -133.59331812 493.79083507 -125.22166443 494.00405884 C-124.4150386 494.01561005 -123.60841278 494.02716125 -122.77734375 494.0390625 C-121.92443253 494.05842865 -121.0715213 494.0777948 -120.19276428 494.0977478 C-117.50360706 494.15690102 -114.8144055 494.20366838 -112.125 494.25 C-110.28709206 494.28823911 -108.4492009 494.32729417 -106.61132812 494.3671875 C-102.1368572 494.4625485 -97.66230262 494.54681253 -93.1875 494.625 C-93.20200195 494.0789209 -93.21650391 493.5328418 -93.23144531 492.97021484 C-93.3581908 483.66528535 -92.74769405 474.40447002 -92.12548828 465.12548828 C-91.9994929 463.19824991 -91.88140988 461.27047896 -91.77099609 459.34228516 C-91.60973799 456.53144707 -91.42473563 453.72306176 -91.234375 450.9140625 C-91.1893988 450.0556778 -91.14442261 449.19729309 -91.0980835 448.31289673 C-90.72248963 443.25351956 -90.02545122 440.27915175 -86.1875 436.625 C-83.4106977 435.70301486 -81.01519832 435.94125328 -78.1875 436.625 C-75.6875 438.375 -75.6875 438.375 -74.1875 441.625 C-74.1875 459.31994592 -75.89620003 476.9772337 -77.1875 494.625 C-42.8675 494.625 -8.5475 494.625 26.8125 494.625 C28.70557381 467.80176488 28.70557381 467.80176488 19.75 457.75 C17.12017396 455.67390729 17.12017396 455.67390729 14.40283203 453.71679688 C12.34494855 452.30401595 10.53170048 450.67864595 8.6875 449 C7.77097656 448.22269531 7.77097656 448.22269531 6.8359375 447.4296875 C3.71457569 444.64577021 0.81228177 441.64517656 -2.1237793 438.66918945 C-4.70788459 436.06362818 -7.32967946 433.56439418 -10.125 431.1875 C-13.664291 428.17147173 -16.92244445 424.93052099 -20.1875 421.625 C-23.43201876 418.34032009 -26.66672358 415.11765996 -30.1875 412.125 C-34.27624765 408.6495645 -37.99566684 404.84399763 -41.76342773 401.02954102 C-44.50953839 398.26260348 -47.28051133 395.59296775 -50.25 393.0625 C-67.31072893 378.36733432 -67.31072893 378.36733432 -68.1875 370.625 C-68.52373305 359.28155853 -61.75400625 352.7344997 -54.87695312 344.45898438 C-48.33055413 336.52777094 -48.33055413 336.52777094 -46.1875 326.625 C-48.14375193 321.63248204 -51.08481149 318.45970942 -55.0625 315 C-55.83787109 314.30390625 -55.83787109 314.30390625 -56.62890625 313.59375 C-59.01530554 311.46582721 -61.44176887 309.42624053 -63.9609375 307.45703125 C-67.94768023 304.17671135 -69.25907117 300.21587394 -70.0625 295.25 C-70.48693349 289.49120928 -69.39037868 285.29134147 -65.68359375 280.8046875 C-58.45352859 273.82292761 -49.39817241 268.74921281 -40.95263672 263.38769531 C-36.25935215 260.39586108 -31.60033918 257.3514732 -26.9375 254.3125 C-25.24494467 253.21200423 -23.55225078 252.11172151 -21.859375 251.01171875 C-21.1487793 250.54983154 -20.43818359 250.08794434 -19.70605469 249.61206055 C-19.20493164 249.28633057 -18.70380859 248.96060059 -18.1875 248.625 C-20.61581035 246.17512383 -23.05158047 243.75094175 -25.58203125 241.40625 C-39.06268849 228.68782701 -46.2198655 212.74445942 -49.1875 194.625 C-49.1875 193.635 -49.1875 192.645 -49.1875 191.625 C-49.868125 191.563125 -50.54875 191.50125 -51.25 191.4375 C-58.89235389 189.32365743 -62.27641351 184.52204521 -66.0234375 177.9296875 C-67.93906992 174.13699244 -68.30735486 171.27756768 -68.28515625 167.08203125 C-68.28032227 165.47231445 -68.28032227 165.47231445 -68.27539062 163.83007812 C-68.26282227 162.15075195 -68.26282227 162.15075195 -68.25 160.4375 C-68.24548828 159.30634766 -68.24097656 158.17519531 -68.23632812 157.00976562 C-68.22453498 154.21479073 -68.2080765 151.4199218 -68.1875 148.625 C-68.76830322 148.44469238 -69.34910645 148.26438477 -69.94750977 148.07861328 C-82.01185119 144.21673093 -95.38136278 137.10680832 -101.75 125.625 C-104.62054694 118.72201808 -104.83214656 112.65691323 -102.125 105.68359375 C-96.1389998 92.53933498 -82.69072138 85.57500656 -69.76098633 80.69335938 C-59.46522232 76.9192552 -59.46522232 76.9192552 -54.1875 75.625 C-54.07110168 74.94785446 -53.95470337 74.27070892 -53.83477783 73.57304382 C-52.72773598 67.14372423 -51.61082885 60.71620257 -50.48323441 54.29045391 C-49.90407347 50.98804813 -49.3296473 47.68498276 -48.76171875 44.38061523 C-48.10585804 40.56842483 -47.43695178 36.75871222 -46.765625 32.94921875 C-46.46848602 31.1969825 -46.46848602 31.1969825 -46.16534424 29.40934753 C-42.34448633 7.99608563 -42.34448633 7.99608563 -34.26171875 2.2578125 C-23.35410608 -4.80122751 -12.04100134 -3.11725305 0 0 Z M187.8125 41.625 C187.8125 64.725 187.8125 87.825 187.8125 111.625 C191.1125 111.625 194.4125 111.625 197.8125 111.625 C197.83562566 102.64579223 197.85341623 93.66659463 197.86431217 84.68736362 C197.86954051 80.51837172 197.87663726 76.34940013 197.88793945 72.18041992 C197.89877008 68.16042314 197.90477721 64.14044595 197.90737724 60.12043571 C197.90923118 58.58337025 197.91285119 57.04630591 197.91823006 55.50924873 C197.92544284 53.36364513 197.92649084 51.21812345 197.92602539 49.07250977 C197.928246 47.84895279 197.93046661 46.62539581 197.93275452 45.36476135 C198.12535928 42.7127193 198.12535928 42.7127193 196.8125 41.625 C193.8425 41.625 190.8725 41.625 187.8125 41.625 Z M-83.1875 106.625 C-86.9708778 110.5471808 -86.9708778 110.5471808 -88.1875 115.625 C-82.71136253 126.57727494 -69.78501052 131.67047525 -58.7734375 135.45458984 C2.26919277 154.97925467 83.64584271 157.27147998 142.625 129.625 C148.75237782 126.32901422 154.06731667 122.67907083 157.5625 116.5625 C158.06386586 113.52363727 158.06386586 113.52363727 156.4375 110.625 C149.26051835 102.42273526 137.60487923 95.72351818 126.8125 93.625 C126.66554688 94.60339844 126.66554688 94.60339844 126.515625 95.6015625 C125.38002657 102.23893953 124.13988114 106.88664678 118.73828125 111.33203125 C85.77696391 134.50085921 29.97928405 131.87109877 -7.69140625 125.58984375 C-44.58708379 118.93548419 -44.58708379 118.93548419 -53.64453125 106.6484375 C-55.94426804 102.43902529 -56.79172326 98.37432086 -57.1875 93.625 C-64.96103505 93.625 -77.44375786 101.88246062 -83.1875 106.625 Z M182.8125 127.625 C182.74249357 155.60568792 182.6895529 183.58636277 182.65706348 211.56712055 C182.64157875 224.55836727 182.62045856 237.54955964 182.58618164 250.54077148 C182.55632844 261.86073106 182.5369367 273.1806513 182.53023452 284.50064915 C182.52631534 290.49737776 182.51707142 296.4939938 182.49530983 302.49068642 C182.47500912 308.13028859 182.46865318 313.76973137 182.47317696 319.40936661 C182.47234887 321.48347654 182.46634522 323.55759157 182.45488358 325.63167 C182.44003985 328.45531341 182.44351659 331.27834862 182.45173645 334.102005 C182.44299793 334.92982036 182.4342594 335.75763572 182.42525607 336.6105364 C182.35338376 340.74837481 182.35338376 340.74837481 184.13069171 344.33664387 C186.83927681 346.41156658 189.83766243 345.99189123 193.10546875 345.91796875 C194.16451164 345.91160149 194.16451164 345.91160149 195.24494934 345.90510559 C197.49702303 345.88833034 199.74819742 345.85068243 202 345.8125 C203.52798185 345.79745157 205.05597776 345.78376344 206.58398438 345.77148438 C210.32716872 345.73843089 214.06968196 345.68665832 217.8125 345.625 C217.85930817 328.71743811 217.89453194 311.80989657 217.91612434 294.90228462 C217.92641843 287.05104526 217.94044288 279.19984626 217.96337891 271.34863281 C217.98337015 264.50215561 217.99623 257.65570765 218.00067699 250.80920208 C218.00327469 247.18708669 218.00934111 243.56505493 218.02396011 239.94296646 C218.04018215 235.89048875 218.04047602 231.83815464 218.03955078 227.78564453 C218.04674133 226.59665054 218.05393188 225.40765656 218.06134033 224.18263245 C218.03002985 211.47315583 215.63236329 201.85004656 208.58984375 191.234375 C208.19482666 190.6372168 207.79980957 190.04005859 207.39282227 189.42480469 C206.61633132 188.26533715 205.82730156 187.11412094 205.02319336 185.97363281 C199.68636247 178.09175797 198.36803106 169.59791333 198.30078125 160.2421875 C198.28283005 159.30190704 198.26487885 158.36162659 198.24638367 157.39285278 C198.19277477 154.42861237 198.15854522 151.46452827 198.125 148.5 C198.09178319 146.4739368 198.05728959 144.44789411 198.02148438 142.421875 C197.93707744 137.48969711 197.87003278 132.55756158 197.8125 127.625 C192.8625 127.625 187.9125 127.625 182.8125 127.625 Z M162.75 134.625 C156.64566535 140.08443226 149.15456174 143.16850989 141.8125 146.625 C140.47758891 147.28850177 139.14384912 147.95437959 137.8125 148.625 C137.8031543 149.3048999 137.79380859 149.9847998 137.78417969 150.68530273 C137.72998724 153.81172895 137.64643761 156.93673648 137.5625 160.0625 C137.54832031 161.13177734 137.53414063 162.20105469 137.51953125 163.30273438 C137.2663311 171.58237932 135.85621688 178.02059843 130.4375 184.4375 C126.78017739 187.48526884 123.35375604 190.11124799 118.8125 191.625 C118.05953566 193.37177061 118.05953566 193.37177061 117.70703125 195.53515625 C117.53252441 196.35266357 117.35801758 197.1701709 117.17822266 198.01245117 C116.99565918 198.89521729 116.8130957 199.7779834 116.625 200.6875 C112.39290571 219.20166973 103.39353621 232.51772087 89.8125 245.625 C88.81114774 246.62364591 87.81090213 247.62340468 86.8125 248.625 C94.53484569 253.81731017 102.28670878 258.95161723 110.13671875 263.94921875 C112.22403636 265.28723502 114.31033824 266.62681907 116.39624023 267.96704102 C117.81517098 268.87451779 119.23746431 269.77675539 120.6628418 270.67407227 C122.76790568 272.00139026 124.85930538 273.34820797 126.94921875 274.69921875 C127.58147873 275.09106857 128.21373871 275.4829184 128.86515808 275.88664246 C135.50666848 280.23576766 137.96156049 286.066997 139.8125 293.625 C143.93661639 294.62866845 148.06193269 295.62731379 152.1875 296.625 C153.363125 296.91117188 154.53875 297.19734375 155.75 297.4921875 C156.87148438 297.76289063 157.99296875 298.03359375 159.1484375 298.3125 C160.70377197 298.68955078 160.70377197 298.68955078 162.29052734 299.07421875 C164.70792167 299.69612135 164.70792167 299.69612135 166.8125 299.625 C166.8125 244.185 166.8125 188.745 166.8125 131.625 C165.03987993 131.625 163.95734494 133.4362296 162.75 134.625 Z M-52.1875 153.625 C-52.32343443 156.16848425 -52.42198907 158.70461496 -52.5 161.25 C-52.54189453 161.96285156 -52.58378906 162.67570313 -52.62695312 163.41015625 C-52.71683609 167.32905353 -52.42066568 169.88611172 -49.98828125 173.046875 C-47.17768308 175.63403649 -45.73025061 176.4985037 -42.0625 177.25 C-39.1857758 177.85332514 -37.59717186 178.24361284 -35.43359375 180.2578125 C-33.74067575 183.47382601 -33.64530794 186.25647771 -33.375 189.875 C-31.61606322 207.28607013 -23.67962026 222.29739101 -10.1875 233.625 C6.1948214 245.42519842 24.16067551 251.86523486 44.5 249.12890625 C63.50307689 245.68265153 80.55125788 236.47497345 92 220.58984375 C98.72678317 210.21526457 102.05262356 200.28722317 103.04248047 188.05541992 C103.4078905 184.07700587 103.82392147 181.39294522 106.8125 178.625 C109.27005212 177.73361669 111.68374642 177.25076908 114.2421875 176.7265625 C117.8138301 175.19585853 120.01842088 173.0159563 121.8125 169.625 C122.37167539 166.792262 122.29382695 164.12265552 122.125 161.25 C122.10244141 160.51394531 122.07988281 159.77789062 122.05664062 159.01953125 C121.99822927 157.22046158 121.90856337 155.42245247 121.8125 153.625 C121.20591553 153.76075439 120.59933105 153.89650879 119.97436523 154.03637695 C97.00676846 159.12616699 73.97992128 162.731271 50.41015625 162.828125 C49.26227127 162.83518463 48.11438629 162.84224426 46.93171692 162.84951782 C12.86062999 163.01150283 -18.90737441 160.92572792 -52.1875 153.625 Z M289.8125 203.625 C288.55759766 204.64207031 288.55759766 204.64207031 287.27734375 205.6796875 C270.69506541 218.99521117 252.84194609 230.11027695 233.8125 239.625 C233.8125 248.535 233.8125 257.445 233.8125 266.625 C241.1127694 263.70489224 247.84135648 260.74708786 254.75 257.125 C255.74563965 256.60309082 256.7412793 256.08118164 257.76708984 255.54345703 C272.36711396 247.78174276 285.90309938 238.93789228 298.8125 228.625 C301.46690137 226.60797768 304.13916189 224.61689898 306.8125 222.625 C305.10831721 218.32749557 301.98767339 215.31623705 298.875 212 C298.33681641 211.41476563 297.79863281 210.82953125 297.24414062 210.2265625 C294.83598147 207.63727177 292.78287778 205.60525185 289.8125 203.625 Z M5.8125 260.625 C5.52058819 264.81101536 5.34404195 268.99441211 5.1875 273.1875 C5.10371094 274.36892578 5.01992187 275.55035156 4.93359375 276.76757812 C4.65169994 283.44578657 4.65169994 283.44578657 7.94897461 288.9609375 C10.50305808 290.76960213 13.00376049 292.25048746 15.8125 293.625 C16.4830542 293.96845459 17.1536084 294.31190918 17.84448242 294.66577148 C27.39474755 299.14037123 39.55522947 299.09771447 49.421875 295.68359375 C54.5975014 293.39177226 59.78971033 290.64778967 63.8125 286.625 C64.09094932 283.90565665 64.09094932 283.90565665 64.0078125 280.7421875 C63.99814453 278.99228516 63.99814453 278.99228516 63.98828125 277.20703125 C63.97152344 275.98371094 63.95476562 274.76039063 63.9375 273.5 C63.92847656 272.26894531 63.91945312 271.03789062 63.91015625 269.76953125 C63.88652548 266.72116185 63.85358054 263.67317618 63.8125 260.625 C62.8946875 260.82996094 61.976875 261.03492188 61.03125 261.24609375 C43.55464327 265.08286981 28.35554472 265.18526039 10.8125 261.625 C9.14591357 261.29126573 7.47926322 260.95785023 5.8125 260.625 Z M79.8125 263.625 C79.8532666 264.19966507 79.8940332 264.77433014 79.93603516 265.3664093 C83.24049621 315.39237954 71.47531593 359.84682597 57.45385742 407.55249023 C56.5696809 410.57558647 55.68976563 413.59989166 54.8125 416.625 C54.59956425 417.35561268 54.38662849 418.08622536 54.16724014 418.83897781 C53.56703165 420.91454016 52.98104036 422.99355972 52.3996582 425.07446289 C51.90125175 426.83337608 51.90125175 426.83337608 51.39277649 428.62782288 C50.8411635 431.47695058 50.80464504 432.94961206 51.8125 435.625 C52.658125 434.76777344 53.50375 433.91054688 54.375 433.02734375 C59.70561152 427.64633945 65.00898384 422.33177953 70.7890625 417.4296875 C73.91042431 414.64577021 76.81271823 411.64517656 79.7487793 408.66918945 C82.33288459 406.06362818 84.95467946 403.56439418 87.75 401.1875 C91.85597737 397.68856651 95.59831002 393.86667411 99.38598633 390.03198242 C102.72833575 386.66426011 106.1731639 383.50005791 109.7890625 380.42578125 C113.98527106 376.69131765 117.87834512 372.63171101 121.8125 368.625 C120.08692343 364.56186912 117.31170082 361.33841748 114.5625 357.9375 C99.03757614 338.43949297 99.03757614 338.43949297 99.98828125 325.171875 C101.70213742 314.16164745 107.41657786 307.31723617 116.12890625 300.73046875 C118.91667191 298.54326978 121.35393686 296.17248043 123.8125 293.625 C119.74713528 289.22980666 115.26243458 285.99407044 110.30078125 282.66796875 C109.49134567 282.12014236 108.6819101 281.57231598 107.84794617 281.00788879 C106.14614333 279.85810247 104.44247782 278.71106877 102.73706055 277.56665039 C100.11826213 275.80797513 97.50705709 274.03843418 94.89648438 272.26757812 C93.24002332 271.15038902 91.58313709 270.03383001 89.92578125 268.91796875 C89.14245926 268.38680954 88.35913727 267.85565033 87.55207825 267.30839539 C86.82759995 266.82401505 86.10312164 266.3396347 85.35668945 265.84057617 C84.71891068 265.41153488 84.0811319 264.98249359 83.42402649 264.54045105 C81.8315655 263.46035589 81.8315655 263.46035589 79.8125 263.625 Z M-15.4296875 266.23046875 C-16.32268555 266.79596436 -17.21568359 267.36145996 -18.13574219 267.9440918 C-19.10157227 268.5606665 -20.06740234 269.17724121 -21.0625 269.8125 C-22.04379883 270.43874268 -23.02509766 271.06498535 -24.03613281 271.71020508 C-30.72327488 275.99916624 -37.36193262 280.35430373 -43.9375 284.8125 C-45.14188721 285.62207153 -45.14188721 285.62207153 -46.37060547 286.44799805 C-47.10939941 286.95371338 -47.84819336 287.45942871 -48.609375 287.98046875 C-49.25487305 288.42028076 -49.90037109 288.86009277 -50.56542969 289.31323242 C-52.46189358 290.71357726 -52.46189358 290.71357726 -54.1875 293.625 C-50.72373767 297.21610654 -47.12949388 300.29783131 -43.1875 303.375 C-38.09174776 307.50958206 -34.57064811 311.46478696 -32.1875 317.625 C-31.93484375 318.26953125 -31.6821875 318.9140625 -31.421875 319.578125 C-28.93846217 327.41042701 -30.18626127 336.03189794 -33.765625 343.3203125 C-36.09188466 347.09089822 -38.92241428 350.39607695 -41.79296875 353.76171875 C-45.50613871 358.20177353 -48.83867188 362.90744104 -52.1875 367.625 C-46.71573567 374.1911172 -40.94084173 380.31612699 -34.4375 385.875 C-30.84233285 388.9606159 -27.51411904 392.25697291 -24.1875 395.625 C-20.33629036 399.52396918 -16.42328255 403.23324312 -12.24609375 406.78515625 C-9.11673959 409.58197942 -6.20208371 412.58975348 -3.25585938 415.57617188 C-0.04352417 418.81523941 3.28471837 421.83195848 6.75390625 424.7890625 C10.95882503 428.53917982 14.8664476 432.60617205 18.8125 436.625 C20.40197208 433.44605584 18.91309062 430.487888 18.01757812 427.20727539 C17.81438965 426.44080688 17.61120117 425.67433838 17.40185547 424.88464355 C16.7225291 422.32880711 16.03310743 419.77580374 15.34375 417.22265625 C14.86519566 415.4294893 14.38730112 413.63614614 13.91003418 411.84263611 C12.64319502 407.08867904 11.36795798 402.33701469 10.09082031 397.58581543 C8.82169546 392.85983813 7.55947897 388.13201958 6.296875 383.40429688 C6.05121009 382.48567903 5.80554518 381.56706118 5.55243587 380.62060642 C4.32441731 376.02746062 3.10078015 371.43322423 1.88563538 366.83665466 C-0.13418885 359.20950356 -2.16589308 351.59826728 -4.43579102 344.04125977 C-9.33475359 327.40731082 -10.22565643 311.68113395 -10.13171387 294.49377441 C-10.12028185 290.9924579 -10.14911612 287.4914492 -10.17382812 283.99023438 C-10.21617575 277.20163741 -10.21657463 270.41365978 -10.1875 263.625 C-12.12680628 263.625 -13.85109637 265.23077963 -15.4296875 266.23046875 Z M5.8125 306.625 C4.95874648 319.76106988 7.45015361 330.96932856 10.921875 343.56640625 C11.4521167 345.54738201 11.98058537 347.52883311 12.50738525 349.51072693 C13.88902282 354.68980749 15.29423599 359.862191 16.70483398 365.03344727 C18.12747665 370.26519239 19.52766254 375.50293403 20.9296875 380.74023438 C23.22147155 389.29069505 25.52963022 397.83656898 27.8496666 406.37940311 C29.86043042 413.78848191 31.84316021 421.20480584 33.8125 428.625 C34.4725 428.625 35.1325 428.625 35.8125 428.625 C36.10429138 427.51825424 36.39608276 426.41150848 36.69671631 425.27122498 C39.46188644 414.78322627 42.22727987 404.29528646 44.99288559 393.80740261 C46.41431261 388.41695958 47.83566405 383.02649664 49.25683594 377.63598633 C50.6312476 372.42284945 52.00586671 367.20976731 53.38062286 361.99672127 C53.90211452 360.01909348 54.42353449 358.04144678 54.94487762 356.06377983 C55.44232366 354.17679967 55.93990181 352.28985432 56.43762207 350.40294647 C56.90909394 348.61498325 57.3800767 346.82689098 57.8505249 345.03865814 C58.8966912 341.06727669 59.95194163 337.09907748 61.03814697 333.13844299 C61.31932058 332.10706758 61.31932058 332.10706758 61.60617447 331.0548563 C62.09982716 329.24886518 62.59851573 327.44425261 63.09765625 325.63977051 C64.07656965 321.51131691 64.21253412 317.92596384 64.0625 313.6875 C64.04445312 312.99205078 64.02640625 312.29660156 64.0078125 311.58007812 C63.96223052 309.92773142 63.89060859 308.27612883 63.8125 306.625 C63.29042969 306.80675781 62.76835937 306.98851562 62.23046875 307.17578125 C60.65001123 307.71551718 59.06482752 308.24150344 57.4765625 308.7578125 C55.77569338 309.31146785 54.08183024 309.8874736 52.3984375 310.4921875 C38.79609546 314.91400148 25.06653549 313.32915249 11.8125 308.625 C9.81326672 307.95603756 7.81336704 307.2890599 5.8125 306.625 Z M123.625 314.625 C122.68237305 315.45451172 122.68237305 315.45451172 121.72070312 316.30078125 C117.26063293 320.45079308 115.64627192 323.56918292 114.8125 329.625 C116.30997 335.40095573 119.79214597 339.3167465 123.546875 343.87109375 C125.98310445 346.83237265 128.35129325 349.83416315 130.6875 352.875 C131.42742187 353.82890625 132.16734375 354.7828125 132.9296875 355.765625 C135.89795004 360.2734428 137.22287416 364.2367181 136.6875 369.625 C136.62304688 370.429375 136.55859375 371.23375 136.4921875 372.0625 C134.65816085 378.97699127 129.00175195 383.71046533 124.0625 388.5625 C123.38445312 389.23990234 122.70640625 389.91730469 122.0078125 390.61523438 C118.02526166 394.56371396 113.92268459 398.31050145 109.67871094 401.97485352 C106.93070318 404.40470496 104.37187218 406.99955707 101.8125 409.625 C97.98531596 413.50480782 94.09173377 417.1876513 89.9375 420.71875 C86.56395836 423.7450153 83.42046464 426.99710706 80.23657227 430.22045898 C76.9066767 433.57560894 73.47318601 436.72225452 69.87109375 439.78515625 C66.74482451 442.57922231 63.83284402 445.58378647 60.88964844 448.56738281 C57.64125953 451.84293595 54.2961478 454.93196487 50.76171875 457.89453125 C47.99769359 460.34836521 45.42603556 463.01146444 42.8125 465.625 C42.8125 475.195 42.8125 484.765 42.8125 494.625 C77.1325 494.625 111.4525 494.625 146.8125 494.625 C146.82924387 484.78512841 146.82924387 484.78512841 146.375 475.0234375 C146.28476562 473.70859375 146.19453125 472.39375 146.1015625 471.0390625 C146.0056253 469.69267856 145.9092691 468.34632441 145.8125 467 C144.75722543 452.24032075 144.75722543 452.24032075 144.5625 445.9140625 C144.53671875 445.1710791 144.5109375 444.4280957 144.484375 443.66259766 C144.91572195 440.98401012 146.00468264 439.61260941 147.8125 437.625 C149.75 437.09375 149.75 437.09375 151.8125 437.125 C152.8334375 437.10953125 152.8334375 437.10953125 153.875 437.09375 C156.64653936 437.85368821 157.30890727 439.22007878 158.8125 441.625 C159.30493164 443.9296875 159.30493164 443.9296875 159.47265625 446.5 C159.54307129 447.47267822 159.61348633 448.44535645 159.68603516 449.44750977 C159.74839355 450.49608154 159.81075195 451.54465332 159.875 452.625 C159.95024902 453.709021 160.02549805 454.79304199 160.10302734 455.90991211 C160.26409889 458.24279266 160.41948581 460.57607116 160.56982422 462.90966797 C160.89982964 467.96200443 161.26978775 473.01118566 161.63891602 478.06079102 C162.03836893 483.5816027 162.42404598 489.10340351 162.8125 494.625 C174.6925 494.625 186.5725 494.625 198.8125 494.625 C198.15750007 486.11000097 197.42013114 477.69203126 196.37304688 469.22875977 C196.23130035 468.06607071 196.08955383 466.90338165 195.94351196 465.70545959 C194.64478299 455.10910533 193.29994272 444.51842892 191.93825531 433.92999363 C191.02637377 426.83369509 190.1301499 419.73612824 189.27246094 412.63305664 C188.51976964 406.39954731 187.73875681 400.17037399 186.9231534 393.94477123 C186.49379167 390.66037569 186.08252516 387.37537174 185.69664001 384.08554268 C185.26434348 380.4228834 184.78194348 376.7701389 184.28710938 373.11547852 C184.11358444 371.49533844 184.11358444 371.49533844 183.93655396 369.84246826 C183.14626979 364.16111783 183.14626979 364.16111783 179.75744629 359.7388134 C177.39945041 358.16146742 177.39945041 358.16146742 174.98836517 356.96307278 C170.7494866 354.35632669 169.13062425 350.27212616 167.8125 345.625 C167.13219683 340.40675742 167.02060108 335.25015329 167 330 C166.97680554 328.6002223 166.9514301 327.20047897 166.92382812 325.80078125 C166.86534169 322.40856799 166.82877698 319.0176341 166.8125 315.625 C162.49075312 314.62113116 158.16742982 313.62444814 153.8425293 312.63427734 C152.37267846 312.29671169 150.90326955 311.95721557 149.43432617 311.61572266 C147.31803905 311.12409619 145.20023926 310.63952401 143.08203125 310.15625 C141.80948486 309.86298828 140.53693848 309.56972656 139.22583008 309.26757812 C131.47039053 307.80757406 129.1446001 309.39954787 123.625 314.625 Z M233.8125 316.625 C233.8125 323.885 233.8125 331.145 233.8125 338.625 C236.1225 337.965 238.4325 337.305 240.8125 336.625 C251.54107086 334.80741603 261.13444425 339.15362873 270.93994141 342.98242188 C272.79782931 343.73319218 272.79782931 343.73319218 274.8125 343.625 C276.7925 338.18 276.7925 338.18 278.8125 332.625 C270.22804065 328.95074392 261.57425135 325.65038317 252.77246094 322.5480957 C250.65383302 321.80062194 248.53779661 321.04611208 246.421875 320.29101562 C245.07045922 319.81208579 243.71890209 319.33355459 242.3671875 318.85546875 C240.54936768 318.21194458 240.54936768 318.21194458 238.69482422 317.55541992 C236.00008004 316.52260215 236.00008004 316.52260215 233.8125 316.625 Z M197.8125 361.625 C198.47630479 372.82051364 199.79684796 383.82450608 201.31640625 394.9296875 C201.56197974 396.74808715 201.80716631 398.56653909 202.05198669 400.38504028 C202.69093295 405.12334936 203.33506028 409.86093944 203.98034668 414.59838867 C204.64047866 419.45187994 205.29560121 424.30604716 205.95117188 429.16015625 C207.23343712 438.64909774 208.52118833 448.13728567 209.8125 457.625 C214.76116283 456.36447721 219.70905451 455.10098627 224.65625 453.8347168 C226.33995952 453.40420812 228.02387825 452.97451681 229.70800781 452.5456543 C232.12620389 451.92971213 234.54363675 451.31085156 236.9609375 450.69140625 C237.7161972 450.49970352 238.47145691 450.30800079 239.24960327 450.11048889 C243.1272452 449.13872537 243.1272452 449.13872537 246.8125 447.625 C244.59953992 439.13196665 241.99976782 430.78942738 239.28515625 422.4453125 C238.85037445 421.10220195 238.41584497 419.7590097 237.98155212 418.41574097 C236.84599777 414.90532475 235.70761234 411.39583389 234.56842041 407.88659668 C232.74898108 402.28046226 230.93367821 396.672988 229.11883354 391.06536484 C228.49289075 389.13278589 227.86549575 387.20067748 227.23805237 385.26858521 C224.69088058 377.4084461 222.22503923 369.52753956 219.8125 361.625 C212.5525 361.625 205.2925 361.625 197.8125 361.625 Z M242.65625 464.77734375 C241.43004944 465.10672691 241.43004944 465.10672691 240.17907715 465.44276428 C238.44715758 465.90864899 236.71543289 466.37525869 234.98388672 466.8425293 C232.32478397 467.55918932 229.66438149 468.27087652 227.00390625 468.98242188 C225.32543815 469.43458901 223.64704998 469.887053 221.96875 470.33984375 C221.16771851 470.55342026 220.36668701 470.76699677 219.54138184 470.98704529 C215.88158283 471.73138219 215.88158283 471.73138219 212.8125 473.625 C212.87753029 475.85672133 213.01537278 478.08647636 213.1875 480.3125 C213.27773438 481.53324219 213.36796875 482.75398438 213.4609375 484.01171875 C213.776475 487.25474304 214.23160827 490.42024986 214.8125 493.625 C224.01064321 491.9609224 232.93790051 489.49172058 241.9375 487 C243.4816836 486.57520359 245.02595382 486.15072195 246.5703125 485.7265625 C250.31871651 484.69633305 254.06592396 483.66185647 257.8125 482.625 C257.35065705 480.72322708 256.88508314 478.82236001 256.41796875 476.921875 C256.15910889 475.86323242 255.90024902 474.80458984 255.63354492 473.71386719 C254.61551528 469.88392039 253.29543881 466.29703896 251.8125 462.625 C248.82517823 462.625 245.55474725 463.99720196 242.65625 464.77734375 Z " fill="#000000" transform="translate(179.1875,2.375)"/>
<path d="M0 0 C1.14533203 -0.00708984 2.29066406 -0.01417969 3.47070312 -0.02148438 C10.42026144 0.03076794 16.2470312 0.18558467 21.6796875 4.97265625 C25.67920164 10.36510463 26.76957017 13.74527852 25.9375 20.4375 C24.375 23 24.375 23 21.9375 24.4375 C18.5 25 18.5 25 14.9375 24.4375 C12 22.125 12 22.125 9.9375 19.4375 C9.9375 18.4475 9.9375 17.4575 9.9375 16.4375 C3.3375 16.4375 -3.2625 16.4375 -10.0625 16.4375 C-10.3925 18.0875 -10.7225 19.7375 -11.0625 21.4375 C-12.1875 23.25 -12.1875 23.25 -14.0625 24.4375 C-18.38074345 25.07723977 -20.37093936 24.88413291 -24.0625 22.5 C-26.50343928 18.76231172 -26.47836692 16.93388079 -25.6953125 12.6484375 C-24.25181426 7.60510415 -22.11005082 5.10969889 -17.7265625 2.296875 C-12.01971762 -0.44160758 -6.20957847 -0.10869392 0 0 Z " fill="#fff" transform="translate(213.0625,204.5625)"/>
</svg>
