<svg xmlns="http://www.w3.org/2000/svg" width="512" height="512" viewBox="0 0 512 512" version="1.1">
	<path d="M 247.585 31.040 C 220.746 35.258, 194.313 48.885, 174.665 68.631 C 153.851 89.548, 137.503 121.884, 129.962 157.052 C 126.332 173.982, 126.124 198.583, 129.419 221.282 C 132.529 242.708, 132.666 252.075, 130.022 262.415 C 127.495 272.294, 123.870 278.913, 117.954 284.446 C 111.619 290.372, 106.564 291.869, 100.591 289.588 C 94.704 287.340, 91.848 284.995, 88.096 279.332 L 85 274.657 85 278.360 C 85 283.077, 88.308 292.938, 91.698 298.329 C 95.831 304.901, 105.288 313.375, 112.393 316.873 C 124.222 322.696, 142.805 324.595, 157.500 321.483 C 161.349 320.667, 164.901 320, 165.392 320 C 166.783 320, 165.220 331.797, 162.907 338.766 C 161.762 342.213, 159.065 347.669, 156.913 350.892 C 154.761 354.115, 153 357.631, 153 358.705 C 153 361.990, 147.469 369.239, 140.818 374.670 C 137.343 377.508, 129.325 384.019, 123 389.140 C 86.994 418.289, 73.459 437.617, 64.417 472.793 C 62.538 480.104, 61 487.571, 61 489.386 L 61 492.686 102.750 493.344 C 153.226 494.140, 272.559 494.018, 304.894 493.137 C 325.172 492.585, 328.427 492.279, 329.333 490.838 C 330.162 489.521, 327.581 483.611, 316.886 462.338 C 309.466 447.577, 301.923 431.350, 300.124 426.278 C 296.021 414.703, 293.277 412, 285.631 412 C 280.750 412, 280.131 411.707, 275.958 407.410 C 273.506 404.886, 263.625 396.453, 254 388.671 C 228.404 367.975, 217.149 358.163, 201.670 343.048 C 186.659 328.390, 187.420 329.847, 189.894 320.500 C 190.476 318.300, 190.963 315.064, 190.976 313.309 C 191.012 308.449, 192.294 308.626, 196.343 314.050 C 198.376 316.772, 200.544 319, 201.160 319 C 202.385 319, 201.656 298.819, 199.935 285.080 C 199.424 280.999, 199.162 277.504, 199.353 277.314 C 199.544 277.123, 201.654 280.012, 204.043 283.733 C 212.888 297.517, 241.610 323.181, 258.213 332.137 C 271.058 339.066, 270.558 338.194, 271.349 355.040 C 272.131 371.713, 273.987 381.768, 277.086 386.120 C 278.283 387.802, 283.440 392.263, 288.545 396.033 C 293.887 399.978, 299.173 404.845, 300.998 407.497 C 304.270 412.253, 310.990 425.995, 325.695 458 C 330.370 468.175, 335.922 480.212, 338.032 484.750 L 341.870 493 382.376 493 C 405.342 493, 423.123 492.610, 423.439 492.099 C 424.922 489.699, 414.077 462.719, 404.403 444.742 C 393.798 425.035, 378.703 410.886, 357 400.311 C 345.969 394.936, 344.909 394.131, 331 380.552 C 323.025 372.766, 312.450 362.682, 307.500 358.143 L 298.500 349.891 304 350.696 C 312.146 351.887, 327.728 351.560, 334 350.066 C 341.917 348.180, 351.915 342.674, 358.901 336.352 C 366.069 329.864, 374.985 316.885, 378.437 307.910 C 381.377 300.265, 381.725 301.115, 379.086 309.500 C 373.909 325.948, 365.608 344.163, 358.122 355.500 C 351.108 366.122, 351.472 365.351, 354.151 363.933 C 366.096 357.612, 387.763 331.273, 398.981 309.438 C 417.163 274.050, 419.603 230.603, 405.496 193.456 C 404.043 189.630, 402.184 182.675, 401.364 178 C 391.432 121.357, 367.698 80.604, 328.663 53.168 C 321.260 47.965, 302.948 38.898, 294.137 36.074 C 279.197 31.285, 259.544 29.160, 247.585 31.040 M 312.527 76.235 C 324.822 83.553, 331.980 88.976, 341.863 98.462 C 351.215 107.438, 361.196 120.189, 366.550 130 C 370.712 137.627, 370.101 134.225, 365.742 125.500 C 356.022 106.044, 337.390 87.575, 316 76.193 C 304.611 70.133, 302.322 70.161, 312.527 76.235 M 297 91.306 C 297.275 91.590, 301.550 94.488, 306.500 97.746 C 332.644 114.951, 356.854 139.831, 369.743 162.737 C 378.612 178.500, 382.006 191.620, 382.197 210.882 C 382.291 220.285, 382.518 222.353, 383.087 219 C 386.021 201.733, 382.214 181.440, 372.301 161.500 C 361.268 139.308, 340.267 117.459, 312.801 99.598 C 305.564 94.891, 295.212 89.459, 297 91.306 M 239.427 113.233 C 223.893 136.040, 191.945 159.013, 154.233 174.495 C 149.136 176.587, 145.117 178.451, 145.302 178.636 C 145.896 179.230, 159.633 175.124, 167.693 171.944 C 198.149 159.928, 229.896 133.971, 242.539 110.750 C 243.961 108.138, 244.951 106, 244.739 106 C 244.527 106, 242.136 109.255, 239.427 113.233 M 302.106 113.307 C 304.523 115.125, 308.188 117.879, 310.250 119.425 C 312.313 120.972, 314 121.985, 314 121.676 C 314 120.788, 299.913 110, 298.754 110 C 298.181 110, 299.690 111.488, 302.106 113.307 M 271.489 118.183 C 269.477 122.208, 266 127.975, 263.763 131 C 257.896 138.933, 236.031 160.178, 224.139 169.500 C 214.672 176.921, 213.418 178.332, 206.823 189 C 195.490 207.332, 195.129 208.115, 192.496 220.017 C 191.119 226.246, 189.761 231.573, 189.479 231.854 C 188.131 233.203, 186.933 229.574, 185.616 220.149 C 184.823 214.480, 184.002 209.668, 183.789 209.456 C 182.901 208.567, 178 214.252, 178 216.172 C 178 217.323, 178.951 219.803, 180.114 221.685 C 183.134 226.571, 181.620 227.012, 177.072 222.570 C 174.932 220.480, 172.733 219.047, 172.185 219.386 C 170.509 220.421, 166 228.736, 166 230.791 C 166 231.856, 168.243 234.824, 170.984 237.388 C 175.151 241.286, 176.586 242.040, 179.734 241.984 C 181.805 241.948, 185.194 242.212, 187.264 242.570 C 189.606 242.976, 191.563 242.778, 192.444 242.046 C 194.332 240.479, 194.855 241.546, 200.018 257.516 C 207.274 279.961, 212.217 287.353, 229.821 302.085 C 262.593 329.510, 290.638 340.460, 304.720 331.328 C 309.635 328.141, 312.050 324.574, 316.820 313.453 C 321.169 303.314, 333.730 281.208, 341.512 270 C 348.167 260.415, 348.853 259.054, 349.943 253.277 C 350.857 248.430, 349.001 222.429, 347.577 220.124 C 347.195 219.506, 345.874 219, 344.641 219 C 341.225 219, 340.139 217.319, 341.022 213.404 C 341.670 210.530, 341.472 209.788, 339.821 208.904 C 337.210 207.507, 334.609 208.538, 335.419 210.649 C 336.126 212.492, 333.808 216.640, 330.625 219.228 C 327.965 221.391, 323.655 221.494, 321.948 219.437 C 320.771 218.019, 320.569 218.019, 319.775 219.437 C 318.240 222.181, 315.227 221.311, 314.480 217.909 C 313.925 215.380, 314.292 214.304, 316.499 212.001 C 320.235 208.102, 329.342 204.230, 337.581 203.040 C 346.867 201.697, 348 201.747, 348 203.500 C 348 205.999, 349.853 205.186, 351.525 201.952 C 352.528 200.011, 352.992 197.014, 352.801 193.702 C 352.513 188.725, 352.370 188.487, 349.482 188.204 C 347.560 188.015, 344.292 189.064, 340.482 191.092 C 317.438 203.356, 316.999 203.518, 317.002 199.750 C 317.004 197.121, 321.214 194.221, 333.947 188.076 C 340.077 185.118, 343.659 184, 347.006 184 L 351.618 184 350.877 177.069 C 350.470 173.257, 349.392 169.002, 348.483 167.614 C 346.222 164.164, 328.849 149.356, 315.500 139.502 C 303.006 130.278, 281.827 115.145, 277.824 112.581 L 275.148 110.867 271.489 118.183 M 327.528 127.815 C 336.093 135.699, 344.129 142.113, 343.151 140.284 C 341.802 137.761, 328.168 126, 326.592 126 C 326.022 126, 326.443 126.817, 327.528 127.815 M 233.500 184.399 C 228.021 185.746, 223.525 187.859, 224.360 188.694 C 224.653 188.986, 227.077 188.701, 229.748 188.061 C 240.045 185.590, 243.347 186.211, 258.159 193.400 C 272.958 200.584, 282.528 203.356, 284.079 200.907 C 284.569 200.133, 284.976 198.908, 284.985 198.185 C 285.004 196.499, 272.960 190.935, 259.643 186.479 C 248.399 182.716, 242.315 182.232, 233.500 184.399 M 148.575 197.250 C 144.310 203.772, 142.841 209.290, 141.903 222.310 C 140.641 239.813, 139.316 252.046, 138.415 254.500 C 138.012 255.600, 138.006 256.209, 138.404 255.853 C 140.121 254.317, 142.066 243.455, 143.032 230 C 144.294 212.422, 145.488 205.976, 148.634 199.750 C 151.140 194.790, 151.107 193.378, 148.575 197.250 M 151.262 204.732 C 149.593 207.904, 147.920 211.625, 147.544 213 C 147.169 214.375, 148.656 211.901, 150.850 207.502 C 155.457 198.264, 155.768 196.170, 151.262 204.732 M 239 205.048 C 224.541 206.411, 225.003 206.271, 228.500 208.235 L 231.500 209.920 227.750 209.960 C 222.761 210.013, 222.873 212.315, 227.997 215.018 C 229.475 215.797, 229.985 216.505, 229.247 216.751 C 228.561 216.980, 228 217.804, 228 218.583 C 228 220.030, 229.386 220.351, 234.250 220.031 C 237.034 219.847, 238.048 221.408, 235.750 222.341 C 233.629 223.201, 237.186 224.991, 239.742 224.350 C 241.069 224.017, 242 224.240, 242 224.892 C 242 226.096, 244.890 226.363, 247.418 225.393 C 249.617 224.549, 249.400 223, 247.082 223 C 244.879 223, 240.497 216.623, 241.540 214.935 C 241.953 214.268, 242.968 215.062, 244.117 216.951 C 247.346 222.262, 252.464 222.739, 255.017 217.968 C 255.918 216.285, 255.692 215.833, 253.540 215.015 C 252.143 214.484, 251 213.624, 251 213.104 C 251 211.584, 257.136 210.602, 257.991 211.985 C 258.559 212.905, 259.240 212.872, 260.916 211.842 C 262.952 210.591, 263.467 210.906, 268.511 216.500 C 271.487 219.800, 273.940 222.114, 273.961 221.643 C 273.982 221.172, 272.627 217.909, 270.948 214.392 C 268.840 209.975, 266.962 207.515, 264.873 206.435 C 261.015 204.439, 251.095 203.907, 239 205.048 M 329.693 210.760 C 327.183 211.327, 327.997 214.425, 330.760 214.820 C 332.443 215.060, 333 214.639, 333 213.129 C 333 210.779, 332.187 210.197, 329.693 210.760 M 339.861 220.033 C 341.159 221.115, 342.959 221.952, 343.861 221.894 C 344.832 221.831, 344.380 221.345, 342.750 220.701 C 341.238 220.103, 340 219.251, 340 218.807 C 340 218.363, 339.438 218.015, 338.750 218.033 C 338.063 218.052, 338.562 218.952, 339.861 220.033 M 370.211 229.889 C 370.095 233.403, 369.079 241.677, 367.953 248.276 C 365.387 263.315, 365.909 266.580, 368.868 254 C 370.626 246.527, 371.030 242.259, 370.762 234 C 370.549 227.436, 370.343 225.895, 370.211 229.889 M 179 237 C 179 239.384, 180.536 239.653, 181.393 237.418 C 182.251 235.183, 182.183 235, 180.500 235 C 179.667 235, 179 235.889, 179 237 M 180 245 C 180 245.550, 180.450 246, 181 246 C 181.550 246, 182 245.550, 182 245 C 182 244.450, 181.550 244, 181 244 C 180.450 244, 180 244.450, 180 245 M 177.663 249.584 C 175.417 252.668, 176.060 254.726, 179.542 255.600 C 183.117 256.497, 185.492 254.094, 184.588 250.494 C 184.125 248.649, 183.447 247.998, 182.406 248.398 C 181.549 248.726, 181.160 248.550, 181.507 247.989 C 182.865 245.791, 179.369 247.243, 177.663 249.584 M 281.733 266.124 C 282.412 266.808, 283.219 267.115, 283.526 266.807 C 283.834 266.499, 283.279 265.940, 282.293 265.564 C 280.868 265.022, 280.753 265.136, 281.733 266.124 M 296 267.393 C 296 267.609, 296.675 268.045, 297.500 268.362 C 298.325 268.678, 299 268.501, 299 267.969 C 299 267.436, 298.325 267, 297.500 267 C 296.675 267, 296 267.177, 296 267.393 M 252.850 277.893 C 252.488 280.564, 252.542 281.001, 253.234 281.021 C 253.637 281.032, 257.912 284.210, 262.734 288.083 C 273.478 296.714, 283.580 301.895, 291.197 302.681 C 302.283 303.825, 307.124 301.175, 311.621 291.500 C 312.899 288.750, 315.317 285.216, 316.993 283.646 C 320.016 280.815, 322.601 277, 321.495 277 C 321.179 277, 319.251 277.847, 317.210 278.882 C 315.170 279.917, 309.613 281.733, 304.861 282.919 C 296.954 284.891, 295.092 284.993, 282.861 284.122 C 270.249 283.224, 265.438 282.097, 254.750 277.533 C 253.703 277.086, 252.940 277.231, 252.850 277.893 M 278.620 291.712 C 281.946 294.146, 291.057 296.249, 296.156 295.759 C 300.398 295.351, 305.004 292.922, 304.998 291.095 C 304.997 290.768, 298.638 290.463, 290.868 290.418 C 278.644 290.347, 276.993 290.522, 278.620 291.712 M 361 424.711 C 361 425.285, 361.788 426.373, 362.750 427.128 C 364.369 428.397, 364.390 428.350, 363.033 426.500 C 362.226 425.400, 361.439 424.313, 361.283 424.083 C 361.127 423.854, 361 424.137, 361 424.711" stroke="none" fill="black" fill-rule="evenodd"/>
</svg>