<svg xmlns="http://www.w3.org/2000/svg" width="512" height="512" viewBox="0 0 512 512" version="1.1">
	<path d="M 234.117 16.639 C 231.156 17.402, 224.406 19.759, 219.117 21.877 C 213.828 23.994, 207.151 26.495, 204.280 27.434 C 197.999 29.488, 195.524 32.223, 189.961 43.257 C 185.907 51.299, 185.826 51.658, 186.618 58 C 187.065 61.575, 187.442 68.325, 187.456 73 C 187.480 81.172, 187.309 81.819, 183.039 89.767 C 178.828 97.603, 178.653 98.248, 179.686 102.118 C 180.522 105.251, 180.451 107.592, 179.381 112.179 C 177.359 120.849, 176.720 121.665, 171.321 122.475 C 144.182 126.544, 114.190 144.190, 101.227 163.713 C 95.725 172, 96.543 175.215, 105.283 179.643 C 115.407 184.774, 123.814 186.229, 146.325 186.749 C 162.724 187.127, 167.263 187.521, 167.678 188.602 C 168.169 189.882, 163.540 199, 162.399 199 C 162.115 199, 162.211 198.437, 162.613 197.750 C 163.015 197.063, 162.366 197.357, 161.172 198.405 C 158.746 200.533, 158.148 201.952, 160.500 200 C 163.977 197.114, 161.629 200.944, 157.408 205.042 C 143.130 218.906, 137.073 234.925, 140.034 251 C 140.692 254.575, 141.453 260.765, 141.725 264.757 L 142.219 272.013 136.360 274.571 C 125.860 279.155, 122.567 281.103, 118.167 285.334 C 113.332 289.984, 110 295.691, 110 299.325 C 110 302.696, 113.652 307, 116.512 307 C 118.867 307, 118.859 307.038, 114.955 314.750 C 107.575 329.327, 104.545 347.193, 107.397 359.312 C 109.360 367.655, 109.377 370.918, 107.468 373.441 C 105.332 376.266, 105.657 380.677, 108.621 389.075 C 110.602 394.688, 111.273 398.615, 111.371 405.168 C 111.495 413.492, 111.366 414.026, 108.130 418.617 L 104.760 423.398 106.446 428.747 C 107.660 432.598, 107.941 435.620, 107.451 439.547 L 106.770 445 110.675 445 C 120.516 445, 140.776 452.529, 144.669 457.633 C 146.082 459.485, 147.746 460.985, 148.369 460.967 C 150.916 460.892, 154.402 456.642, 155.555 452.205 C 156.755 447.592, 156.792 447.559, 157.440 450.500 C 159.489 459.806, 159.114 459.309, 167.002 463.170 C 171.126 465.188, 183.950 471.221, 195.500 476.575 C 207.050 481.930, 224.046 490.066, 233.270 494.655 C 242.493 499.245, 250.504 503, 251.071 503 C 252.432 503, 279.109 488.264, 280.858 486.546 C 282.002 485.423, 281.891 483.812, 280.155 476.356 C 276.809 461.977, 276.468 453.804, 278.827 444.500 C 280.757 436.886, 282.207 423.166, 283.530 400 C 285.060 373.197, 289.517 354.055, 298.664 335 L 304.184 323.500 305.804 326 C 310.579 333.371, 321.102 341.041, 338 349.469 C 354.739 357.818, 369.764 366.967, 373.244 370.930 L 376.280 374.389 369.744 376.594 C 355.335 381.454, 335.745 393.668, 311.475 412.924 C 296.501 424.804, 287.761 433.749, 284.360 440.675 C 281.708 446.075, 281.508 447.302, 281.613 457.500 C 281.704 466.381, 282.236 470.130, 284.373 476.960 C 285.829 481.613, 287.376 485.776, 287.811 486.211 C 288.246 486.646, 292.325 485.201, 296.875 483.001 C 306.517 478.338, 308.812 478.107, 311.981 481.480 C 314.568 484.234, 315.129 484.205, 326 480.769 C 334.453 478.096, 351.922 470.381, 354.212 468.308 C 355.690 466.971, 356.017 464.938, 356.100 456.595 C 356.198 446.626, 357.664 446.145, 357.915 456 C 358.051 461.341, 359.858 465.349, 362.346 465.828 C 363.334 466.018, 365.939 464.928, 368.137 463.405 L 372.132 460.637 389.316 462.403 C 398.767 463.374, 409.804 464.582, 413.841 465.087 C 417.879 465.592, 421.591 465.753, 422.091 465.444 C 422.591 465.135, 423 462.071, 423 458.635 C 423 454.982, 423.850 449.873, 425.046 446.329 L 427.092 440.270 423.122 432.731 C 418.168 423.326, 417.272 418.016, 419.401 410.693 C 421.722 402.708, 421.435 397.772, 418.296 391.717 C 415.592 386.502, 415.591 386.492, 415.484 363 C 415.382 340.649, 415.246 339.045, 412.693 330.194 C 411.216 325.075, 408.408 317.425, 406.452 313.194 L 402.896 305.500 405.427 303.479 L 407.957 301.459 406.035 298.298 C 404.547 295.851, 401.225 293.752, 391.307 288.994 C 378.011 282.616, 374.777 280.358, 372.405 275.800 C 369.918 271.019, 370.642 266.418, 374.862 260.195 C 385.783 244.088, 389.236 230.055, 385.665 216.288 C 383.251 206.983, 378.426 200.513, 365.391 189.101 C 358.731 183.271, 353.331 178.203, 353.391 177.841 C 353.451 177.478, 352.347 176.274, 350.938 175.166 C 349.530 174.058, 347.082 171.284, 345.501 169.001 C 342.190 164.224, 342.615 163.585, 349.819 162.504 C 363.403 160.467, 384.906 152.039, 397.800 143.698 C 405.336 138.823, 415.505 129.135, 416.553 125.832 C 418.054 121.104, 403.537 106.959, 390.722 100.661 C 377.755 94.289, 370.660 92.802, 350.639 92.258 L 332.778 91.772 328.518 82.636 C 325.665 76.517, 323.224 72.746, 321.125 71.217 C 316.720 68.007, 311.453 56.980, 309.560 47.004 C 306.927 33.123, 300.974 24.048, 290.855 18.492 L 285.500 15.551 262.500 15.400 C 245.705 15.291, 238.048 15.625, 234.117 16.639 M 279.178 28.685 C 279.356 29.612, 282.032 31.849, 285.123 33.655 C 288.215 35.461, 293.018 39.428, 295.798 42.470 C 298.578 45.511, 301.120 48, 301.447 48 C 301.773 48, 301.090 46.136, 299.928 43.858 C 297.390 38.884, 289.623 30.373, 285.831 28.413 C 282.003 26.433, 278.770 26.566, 279.178 28.685 M 298.039 50.519 C 305.770 57.268, 306.504 57.629, 302.580 52.750 C 300.478 50.138, 298.400 48, 297.961 48 C 297.523 48, 296.357 47.690, 295.371 47.312 C 294.385 46.934, 295.586 48.377, 298.039 50.519 M 239.024 58.554 C 231.189 60.730, 219.553 67.877, 221.182 69.513 C 221.558 69.890, 225.833 69.280, 230.682 68.158 C 244.114 65.050, 253.800 64, 269.025 64 C 277.728 64, 283.893 63.550, 285.552 62.794 C 288.191 61.592, 288.182 61.582, 282.849 59.639 C 275.512 56.966, 247.261 56.266, 239.024 58.554 M 294.250 64.119 C 292.462 64.635, 291 65.655, 291 66.386 C 291 68.078, 296.966 89.043, 297.970 90.880 C 298.887 92.557, 312.808 97.120, 313.516 95.975 C 314.147 94.954, 310.046 91.676, 306.084 90.035 C 302.869 88.703, 302.101 87.055, 299.569 76.051 C 297.691 67.891, 298.502 66.571, 304.950 67.298 L 309.478 67.808 306.683 65.404 C 303.709 62.846, 299.990 62.461, 294.250 64.119 M 245.450 70.461 C 234.914 72.375, 227.414 74.766, 219.592 78.706 C 211.904 82.577, 199.399 90.546, 198.351 92.241 C 197.988 92.828, 199.820 91.844, 202.422 90.053 C 209.948 84.876, 223.278 79.069, 233.794 76.388 C 245.636 73.369, 265.677 72.223, 277.405 73.896 C 285.695 75.078, 287.687 74.707, 284.717 72.535 C 280.262 69.278, 258.339 68.120, 245.450 70.461 M 312.500 75 C 312.155 75.559, 312.923 76, 314.241 76 C 317.664 76, 318.708 77.499, 320.709 85.285 C 322.448 92.048, 324.137 94.263, 326.078 92.322 C 327.069 91.331, 324.594 82.982, 321.584 77.163 C 320.233 74.549, 319.356 74, 316.533 74 C 314.655 74, 312.840 74.450, 312.500 75 M 248.500 82.479 C 247.950 82.655, 244.212 83.555, 240.194 84.479 C 236.176 85.403, 229.667 87.488, 225.729 89.112 C 218.221 92.208, 197.929 105.154, 194.500 109.037 C 193.400 110.282, 195.425 109.159, 199 106.542 C 210.560 98.078, 224.971 91.852, 241 88.396 C 250.644 86.317, 276.780 85.970, 285.500 87.805 C 288.250 88.384, 290.886 88.481, 291.357 88.022 C 292.704 86.708, 287.897 84.118, 282.055 83.010 C 277.267 82.102, 250.972 81.686, 248.500 82.479 M 194.405 95.250 L 192.500 97.500 194.750 95.595 C 195.988 94.547, 197 93.535, 197 93.345 C 197 92.545, 196.195 93.136, 194.405 95.250 M 253.906 97.034 C 244.904 98.086, 236.117 100.438, 226.420 104.392 C 218.576 107.590, 206.446 114.779, 207.357 115.690 C 207.599 115.933, 210.431 114.815, 213.649 113.207 C 230.566 104.752, 247.369 100.147, 264 99.406 C 270.325 99.125, 277.075 98.605, 279 98.252 C 282.243 97.657, 282.059 97.559, 276.500 96.914 C 268.859 96.027, 262.219 96.062, 253.906 97.034 M 330 102.088 C 313.390 104.998, 287.846 112.484, 268.858 120.006 C 258.368 124.161, 253.654 126.946, 259.500 125.533 C 261.150 125.135, 273.300 122.140, 286.500 118.877 C 321.258 110.287, 335.102 107.858, 349.500 107.826 C 363.619 107.795, 372.436 109.444, 388.698 115.154 C 395 117.367, 400.398 118.935, 400.694 118.639 C 401.620 117.713, 394.915 112.232, 389.081 109.147 C 377.688 103.122, 371.138 101.738, 352.500 101.417 C 343.150 101.256, 333.025 101.558, 330 102.088 M 270 126.930 C 248.390 133.015, 220.531 141.183, 220.142 141.547 C 219.945 141.732, 221.463 142.585, 223.516 143.442 C 229.019 145.741, 240 153.863, 240 155.634 C 240 156.477, 239.662 157.003, 239.250 156.803 C 238.838 156.603, 236.025 155.272, 233 153.844 C 229.975 152.417, 224.826 149.618, 221.559 147.624 C 213.015 142.412, 208.983 142.999, 209.015 149.450 C 209.037 153.730, 210.063 154.902, 213.253 154.292 C 216.100 153.748, 217.096 152, 214.559 152 C 213.766 152, 212.870 151.598, 212.566 151.107 C 212.243 150.585, 213.568 150.575, 215.757 151.083 C 217.816 151.561, 221.312 151.963, 223.527 151.976 C 228.323 152.005, 231.047 153.720, 233.855 158.479 C 235.910 161.962, 235.756 163.303, 233.610 160.602 C 232.863 159.662, 231.846 159.475, 230.500 160.032 C 228.665 160.791, 228.706 160.872, 231 161.011 C 233.465 161.160, 233.458 161.181, 230.500 162.536 C 225.838 164.671, 223.115 164.346, 221.818 161.500 C 220.650 158.936, 218.598 158.223, 217.500 160 C 217.160 160.550, 217.286 161, 217.780 161 C 218.275 161, 219.192 162.125, 219.818 163.500 C 221.072 166.252, 219.961 166.863, 218 164.500 C 217.315 163.675, 216.010 163, 215.100 163 C 214.190 163, 212.458 162.308, 211.251 161.463 C 209.164 160.002, 209.030 160.063, 208.518 162.713 C 208.222 164.246, 207.140 168.018, 206.114 171.097 L 204.248 176.693 207.579 189.586 C 209.412 196.677, 211.684 204.509, 212.628 206.990 C 216.079 216.059, 241.342 237.566, 249.891 238.712 C 252.580 239.073, 254.917 238.575, 258.077 236.968 C 270.305 230.749, 289.939 215.001, 293.038 208.925 C 294.149 206.747, 295.748 200.361, 296.591 194.733 C 297.434 189.105, 299.008 182.814, 300.090 180.754 C 301.876 177.349, 301.921 176.748, 300.580 174.155 C 298.532 170.195, 297.136 163.960, 296.079 154.052 C 295.031 144.233, 294.009 143, 286.918 143 C 283.124 143, 281.282 143.680, 277.359 146.529 C 273.168 149.573, 261.063 156, 259.522 156 C 259.235 156, 259 155.348, 259 154.551 C 259 152.577, 264.028 148.953, 272.962 144.490 C 279.886 141.030, 280.908 140.796, 287.151 141.243 L 293.879 141.724 291.536 135.498 C 288.287 126.868, 286.162 122.989, 284.724 123.065 C 284.051 123.100, 277.425 124.840, 270 126.930 M 272.007 152.590 C 267.874 154.386, 264 157.813, 264 159.674 C 264 161.364, 265.005 161.311, 267.408 159.493 C 269.093 158.217, 269.463 158.250, 270.583 159.774 C 271.640 161.213, 271.573 161.613, 270.176 162.180 C 269.254 162.554, 271.057 162.891, 274.183 162.930 C 278.931 162.988, 279.965 162.686, 280.471 161.092 C 281.186 158.837, 283.184 157.878, 284.925 158.954 C 285.818 159.505, 285.396 160.330, 283.432 161.875 C 279.309 165.118, 281.383 165.700, 285.902 162.568 C 289.510 160.067, 295 153.464, 295 151.624 C 295 151.201, 293.814 151.788, 292.365 152.927 C 290.916 154.067, 288.778 154.986, 287.615 154.968 C 285.540 154.937, 285.537 154.908, 287.441 153.468 C 289.222 152.121, 288.920 152, 283.773 152 C 280.688 152, 277.564 151.791, 276.832 151.536 C 276.099 151.282, 273.928 151.756, 272.007 152.590 M 372 188.378 C 372 188.585, 372.788 189.373, 373.750 190.128 C 375.336 191.371, 375.371 191.336, 374.128 189.750 C 372.821 188.084, 372 187.555, 372 188.378 M 376 191.313 C 376 191.485, 377.462 192.948, 379.250 194.563 L 382.500 197.500 379.563 194.250 C 376.825 191.221, 376 190.540, 376 191.313 M 244.500 198 C 244.840 198.550, 245.541 199, 246.059 199 C 246.577 199, 247 198.550, 247 198 C 247 197.450, 246.298 197, 245.441 197 C 244.584 197, 244.160 197.450, 244.500 198 M 367 198.378 C 367 198.585, 367.788 199.373, 368.750 200.128 C 370.336 201.371, 370.371 201.336, 369.128 199.750 C 367.821 198.084, 367 197.555, 367 198.378 M 360.156 208.159 C 371.237 218.879, 373.548 222.010, 376.163 229.850 L 378.047 235.500 377.441 230.500 C 376.157 219.911, 370.064 211.748, 357 203.114 L 350.500 198.818 360.156 208.159 M 384.511 201.377 C 385.457 202.820, 386.419 204, 386.650 204 C 387.374 204, 385.045 200.146, 383.891 199.433 C 383.287 199.059, 383.566 199.934, 384.511 201.377 M 154.405 204.250 L 152.500 206.500 154.750 204.595 C 156.864 202.805, 157.455 202, 156.655 202 C 156.465 202, 155.453 203.012, 154.405 204.250 M 371 202.313 C 371 202.485, 372.462 203.948, 374.250 205.563 L 377.500 208.500 374.563 205.250 C 371.825 202.221, 371 201.540, 371 202.313 M 336.490 205.050 C 337.584 206.397, 342.788 212, 348.055 217.500 C 353.321 223, 358.449 228.752, 359.451 230.281 C 360.452 231.811, 361.484 232.849, 361.745 232.589 C 362.313 232.020, 358.661 226.570, 355.152 222.750 C 353.763 221.238, 353.097 220, 353.672 220 C 354.715 220, 363.888 227.559, 365.182 229.485 C 365.556 230.043, 366.591 231.400, 367.480 232.500 C 368.908 234.266, 368.901 234.097, 367.423 231.058 C 364.860 225.785, 356.228 217.228, 349.526 213.315 C 346.212 211.380, 341.475 208.178, 339 206.198 C 335.840 203.671, 335.092 203.329, 336.490 205.050 M 316.544 207 C 317.557 210.816, 321.274 216.819, 327.067 224 C 329.952 227.575, 333.630 232.637, 335.242 235.250 C 336.853 237.863, 338.401 240, 338.681 240 C 339.685 240, 333.568 230.359, 327.842 222.916 C 324.632 218.744, 320.628 212.894, 318.943 209.916 C 317.258 206.937, 316.178 205.625, 316.544 207 M 147.924 209.750 L 145.500 212.500 148.250 210.076 C 149.762 208.742, 151 207.505, 151 207.326 C 151 206.541, 150.190 207.180, 147.924 209.750 M 236.250 207.663 C 233.912 207.911, 232 208.468, 232 208.899 C 232 210.518, 244.820 221.917, 247.356 222.553 C 251.482 223.589, 253.910 222.541, 262.874 215.853 C 270.296 210.316, 270.985 209.539, 269.089 208.837 C 266.532 207.891, 242.258 207.023, 236.250 207.663 M 388.564 208.293 C 388.940 209.279, 389.499 209.834, 389.807 209.526 C 390.115 209.219, 389.808 208.412, 389.124 207.733 C 388.136 206.753, 388.022 206.868, 388.564 208.293 M 378.824 212.954 C 379.746 215.128, 380.640 216.509, 380.811 216.022 C 381.126 215.122, 378.282 209, 377.549 209 C 377.329 209, 377.903 210.779, 378.824 212.954 M 171.946 215.305 C 167.372 220.522, 161.372 228.807, 164.200 226 C 166.628 223.590, 177 211.020, 177 210.487 C 177 209.621, 176.569 210.031, 171.946 215.305 M 244.679 213.750 C 246.902 215.381, 254.690 215.274, 258.500 213.560 C 261.263 212.317, 260.767 212.221, 252.238 212.355 C 244.564 212.475, 243.268 212.714, 244.679 213.750 M 381.158 220 C 381.158 221.375, 381.385 221.938, 381.662 221.250 C 381.940 220.563, 381.940 219.438, 381.662 218.750 C 381.385 218.063, 381.158 218.625, 381.158 220 M 279.758 229.486 C 274.627 234.323, 254.947 249, 253.592 249 C 253.011 249, 240.299 241.565, 235.585 238.469 L 232.670 236.554 233.349 247.027 C 234.259 261.054, 236.245 264.997, 248.513 277.118 C 253.735 282.278, 258.495 286.663, 259.091 286.862 C 260.576 287.359, 277.612 269.510, 280.738 264.180 C 282.937 260.431, 283.379 258.123, 284.086 246.680 C 284.534 239.431, 285.163 231.363, 285.485 228.750 C 285.806 226.137, 285.941 224.016, 285.784 224.036 C 285.628 224.057, 282.916 226.509, 279.758 229.486 M 200 229.797 C 200 230.418, 197.188 233.980, 193.750 237.712 C 187.836 244.131, 188.077 244.696, 194.320 239.050 C 197.701 235.993, 201.472 230.139, 200.614 229.281 C 200.276 228.943, 200 229.175, 200 229.797 M 294.675 253.659 C 294.304 254.030, 293.996 255.046, 293.990 255.917 C 293.971 259.055, 289.212 267.642, 284.062 273.829 C 281.173 277.301, 278.964 280.278, 279.154 280.444 C 279.344 280.610, 280.971 281.494, 282.770 282.409 C 288.002 285.070, 295.971 297.478, 299.045 307.750 C 301.077 314.540, 301.869 313.496, 304.930 300 C 307.078 290.534, 305.485 275.597, 301.093 264 C 298.657 257.567, 295.635 252.698, 294.675 253.659 M 218.649 259 C 214.250 268.435, 212.613 276.493, 212.655 288.500 C 212.685 296.703, 213.199 301.026, 214.678 305.500 L 216.661 311.500 220.307 303.660 C 225.565 292.353, 232.436 283.063, 236.080 282.334 C 237.686 282.013, 239 281.531, 239 281.264 C 239 280.996, 237.277 278.690, 235.172 276.139 C 229.709 269.519, 225.232 262.722, 223.077 257.777 L 221.214 253.500 218.649 259 M 138.158 264 C 138.158 265.375, 138.385 265.938, 138.662 265.250 C 138.940 264.563, 138.940 263.438, 138.662 262.750 C 138.385 262.063, 138.158 262.625, 138.158 264 M 358 278.579 C 358 278.860, 360.188 282.332, 362.862 286.295 C 369.176 295.652, 374.242 305.793, 376.889 314.371 C 379.402 322.512, 381.640 339.760, 380.351 341.049 C 379.831 341.569, 376.351 339.813, 371.980 336.826 C 363.042 330.716, 356.665 327.763, 345.277 324.463 C 336.601 321.949, 325.784 321.219, 323.029 322.961 C 320.755 324.399, 322.041 324.964, 332.429 327.086 C 355.676 331.835, 367.249 337.033, 375.584 346.467 C 378.758 350.060, 381.898 353, 382.561 353 C 384.421 353, 384.972 349.463, 384.986 337.410 C 384.996 329.689, 384.414 324.028, 383.070 318.774 C 381.185 311.404, 375.734 299.309, 371.765 293.692 C 370.674 292.148, 369.943 290.728, 370.141 290.537 C 370.338 290.346, 376.325 292.609, 383.445 295.566 C 390.565 298.524, 396.572 300.761, 396.795 300.538 C 397.985 299.349, 394.335 297.077, 381.163 290.806 C 373.157 286.995, 364.671 282.570, 362.304 280.972 C 359.937 279.375, 358 278.298, 358 278.579 M 115.924 281.750 L 113.500 284.500 116.250 282.076 C 117.763 280.742, 119 279.505, 119 279.326 C 119 278.541, 118.190 279.180, 115.924 281.750 M 138.865 291.440 C 123.006 297.183, 122 297.639, 122 299.078 C 122 300.259, 124.627 299.631, 137.460 295.383 C 142.938 293.570, 147.538 292.205, 147.684 292.350 C 147.829 292.496, 145.652 295.739, 142.846 299.557 C 132.656 313.423, 128.535 326.179, 129.150 341.948 C 129.581 352.978, 130.765 354.684, 134.705 349.950 C 140.209 343.334, 144.607 339.809, 151.500 336.488 C 160.510 332.148, 174.539 327.529, 183.750 325.871 C 191.677 324.444, 193.280 322.518, 187.451 321.425 C 178.153 319.681, 155.610 327.592, 140.500 337.901 C 137.200 340.153, 134.098 341.996, 133.606 341.998 C 132.190 342.001, 133.778 328.930, 136.112 321.368 C 138.766 312.769, 144.911 300.408, 150.585 292.250 C 152.977 288.813, 154.611 286.031, 154.217 286.070 C 153.822 286.108, 146.914 288.525, 138.865 291.440 M 268.665 289.997 C 263.417 293.326, 262.489 294.828, 263.411 298.502 C 264.272 301.933, 266.522 301.662, 272.741 297.378 C 278.121 293.673, 278.947 291.831, 276.608 288.750 C 274.828 286.405, 274.167 286.508, 268.665 289.997 M 242 289.884 C 242 290.920, 243.780 293.375, 245.955 295.340 C 250.197 299.173, 258 303.601, 258 302.175 C 258 300.444, 250.195 289.289, 248.539 288.653 C 245.098 287.333, 242 287.916, 242 289.884 M 275.953 303.904 L 269.406 308.423 269.793 319.961 C 270.067 328.110, 269.706 333.703, 268.565 339 C 266.719 347.573, 265.361 362, 266.401 362 C 267.600 362, 279.906 335.896, 282.664 327.500 C 285.674 318.339, 286.221 307.408, 283.918 302.443 L 282.500 299.385 275.953 303.904 M 238.398 303.516 C 236.307 306.707, 236.883 310.581, 241.635 325.281 C 245.300 336.619, 255.147 360.661, 257.833 364.828 C 259.933 368.089, 260.451 366.707, 262.578 352.148 C 264.159 341.330, 264.235 338.314, 263.190 327.862 C 261.736 313.321, 260.268 309.338, 255.784 307.775 C 253.978 307.145, 250.092 305.363, 247.148 303.815 C 244.205 302.267, 241.403 301, 240.922 301 C 240.440 301, 239.304 302.132, 238.398 303.516 M 205.367 330.389 C 200.814 335.850, 184.082 348.268, 169.886 356.720 C 157.901 363.856, 145.792 373.131, 147 374.251 C 147.275 374.506, 151.129 376.585, 155.564 378.872 C 174.224 388.492, 205.967 417.842, 219.999 438.448 C 223.800 444.029, 224.665 443.328, 223.083 435.952 C 222.487 433.174, 221.998 422.486, 221.996 412.201 C 221.989 378.286, 218.319 344.777, 213.495 334.581 C 209.794 326.758, 208.815 326.253, 205.367 330.389 M 228.651 330.997 C 228.293 332.786, 228.009 340.156, 228.021 347.375 C 228.039 358.533, 228.392 361.490, 230.374 367.107 C 234.409 378.537, 238.834 383.647, 256.411 397.179 C 265.257 403.990, 267.327 406.859, 267.976 413.212 C 268.678 420.086, 271 420.913, 271 414.289 C 271 409.105, 269.997 407.130, 259.558 391.771 C 250.438 378.352, 236.172 349.015, 231.038 333.122 L 229.301 327.745 228.651 330.997 M 254.200 334.200 C 252.765 335.635, 252.662 338.922, 253.987 341 C 254.725 342.158, 255.348 342.249, 256.722 341.398 C 258.915 340.038, 259.563 336.384, 257.954 334.445 C 256.495 332.687, 255.761 332.639, 254.200 334.200 M 348.500 372.502 C 347.950 372.692, 344.913 373.139, 341.750 373.495 C 338.587 373.852, 336 374.503, 336 374.943 C 336 375.382, 338.650 376.042, 341.889 376.408 C 348.951 377.207, 364.455 374.229, 360 372.929 C 357.398 372.170, 350.237 371.904, 348.500 372.502 M 160.165 373.877 C 159.166 374.510, 159.418 374.890, 161.165 375.389 C 165.216 376.546, 180.626 377.313, 183.625 376.507 C 186.407 375.759, 186.338 375.690, 181.500 374.386 C 175.943 372.888, 162.241 372.561, 160.165 373.877 M 245.223 405.557 C 242.467 407.487, 242.278 412.036, 244.855 414.369 C 246.873 416.195, 250 415.627, 250 413.433 C 250 412.690, 251.160 411.005, 252.578 409.690 C 254.974 407.469, 255.040 407.183, 253.507 405.650 C 251.433 403.576, 248.104 403.539, 245.223 405.557 M 232.004 415.647 C 232.020 419.257, 247.320 435.980, 261.288 447.655 C 271.899 456.523, 275.354 457.378, 271.580 450.200 C 269.830 446.872, 263.980 441.296, 253.500 432.966 C 249.100 429.469, 242.463 423.950, 238.750 420.701 C 235.037 417.452, 232.002 415.178, 232.004 415.647 M 198.302 447.012 C 194.962 448.357, 192.681 453.584, 193.328 458.411 C 194.014 463.523, 197.716 467, 202.474 467 C 207.214 467, 208.862 466.168, 210.537 462.928 C 215.455 453.419, 207.639 443.252, 198.302 447.012 M 242.673 451.339 C 246.790 454.745, 256.322 461, 257.396 461 C 257.903 461, 254.423 458.300, 249.663 455 C 240.751 448.822, 237.700 447.224, 242.673 451.339 M 292.830 454.732 C 288.137 455.105, 284.868 457.312, 286.592 458.944 C 287.675 459.969, 300.063 458.245, 301.492 456.871 C 302.547 455.855, 300.350 453.891, 298.500 454.196 C 297.950 454.286, 295.398 454.528, 292.830 454.732 M 246.083 474.303 C 246.313 474.469, 247.850 475.396, 249.500 476.362 L 252.500 478.119 250.139 476.059 C 248.841 474.927, 247.303 474, 246.723 474 C 246.142 474, 245.854 474.136, 246.083 474.303" stroke="none" fill="black" fill-rule="evenodd"/>
</svg>